<svg width="421" height="322" viewBox="0 0 421 322" fill="none" xmlns="http://www.w3.org/2000/svg">
<path d="M420.5 284.124H0.5V284.334H420.5V284.124Z" fill="#EBEBEB"/>
<path d="M378.416 292.108H302.06V292.318H378.416V292.108Z" fill="#EBEBEB"/>
<path d="M278.725 289.835H257.817V290.045H278.725V289.835Z" fill="#EBEBEB"/>
<path d="M326.512 299.9H294.097V300.11H326.512V299.9Z" fill="#EBEBEB"/>
<path d="M63.583 298.491H44.5654V298.701H63.583V298.491Z" fill="#EBEBEB"/>
<path d="M93.6472 298.491H71.0596V298.701H93.6472V298.491Z" fill="#EBEBEB"/>
<path d="M189.627 294.952H150.281V295.161H189.627V294.952Z" fill="#EBEBEB"/>
<path d="M199.58 246.717H37.3847C36.1141 246.715 34.8962 246.209 33.9985 245.311C33.1009 244.414 32.5967 243.197 32.5967 241.928V14.2764C32.6077 13.015 33.1168 11.8089 34.0133 10.9201C34.9098 10.0312 36.1213 9.53146 37.3847 9.5293H199.58C200.852 9.5293 202.072 10.0339 202.972 10.932C203.871 11.8301 204.377 13.0482 204.377 14.3183V241.928C204.377 243.198 203.871 244.416 202.972 245.314C202.072 246.213 200.852 246.717 199.58 246.717ZM37.3847 9.69704C36.1697 9.69926 35.0053 10.1827 34.147 11.0413C33.2887 11.8998 32.8067 13.0633 32.8067 14.2764V241.928C32.8067 243.141 33.2887 244.305 34.147 245.163C35.0053 246.022 36.1697 246.505 37.3847 246.507H199.58C200.796 246.505 201.961 246.022 202.821 245.164C203.681 244.305 204.164 243.142 204.167 241.928V14.2764C204.164 13.0626 203.681 11.8991 202.821 11.0408C201.961 10.1824 200.796 9.69926 199.58 9.69704H37.3847Z" fill="#EBEBEB"/>
<path d="M381.281 246.717H219.077C217.805 246.715 216.587 246.21 215.688 245.312C214.789 244.414 214.282 243.198 214.28 241.928V14.2764C214.294 13.0142 214.804 11.8081 215.702 10.9195C216.6 10.0309 217.812 9.53143 219.077 9.5293H381.281C382.543 9.53366 383.752 10.0344 384.647 10.923C385.541 11.8116 386.049 13.0165 386.06 14.2764V241.928C386.06 243.195 385.557 244.411 384.661 245.309C383.766 246.206 382.55 246.713 381.281 246.717ZM219.077 9.69704C217.861 9.69926 216.696 10.1824 215.836 11.0408C214.976 11.8991 214.492 13.0626 214.49 14.2764V241.928C214.492 243.142 214.976 244.305 215.836 245.164C216.696 246.022 217.861 246.505 219.077 246.507H381.281C382.496 246.505 383.662 246.022 384.521 245.164C385.381 244.305 385.865 243.142 385.867 241.928V14.2764C385.865 13.0626 385.381 11.8991 384.521 11.0408C383.662 10.1824 382.496 9.69926 381.281 9.69704H219.077Z" fill="#EBEBEB"/>
<path d="M361.003 183.235C359.758 183.239 358.52 183.4 357.315 183.713C356.124 182.095 354.614 180.736 352.879 179.72C351.144 178.704 349.219 178.052 347.223 177.803C345.227 177.555 343.201 177.716 341.269 178.277C339.337 178.837 337.54 179.785 335.988 181.063C333.44 176.765 329.595 173.384 325.003 171.404C320.411 169.423 315.309 168.946 310.429 170.041C305.549 171.135 301.142 173.745 297.839 177.496C294.537 181.246 292.509 185.945 292.047 190.918C289.402 190.33 286.654 190.391 284.037 191.094C281.42 191.797 279.013 193.121 277.019 194.954C275.026 196.788 273.507 199.075 272.591 201.621C271.675 204.168 271.389 206.897 271.758 209.578C272.128 212.258 273.141 214.81 274.711 217.015C276.282 219.219 278.364 221.012 280.778 222.24C283.193 223.468 285.869 224.094 288.579 224.065C291.289 224.037 293.951 223.354 296.34 222.076C297.408 225.93 299.611 229.376 302.664 231.966C305.716 234.556 309.477 236.171 313.46 236.602C317.442 237.033 321.462 236.26 325 234.383C328.537 232.507 331.429 229.613 333.3 226.076C336.505 228.808 340.42 230.578 344.591 231.181C348.762 231.784 353.019 231.195 356.869 229.484C360.719 227.772 364.004 225.006 366.346 221.508C368.688 218.009 369.989 213.92 370.1 209.713C372.547 207.828 374.342 205.225 375.232 202.269C376.122 199.314 376.063 196.154 375.064 193.234C374.064 190.313 372.174 187.779 369.658 185.985C367.142 184.192 364.127 183.23 361.036 183.235H361.003Z" fill="#F5F5F5"/>
<path d="M61.5428 94.5077C59.6569 93.6867 57.5216 93.6468 55.6063 94.397C53.6909 95.1472 52.1523 96.626 51.3284 98.5084C50.3865 98.0368 49.3582 97.7617 48.3063 97.6997C47.2544 97.6378 46.2008 97.7904 45.2099 98.1482C44.219 98.506 43.3114 99.0616 42.5425 99.781C41.7735 100.5 41.1594 101.369 40.7374 102.333C40.3154 103.297 40.0945 104.337 40.088 105.389C40.0816 106.441 40.2898 107.483 40.6999 108.452C41.11 109.421 41.7135 110.297 42.4736 111.026C43.2336 111.755 44.1344 112.321 45.1208 112.691L59.342 118.889L65.5496 104.69C66.369 102.809 66.4073 100.68 65.656 98.771C64.9048 96.862 63.4254 95.3286 61.5428 94.5077Z" fill="#F5F5F5"/>
<path d="M127.852 26.8571C127.536 26.2548 127.103 25.7207 126.579 25.2854C126.056 24.8502 125.451 24.5223 124.801 24.3206C124.15 24.1188 123.466 24.0471 122.787 24.1096C122.109 24.1721 121.449 24.3676 120.847 24.6848C120.183 23.5102 119.086 22.6403 117.79 22.2598C116.494 21.8793 115.101 22.0183 113.906 22.6471C112.711 23.2759 111.808 24.3451 111.39 25.6276C110.972 26.9101 111.071 28.3049 111.666 29.5158L116.504 38.6829L125.66 33.8519C126.265 33.5372 126.801 33.1063 127.239 32.5841C127.676 32.0619 128.007 31.4587 128.21 30.8088C128.414 30.159 128.487 29.4755 128.426 28.7974C128.364 28.1192 128.169 27.4599 127.852 26.8571Z" fill="#E6E6E6"/>
<path d="M339.02 6.04031C338.702 5.4387 338.269 4.90546 337.745 4.47107C337.221 4.03668 336.617 3.70965 335.966 3.50869C335.316 3.30773 334.632 3.23677 333.954 3.29987C333.276 3.36297 332.617 3.55889 332.014 3.87643C331.698 3.27286 331.265 2.73746 330.741 2.30079C330.218 1.86413 329.613 1.53476 328.961 1.33149C328.31 1.12822 327.625 1.05503 326.945 1.1161C326.266 1.17716 325.605 1.37129 325 1.6874C324.396 2.0035 323.86 2.43539 323.422 2.95842C322.985 3.48144 322.655 4.08534 322.451 4.73565C322.248 5.38596 322.175 6.06995 322.236 6.74854C322.297 7.42714 322.491 8.08707 322.808 8.69064L327.646 17.8494L336.819 13.0268C338.036 12.3892 338.951 11.2963 339.364 9.98706C339.776 8.67783 339.652 7.25882 339.02 6.04031Z" fill="#F5F5F5"/>
<path d="M372.62 157.621C372.461 156.618 371.911 155.718 371.089 155.119C370.267 154.52 369.241 154.271 368.236 154.425C368.037 153.462 367.476 152.613 366.666 152.053C365.857 151.492 364.863 151.265 363.891 151.417C362.918 151.569 362.042 152.089 361.443 152.87C360.844 153.65 360.569 154.631 360.676 155.608L361.86 163.156L369.42 161.974C370.421 161.817 371.319 161.271 371.918 160.455C372.518 159.64 372.77 158.621 372.62 157.621Z" fill="#EBEBEB"/>
<path d="M294.946 92.7799C294.553 92.6565 294.139 92.6118 293.728 92.6483C293.318 92.6849 292.918 92.8019 292.553 92.9928C292.188 93.1837 291.864 93.4447 291.6 93.7607C291.336 94.0768 291.137 94.4418 291.015 94.8348C290.621 94.712 290.207 94.6678 289.796 94.7048C289.385 94.7419 288.985 94.8593 288.62 95.0505C288.255 95.2417 287.93 95.5029 287.666 95.8192C287.402 96.1355 287.202 96.5006 287.079 96.8938C286.956 97.287 286.912 97.7006 286.949 98.1109C286.986 98.5211 287.104 98.9201 287.295 99.285C287.487 99.6498 287.749 99.9735 288.065 100.237C288.382 100.501 288.748 100.7 289.142 100.823L295.139 102.694L297.012 96.7051C297.259 95.911 297.18 95.0515 296.793 94.3155C296.405 93.5794 295.741 93.0271 294.946 92.7799Z" fill="#F5F5F5"/>
<path d="M62.1471 16.239C61.3506 15.9922 60.4886 16.0708 59.7501 16.4576C59.0116 16.8443 58.4569 17.5077 58.2075 18.3023C57.8142 18.18 57.4007 18.1363 56.9905 18.1736C56.5803 18.2109 56.1815 18.3285 55.8169 18.5197C55.4522 18.7109 55.1289 18.972 54.8652 19.2879C54.6016 19.6039 54.4029 19.9686 54.2805 20.3613C54.158 20.7539 54.1142 21.1668 54.1516 21.5764C54.189 21.9859 54.3068 22.3841 54.4983 22.7482C54.6898 23.1123 54.9512 23.4352 55.2677 23.6984C55.5841 23.9616 55.9494 24.16 56.3427 24.2823L62.3319 26.1526L64.2051 20.1642C64.3287 19.7716 64.3735 19.3584 64.3369 18.9485C64.3003 18.5385 64.1831 18.1398 63.9919 17.7752C63.8007 17.4105 63.5393 17.0872 63.2228 16.8236C62.9062 16.56 62.5407 16.3613 62.1471 16.239Z" fill="#F5F5F5"/>
<path d="M155.825 156.237C155.819 151.242 153.954 146.427 150.592 142.729C147.229 139.03 142.609 136.712 137.63 136.225C135.145 130.646 131.229 125.82 126.278 122.235C121.328 118.649 115.518 116.431 109.434 115.804C103.351 115.177 97.2091 116.163 91.6294 118.664C86.0497 121.164 81.2292 125.089 77.6544 130.044C74.6911 127.887 71.1312 126.7 67.4645 126.646C63.7978 126.593 60.2045 127.675 57.1791 129.744C54.1536 131.813 51.8446 134.767 50.5698 138.2C49.2951 141.633 49.1171 145.377 50.0604 148.915C47.2577 151.271 44.9686 154.177 43.3346 157.451C41.7005 160.726 40.7562 164.3 40.56 167.953C40.3637 171.606 40.9197 175.261 42.1936 178.691C43.4675 182.122 45.4322 185.255 47.9664 187.897C50.5006 190.539 53.5505 192.635 56.9277 194.054C60.3048 195.473 63.9376 196.186 67.6015 196.149C71.2654 196.111 74.8826 195.324 78.2299 193.835C81.5771 192.347 84.5832 190.189 87.0624 187.496C90.3616 191.776 94.816 195.028 99.9021 196.868C104.988 198.708 110.495 199.061 115.774 197.884C121.054 196.707 125.888 194.05 129.707 190.225C133.527 186.4 136.174 181.566 137.336 176.29C142.375 175.872 147.073 173.578 150.497 169.864C153.922 166.149 155.823 161.285 155.825 156.237Z" fill="#EBEBEB"/>
<path d="M291.812 61.8818C291.814 58.4962 293.078 55.2327 295.357 52.726C297.637 50.2193 300.768 48.6488 304.143 48.3198C305.818 44.5301 308.467 41.2501 311.821 38.8127C315.176 36.3753 319.116 34.8672 323.243 34.4413C327.37 34.0155 331.536 34.6871 335.319 36.388C339.101 38.0889 342.366 40.7586 344.782 44.1262C346.791 42.6752 349.201 41.8796 351.68 41.8486C354.16 41.8175 356.589 42.5524 358.634 43.9526C360.679 45.3529 362.241 47.3501 363.105 49.6707C363.97 51.9914 364.095 54.5222 363.464 56.9166C365.37 58.5111 366.929 60.4797 368.042 62.7003C369.156 64.9208 369.8 67.3461 369.937 69.8258C370.073 72.3054 369.697 74.7865 368.833 77.1153C367.97 79.4441 366.636 81.5709 364.915 83.3639C363.194 85.1569 361.123 86.5779 358.83 87.5388C356.536 88.4996 354.07 88.9798 351.583 88.9497C349.096 88.9196 346.641 88.3797 344.372 87.3636C342.102 86.3474 340.066 84.8767 338.39 83.0425C336.158 85.9455 333.143 88.1522 329.699 89.4033C326.254 90.6544 322.524 90.8978 318.946 90.1051C315.368 89.3124 312.091 87.5164 309.5 84.9281C306.909 82.3399 305.112 79.067 304.319 75.4941C300.903 75.2076 297.721 73.6485 295.403 71.1265C293.086 68.6045 291.804 65.3043 291.812 61.8818Z" fill="#F0F0F0"/>
<path d="M210.5 322C300.45 322 373.368 317.749 373.368 312.506C373.368 307.262 300.45 303.012 210.5 303.012C120.551 303.012 47.6328 307.262 47.6328 312.506C47.6328 317.749 120.551 322 210.5 322Z" fill="#F5F5F5"/>
<path d="M114.833 291.127H69.1959C68.1271 291.116 67.1059 290.684 66.3541 289.926C65.6023 289.167 65.1806 288.143 65.1807 287.076V268.381C65.1827 267.426 65.5217 266.503 66.1383 265.773L117.714 204.547C118.096 204.095 118.572 203.732 119.109 203.482C119.645 203.233 120.23 203.104 120.822 203.104H140.587C141.663 203.104 142.695 203.531 143.456 204.291C144.217 205.05 144.645 206.081 144.645 207.155V264.188C144.645 265.262 145.072 266.292 145.833 267.052C146.594 267.812 147.626 268.239 148.702 268.239H153.918C154.994 268.239 156.026 268.665 156.787 269.425C157.548 270.185 157.975 271.215 157.975 272.29V287.042C157.975 288.117 157.548 289.147 156.787 289.907C156.026 290.667 154.994 291.093 153.918 291.093H148.702C147.626 291.093 146.594 291.52 145.833 292.28C145.072 293.04 144.645 294.07 144.645 295.144V306.886C144.645 307.961 144.217 308.991 143.456 309.751C142.695 310.511 141.663 310.937 140.587 310.937H122.947C121.871 310.937 120.839 310.511 120.079 309.751C119.318 308.991 118.89 307.961 118.89 306.886V295.144C118.881 294.076 118.45 293.054 117.69 292.302C116.93 291.549 115.903 291.127 114.833 291.127ZM118.89 265.437V242.624C118.9 242.035 118.725 241.458 118.391 240.972C118.057 240.487 117.579 240.117 117.025 239.915C116.471 239.713 115.867 239.688 115.298 239.845C114.729 240.001 114.223 240.331 113.85 240.787L94.4379 263.6C94.0868 264.012 93.8612 264.516 93.7876 265.052C93.714 265.588 93.7955 266.134 94.0225 266.625C94.2494 267.116 94.6124 267.532 95.0685 267.824C95.5247 268.116 96.0549 268.271 96.5967 268.272H116.017C116.393 268.277 116.766 268.206 117.114 268.066C117.463 267.926 117.78 267.717 118.047 267.454C118.314 267.19 118.526 266.876 118.671 266.53C118.816 266.184 118.89 265.812 118.89 265.437Z" fill="#1D1D39"/>
<path d="M303.888 314.156C296.393 314.156 288.899 313.232 281.404 311.384C274.012 309.536 267.544 306.918 262 303.53L273.088 280.584C277.4 283.459 282.174 285.666 287.41 287.206C292.749 288.746 297.933 289.516 302.964 289.516C308.2 289.516 312.358 288.541 315.438 286.59C318.518 284.639 320.058 281.867 320.058 278.274C320.058 275.091 318.775 272.576 316.208 270.728C313.641 268.777 309.432 267.802 303.58 267.802H290.798V248.552L319.75 217.29L322.676 227.762H267.544V204.2H345.468V223.296L316.516 254.558L301.578 246.088H309.894C323.343 246.088 333.507 249.117 340.386 255.174C347.367 261.129 350.858 268.829 350.858 278.274C350.858 284.434 349.164 290.235 345.776 295.676C342.491 301.117 337.409 305.583 330.53 309.074C323.651 312.462 314.771 314.156 303.888 314.156Z" fill="#1D1D39"/>
<path d="M167.131 257.503C167.131 237.374 170.771 223.27 178.051 215.19C185.331 207.11 196.399 203.085 211.256 203.113C218.402 203.113 224.282 203.993 228.896 205.755C233.066 207.257 236.885 209.594 240.118 212.624C242.844 215.218 245.154 218.217 246.964 221.514C248.759 224.965 250.111 228.628 250.988 232.417C252.993 240.509 253.991 248.816 253.962 257.151C253.962 276.391 250.7 290.47 244.176 299.388C237.652 308.307 226.426 312.78 210.5 312.808C201.54 312.808 194.319 311.385 188.836 308.539C183.25 305.647 178.547 301.307 175.22 295.975C172.655 292.061 170.662 286.721 169.239 279.955C167.767 272.563 167.06 265.04 167.131 257.503ZM196.396 257.57C196.396 271.073 197.592 280.299 199.983 285.248C202.374 290.196 205.838 292.67 210.374 292.67C211.816 292.684 213.247 292.413 214.583 291.871C215.92 291.33 217.136 290.53 218.161 289.517C220.362 287.42 221.98 284.104 223.016 279.57C224.052 275.035 224.57 267.973 224.57 258.384C224.57 244.31 223.374 234.849 220.983 230.002C218.592 225.154 215.008 222.73 210.231 222.73C205.348 222.73 201.823 225.201 199.656 230.144C197.488 235.087 196.402 244.229 196.396 257.57Z" fill="#1D1D39"/>
<path d="M133.069 214.074C132.288 215.752 131.465 217.262 130.667 218.822L128.315 223.476L125.963 228.148C125.173 229.716 124.359 231.285 123.393 232.828C123.537 231.031 123.884 229.256 124.426 227.536C124.941 225.804 125.607 224.12 126.417 222.504C127.223 220.886 128.179 219.347 129.273 217.907C130.354 216.46 131.632 215.17 133.069 214.074Z" fill="white"/>
<path d="M136.06 218.016C135.329 219.467 134.573 220.835 133.834 222.21L131.659 226.32L129.483 230.446C128.752 231.83 128.005 233.222 127.114 234.581C127.271 232.98 127.607 231.402 128.114 229.876C128.605 228.347 129.226 226.862 129.97 225.439C130.713 224.009 131.593 222.655 132.599 221.396C133.587 220.112 134.753 218.974 136.06 218.016Z" fill="white"/>
<path d="M127.895 212.422C127.248 213.932 126.559 215.349 125.887 216.775L123.913 221.044L121.939 225.322C121.267 226.756 120.587 228.198 119.764 229.616C119.841 227.992 120.103 226.383 120.545 224.818C120.966 223.247 121.528 221.717 122.225 220.247C122.902 218.777 123.714 217.373 124.652 216.054C125.562 214.701 126.653 213.479 127.895 212.422Z" fill="white"/>
<path d="M325.957 276.164C327.395 277.27 328.672 278.568 329.754 280.023C330.87 281.463 331.849 283.004 332.677 284.627C333.482 286.244 334.145 287.928 334.659 289.659C335.2 291.38 335.55 293.155 335.701 294.952C334.727 293.408 333.92 291.84 333.122 290.272L330.77 285.6L328.418 280.945C327.587 279.352 326.797 277.808 325.957 276.164Z" fill="white"/>
<path d="M323 280.106C324.3 281.061 325.462 282.19 326.452 283.461C327.46 284.722 328.34 286.079 329.082 287.512C329.833 288.932 330.454 290.417 330.938 291.949C331.452 293.474 331.79 295.053 331.946 296.654C331.056 295.295 330.308 293.903 329.569 292.519L327.393 288.393L325.218 284.283C324.478 282.95 323.722 281.557 323 280.106Z" fill="white"/>
<path d="M331.157 274.512C332.415 275.558 333.522 276.772 334.45 278.119C335.388 279.436 336.198 280.841 336.869 282.312C337.562 283.784 338.124 285.313 338.549 286.883C338.987 288.448 339.249 290.057 339.33 291.681C338.49 290.255 337.818 288.821 337.155 287.386L335.181 283.1L333.207 278.84C332.501 277.439 331.838 276.022 331.157 274.512Z" fill="white"/>
<path d="M251.76 300.244H262.915V303.079H255.935V305.217H262.411V307.96H255.935V310.627H263.117V313.672H251.76V300.244Z" fill="#6C63FF"/>
<path d="M263.117 315.315H251.76C251.33 315.315 250.918 315.145 250.614 314.841C250.309 314.538 250.139 314.126 250.139 313.697V300.277C250.138 300.064 250.179 299.853 250.26 299.657C250.341 299.46 250.46 299.281 250.611 299.13C250.762 298.98 250.941 298.86 251.138 298.78C251.335 298.699 251.547 298.657 251.76 298.659H262.915C263.128 298.657 263.34 298.699 263.537 298.78C263.734 298.86 263.913 298.98 264.064 299.13C264.215 299.281 264.334 299.46 264.415 299.657C264.496 299.853 264.537 300.064 264.536 300.277V303.079C264.198 303.306 263.959 303.653 263.865 304.05C263.772 304.446 263.831 304.863 264.032 305.217V307.96C263.845 308.161 263.712 308.406 263.646 308.673C263.579 308.939 263.581 309.218 263.652 309.483C263.722 309.749 263.859 309.992 264.049 310.19C264.238 310.389 264.476 310.536 264.738 310.619V313.663C264.742 313.879 264.704 314.093 264.624 314.293C264.545 314.493 264.426 314.676 264.275 314.83C264.124 314.983 263.944 315.106 263.745 315.189C263.546 315.273 263.332 315.315 263.117 315.315ZM253.381 312.078H255.17C254.914 311.939 254.7 311.733 254.552 311.482C254.404 311.23 254.327 310.944 254.33 310.652V307.993C254.561 307.846 254.751 307.644 254.882 307.404C255.014 307.164 255.083 306.895 255.083 306.622C255.083 306.349 255.014 306.08 254.882 305.84C254.751 305.601 254.561 305.398 254.33 305.251V303.079C254.33 302.839 254.384 302.603 254.487 302.386C254.59 302.17 254.74 301.98 254.927 301.829H253.398L253.381 312.078Z" fill="#6C63FF"/>
<path d="M265.418 313.697V300.277H272.356C273.35 300.242 274.343 300.352 275.305 300.604C275.989 300.808 276.582 301.241 276.985 301.829C277.283 302.256 277.491 302.74 277.594 303.25C277.697 303.761 277.694 304.287 277.584 304.796C277.475 305.305 277.261 305.786 276.957 306.209C276.653 306.633 276.265 306.989 275.817 307.255C275.362 307.511 274.868 307.692 274.356 307.792C274.738 307.905 275.103 308.072 275.439 308.287C275.688 308.494 275.911 308.731 276.103 308.992C276.323 309.254 276.519 309.534 276.691 309.83L278.707 313.73H274.003L271.777 309.621C271.598 309.226 271.341 308.872 271.021 308.581C270.723 308.373 270.367 308.265 270.004 308.27H269.635V313.73L265.418 313.697ZM269.618 305.695H271.374C271.745 305.664 272.113 305.602 272.474 305.511C272.747 305.459 272.99 305.306 273.154 305.083C273.347 304.818 273.437 304.492 273.409 304.166C273.382 303.84 273.237 303.534 273.003 303.305C272.536 303.026 271.991 302.905 271.449 302.961H269.618V305.695Z" fill="#6C63FF"/>
<path d="M278.674 315.315H273.969C273.678 315.316 273.392 315.238 273.141 315.091C272.89 314.943 272.683 314.731 272.541 314.477L271.223 312.028V313.705C271.221 314.134 271.049 314.544 270.745 314.847C270.442 315.15 270.031 315.322 269.601 315.324H265.401C265.189 315.324 264.978 315.282 264.781 315.201C264.584 315.119 264.406 315 264.255 314.85C264.105 314.699 263.985 314.521 263.904 314.325C263.822 314.128 263.78 313.918 263.78 313.705V300.286C263.779 300.073 263.82 299.862 263.901 299.665C263.983 299.468 264.102 299.289 264.253 299.139C264.403 298.988 264.583 298.869 264.78 298.788C264.977 298.707 265.188 298.666 265.401 298.667H272.34C273.505 298.627 274.669 298.766 275.792 299.078C276.798 299.398 277.667 300.045 278.262 300.915C278.885 301.828 279.205 302.913 279.178 304.018C279.196 304.981 278.955 305.931 278.48 306.769C278.192 307.263 277.823 307.705 277.388 308.077C277.654 308.4 277.888 308.749 278.085 309.117L280.093 312.992C280.221 313.239 280.284 313.514 280.275 313.792C280.266 314.07 280.185 314.34 280.041 314.578C279.897 314.816 279.693 315.012 279.451 315.149C279.209 315.285 278.935 315.357 278.657 315.357L278.674 315.315ZM274.935 312.078H276.019L275.179 310.543C275.068 310.338 274.932 310.146 274.776 309.973C274.659 309.823 274.532 309.68 274.398 309.545C274.2 309.44 273.992 309.355 273.776 309.293C273.569 309.222 273.378 309.111 273.214 308.966L274.935 312.078ZM267.039 312.078H267.98V308.237C267.98 307.991 268.036 307.749 268.144 307.528C268.252 307.307 268.408 307.113 268.602 306.962C268.408 306.812 268.252 306.62 268.144 306.401C268.036 306.181 267.98 305.94 267.98 305.695V302.961C267.981 302.554 268.133 302.162 268.409 301.862H267.039V312.078ZM271.962 307.255C272.267 307.49 272.531 307.774 272.743 308.094C272.712 307.954 272.698 307.81 272.701 307.666C272.717 307.461 272.768 307.259 272.852 307.071H272.777C272.458 307.172 272.189 307.222 271.962 307.272V307.255ZM273.835 301.93L274.028 302.072C274.352 302.345 274.609 302.687 274.781 303.074C274.953 303.46 275.034 303.881 275.019 304.303C275.024 304.936 274.817 305.553 274.431 306.056C274.612 306.007 274.784 305.934 274.944 305.838C275.257 305.657 275.52 305.4 275.708 305.092C275.889 304.748 275.976 304.364 275.96 303.976C275.983 303.535 275.865 303.097 275.624 302.726C275.426 302.427 275.129 302.208 274.784 302.106C274.474 302.019 274.156 301.96 273.835 301.93Z" fill="#6C63FF"/>
<path d="M280.06 313.697V300.277H286.998C287.994 300.241 288.99 300.352 289.955 300.604C290.639 300.807 291.233 301.24 291.635 301.829C291.933 302.256 292.141 302.74 292.244 303.25C292.347 303.761 292.344 304.287 292.234 304.796C292.125 305.305 291.911 305.786 291.607 306.209C291.303 306.633 290.915 306.989 290.467 307.255C290.012 307.511 289.518 307.692 289.006 307.792C289.388 307.905 289.753 308.072 290.089 308.287C290.341 308.493 290.567 308.73 290.761 308.992C290.976 309.255 291.17 309.536 291.341 309.83L293.357 313.73H288.619L286.393 309.621C286.217 309.225 285.96 308.87 285.637 308.581C285.341 308.37 284.984 308.261 284.621 308.27H284.251V313.73L280.06 313.697ZM284.26 305.695H286.015C286.386 305.664 286.754 305.602 287.116 305.511C287.388 305.459 287.631 305.306 287.796 305.083C287.971 304.861 288.063 304.585 288.056 304.303C288.067 304.117 288.036 303.93 287.965 303.757C287.894 303.584 287.784 303.43 287.645 303.305C287.178 303.026 286.632 302.905 286.091 302.961H284.26V305.695Z" fill="#6C63FF"/>
<path d="M293.314 315.315H288.619C288.328 315.316 288.041 315.238 287.79 315.091C287.539 314.943 287.332 314.731 287.191 314.477L285.872 312.028V313.705C285.872 314.134 285.701 314.546 285.397 314.85C285.093 315.153 284.681 315.324 284.251 315.324H280.051C279.622 315.322 279.211 315.15 278.907 314.847C278.603 314.544 278.432 314.134 278.43 313.705V300.286C278.43 299.856 278.6 299.445 278.905 299.141C279.209 298.838 279.621 298.667 280.051 298.667H286.989C288.154 298.627 289.319 298.766 290.442 299.078C291.451 299.395 292.324 300.042 292.92 300.915C293.483 301.783 293.8 302.787 293.837 303.821C293.874 304.855 293.63 305.88 293.13 306.786C292.842 307.278 292.476 307.719 292.046 308.094C292.309 308.419 292.543 308.767 292.743 309.134L294.742 313.009C294.871 313.256 294.933 313.531 294.924 313.809C294.915 314.086 294.835 314.357 294.69 314.595C294.546 314.832 294.343 315.029 294.1 315.165C293.858 315.302 293.584 315.374 293.306 315.374L293.314 315.315ZM289.577 312.078H290.66L289.862 310.543C289.741 310.342 289.603 310.151 289.45 309.973C289.34 309.818 289.213 309.674 289.072 309.545C288.875 309.44 288.666 309.355 288.451 309.294C288.247 309.221 288.058 309.11 287.897 308.966L289.577 312.078ZM281.68 312.078H282.621V308.237C282.621 307.991 282.677 307.749 282.785 307.528C282.893 307.307 283.049 307.113 283.243 306.962C283.049 306.812 282.893 306.62 282.785 306.401C282.677 306.181 282.621 305.94 282.621 305.695V302.961C282.621 302.553 282.778 302.16 283.058 301.863H281.68V312.078ZM286.603 307.272C286.908 307.507 287.171 307.79 287.384 308.111C287.363 307.969 287.363 307.825 287.384 307.683C287.393 307.477 287.441 307.275 287.527 307.088H287.46C287.098 307.172 286.83 307.222 286.603 307.272ZM288.484 301.946L288.669 302.089C288.993 302.362 289.25 302.704 289.422 303.091C289.594 303.477 289.675 303.897 289.66 304.32C289.665 304.953 289.458 305.57 289.072 306.073C289.255 306.024 289.43 305.95 289.593 305.855C289.904 305.673 290.164 305.416 290.349 305.108C290.53 304.765 290.617 304.38 290.601 303.993C290.624 303.551 290.506 303.114 290.265 302.743C290.067 302.444 289.77 302.224 289.425 302.123C289.118 302.031 288.803 301.966 288.484 301.93V301.946Z" fill="#6C63FF"/>
<path d="M293.802 306.979C293.71 306.042 293.826 305.096 294.143 304.21C294.46 303.324 294.97 302.518 295.636 301.852C296.302 301.186 297.107 300.675 297.994 300.356C298.881 300.038 299.827 299.919 300.766 300.009C301.706 299.949 302.65 300.078 303.54 300.387C304.43 300.697 305.249 301.182 305.949 301.812C306.575 302.486 307.058 303.279 307.37 304.144C307.682 305.008 307.815 305.927 307.763 306.844C307.815 308.178 307.544 309.504 306.973 310.711C306.454 311.703 305.654 312.52 304.672 313.059C303.516 313.656 302.226 313.945 300.925 313.898C299.63 313.941 298.342 313.695 297.154 313.177C296.133 312.672 295.29 311.871 294.735 310.879C294.08 309.685 293.758 308.339 293.802 306.979ZM298.002 306.979C297.91 308.012 298.177 309.046 298.758 309.906C299.026 310.184 299.348 310.405 299.704 310.557C300.059 310.708 300.442 310.786 300.829 310.786C301.215 310.786 301.598 310.708 301.954 310.557C302.31 310.405 302.631 310.184 302.899 309.906C303.486 308.973 303.746 307.873 303.639 306.777C303.717 305.79 303.444 304.806 302.866 304.001C302.602 303.717 302.278 303.494 301.918 303.349C301.558 303.204 301.17 303.141 300.783 303.162C300.401 303.149 300.021 303.221 299.672 303.375C299.323 303.529 299.013 303.761 298.767 304.052C298.166 304.91 297.884 305.951 297.969 306.995L298.002 306.979Z" fill="#6C63FF"/>
<path d="M300.925 315.542C299.384 315.585 297.854 315.282 296.448 314.653C295.139 314.014 294.055 312.993 293.34 311.726C292.529 310.278 292.128 308.637 292.18 306.979C292.241 305.281 292.786 303.636 293.751 302.237C294.716 300.838 296.061 299.743 297.627 299.08C299.194 298.418 300.918 298.216 302.595 298.498C304.273 298.78 305.835 299.534 307.099 300.672C307.883 301.495 308.491 302.469 308.887 303.535C309.283 304.6 309.457 305.735 309.4 306.87C309.453 308.467 309.115 310.053 308.418 311.491C307.757 312.76 306.734 313.805 305.478 314.494C304.076 315.23 302.508 315.591 300.925 315.542ZM302.059 301.712C302.835 301.924 303.531 302.362 304.058 302.97C304.91 304.062 305.326 305.43 305.226 306.811C305.226 308.732 304.864 310.09 304.117 311.004C303.637 311.572 303.009 311.996 302.302 312.229C302.859 312.148 303.396 311.969 303.89 311.701C304.604 311.321 305.189 310.737 305.57 310.023C306.02 309.05 306.231 307.983 306.183 306.912C306.236 306.203 306.143 305.492 305.912 304.82C305.681 304.148 305.316 303.53 304.839 303.003C304.082 302.276 303.104 301.822 302.059 301.712ZM299.463 301.712C298.457 301.833 297.519 302.281 296.792 302.986C296.307 303.524 295.937 304.154 295.703 304.839C295.469 305.524 295.376 306.249 295.431 306.97C295.384 308.049 295.628 309.121 296.137 310.074C296.527 310.797 297.132 311.383 297.867 311.751C298.297 311.953 298.752 312.097 299.22 312.179C298.551 311.935 297.957 311.522 297.498 310.979C296.749 309.785 296.351 308.405 296.351 306.995C296.351 305.586 296.749 304.206 297.498 303.012C298.009 302.398 298.689 301.949 299.455 301.72L299.463 301.712ZM300.757 304.773C300.609 304.758 300.46 304.779 300.323 304.835C300.185 304.89 300.063 304.979 299.967 305.092C299.646 305.668 299.516 306.332 299.598 306.987C299.516 307.637 299.645 308.295 299.967 308.866C300.07 308.983 300.201 309.074 300.347 309.13C300.494 309.185 300.652 309.204 300.807 309.184C301.395 309.184 301.563 308.992 301.647 308.891C301.731 308.79 302 308.421 302 306.803C302.067 306.218 301.937 305.628 301.63 305.125C301.524 304.997 301.389 304.896 301.235 304.832C301.081 304.767 300.914 304.741 300.748 304.756L300.757 304.773Z" fill="#6C63FF"/>
<path d="M310.063 313.697V300.277H317.002C317.995 300.242 318.989 300.352 319.95 300.604C320.634 300.808 321.227 301.241 321.63 301.829C321.929 302.256 322.136 302.74 322.239 303.25C322.343 303.761 322.339 304.287 322.23 304.796C322.12 305.305 321.907 305.786 321.603 306.209C321.299 306.633 320.911 306.989 320.463 307.255C320.007 307.511 319.514 307.692 319.001 307.792C319.384 307.905 319.749 308.072 320.085 308.287C320.334 308.494 320.556 308.731 320.748 308.992C320.968 309.254 321.165 309.534 321.336 309.83L323.352 313.73H318.648L316.422 309.621C316.244 309.226 315.986 308.872 315.666 308.581C315.368 308.373 315.013 308.265 314.65 308.27H314.28V313.73L310.063 313.697ZM314.263 305.695H316.019C316.39 305.664 316.758 305.602 317.119 305.511C317.392 305.459 317.635 305.306 317.8 305.083C317.992 304.818 318.083 304.492 318.055 304.166C318.027 303.84 317.883 303.534 317.649 303.305C317.181 303.026 316.636 302.905 316.095 302.961H314.263V305.695Z" fill="#6C63FF"/>
<path d="M323.319 315.315H318.615C318.324 315.316 318.037 315.238 317.786 315.091C317.535 314.943 317.328 314.731 317.187 314.477L315.868 312.028V313.705C315.866 314.134 315.695 314.544 315.391 314.847C315.087 315.15 314.676 315.322 314.247 315.324H310.047C309.617 315.324 309.205 315.153 308.901 314.85C308.597 314.546 308.426 314.134 308.426 313.705V300.286C308.425 300.073 308.466 299.862 308.547 299.665C308.628 299.468 308.747 299.289 308.898 299.139C309.049 298.988 309.228 298.869 309.425 298.788C309.622 298.707 309.834 298.666 310.047 298.667H316.985C318.15 298.627 319.315 298.766 320.438 299.078C321.443 299.398 322.313 300.045 322.907 300.915C323.534 301.827 323.857 302.912 323.831 304.018C323.848 304.982 323.604 305.932 323.126 306.769C322.837 307.263 322.468 307.705 322.034 308.077C322.3 308.4 322.534 308.749 322.731 309.117L324.739 312.992C324.867 313.239 324.93 313.514 324.92 313.792C324.911 314.07 324.831 314.34 324.686 314.578C324.542 314.816 324.339 315.012 324.096 315.149C323.854 315.285 323.581 315.357 323.302 315.357L323.319 315.315ZM319.581 312.078H320.656L319.867 310.543C319.746 310.342 319.608 310.151 319.455 309.973C319.338 309.823 319.212 309.68 319.077 309.545C318.879 309.44 318.671 309.355 318.455 309.293C318.248 309.222 318.057 309.111 317.893 308.966L319.581 312.078ZM311.685 312.078H312.626V308.237C312.626 307.991 312.682 307.749 312.789 307.528C312.897 307.307 313.054 307.113 313.247 306.962C313.054 306.812 312.897 306.62 312.79 306.401C312.682 306.181 312.626 305.94 312.626 305.695V302.961C312.623 302.554 312.776 302.161 313.054 301.862H311.685V312.078ZM316.607 307.255C316.912 307.49 317.176 307.774 317.389 308.094C317.367 307.952 317.367 307.808 317.389 307.666C317.397 307.461 317.446 307.258 317.531 307.071H317.456C317.103 307.172 316.834 307.222 316.607 307.272V307.255ZM318.489 301.93L318.674 302.072C318.997 302.345 319.255 302.687 319.426 303.074C319.598 303.46 319.68 303.881 319.665 304.303C319.669 304.936 319.463 305.553 319.077 306.056C319.607 305.907 320.061 305.562 320.345 305.092C320.528 304.721 320.617 304.312 320.603 303.9C320.59 303.487 320.476 303.084 320.27 302.726C320.072 302.427 319.774 302.208 319.43 302.106C319.122 302.02 318.807 301.961 318.489 301.93Z" fill="#6C63FF"/>
<path d="M251.76 300.244H262.915V303.079H255.935V305.217H262.411V307.96H255.935V310.627H263.117V313.672H251.76V300.244Z" fill="white"/>
<path d="M265.418 313.697V300.277H272.356C273.35 300.242 274.343 300.352 275.305 300.604C275.989 300.808 276.582 301.241 276.985 301.829C277.283 302.256 277.491 302.74 277.594 303.25C277.697 303.761 277.694 304.287 277.584 304.796C277.475 305.305 277.261 305.786 276.957 306.209C276.653 306.633 276.265 306.989 275.817 307.255C275.362 307.511 274.868 307.692 274.356 307.792C274.738 307.905 275.103 308.072 275.439 308.287C275.688 308.494 275.911 308.731 276.103 308.992C276.323 309.254 276.519 309.534 276.691 309.83L278.707 313.73H274.003L271.777 309.621C271.598 309.226 271.341 308.872 271.021 308.581C270.723 308.373 270.367 308.265 270.004 308.27H269.635V313.73L265.418 313.697ZM269.618 305.695H271.374C271.745 305.664 272.113 305.602 272.474 305.511C272.747 305.459 272.99 305.306 273.154 305.083C273.347 304.818 273.437 304.492 273.409 304.166C273.382 303.84 273.237 303.534 273.003 303.305C272.536 303.026 271.991 302.905 271.449 302.961H269.618V305.695Z" fill="white"/>
<path d="M280.06 313.697V300.277H286.998C287.994 300.241 288.99 300.352 289.955 300.604C290.639 300.807 291.233 301.24 291.635 301.829C291.933 302.256 292.141 302.74 292.244 303.25C292.347 303.761 292.344 304.287 292.234 304.796C292.125 305.305 291.911 305.786 291.607 306.209C291.303 306.633 290.915 306.989 290.467 307.255C290.012 307.511 289.518 307.692 289.006 307.792C289.388 307.905 289.753 308.072 290.089 308.287C290.341 308.493 290.567 308.73 290.761 308.992C290.976 309.255 291.17 309.536 291.341 309.83L293.357 313.73H288.619L286.393 309.621C286.217 309.225 285.96 308.87 285.637 308.581C285.341 308.37 284.984 308.261 284.621 308.27H284.251V313.73L280.06 313.697ZM284.26 305.695H286.015C286.386 305.664 286.754 305.602 287.116 305.511C287.388 305.459 287.631 305.306 287.796 305.083C287.971 304.861 288.063 304.585 288.056 304.303C288.067 304.117 288.036 303.93 287.965 303.757C287.894 303.584 287.784 303.43 287.645 303.305C287.178 303.026 286.632 302.905 286.091 302.961H284.26V305.695Z" fill="white"/>
<path d="M293.802 306.979C293.71 306.042 293.826 305.096 294.143 304.21C294.46 303.324 294.97 302.518 295.636 301.852C296.302 301.186 297.107 300.675 297.994 300.356C298.881 300.038 299.827 299.919 300.766 300.009C301.706 299.949 302.65 300.078 303.54 300.387C304.43 300.697 305.249 301.182 305.949 301.812C306.575 302.486 307.058 303.279 307.37 304.144C307.682 305.008 307.815 305.927 307.763 306.844C307.815 308.178 307.544 309.504 306.973 310.711C306.454 311.703 305.654 312.52 304.672 313.059C303.516 313.656 302.226 313.945 300.925 313.898C299.63 313.941 298.342 313.695 297.154 313.177C296.133 312.672 295.29 311.871 294.735 310.879C294.08 309.685 293.758 308.339 293.802 306.979ZM298.002 306.979C297.91 308.012 298.177 309.046 298.758 309.906C299.026 310.184 299.348 310.405 299.704 310.557C300.059 310.708 300.442 310.786 300.829 310.786C301.215 310.786 301.598 310.708 301.954 310.557C302.31 310.405 302.631 310.184 302.899 309.906C303.486 308.973 303.746 307.873 303.639 306.777C303.717 305.79 303.444 304.806 302.866 304.001C302.602 303.717 302.278 303.494 301.918 303.349C301.558 303.204 301.17 303.141 300.783 303.162C300.401 303.149 300.021 303.221 299.672 303.375C299.323 303.529 299.013 303.761 298.767 304.052C298.166 304.91 297.884 305.951 297.969 306.995L298.002 306.979Z" fill="white"/>
<path d="M310.063 313.697V300.277H317.002C317.995 300.242 318.989 300.352 319.95 300.604C320.634 300.808 321.227 301.241 321.63 301.829C321.929 302.256 322.136 302.74 322.239 303.25C322.343 303.761 322.339 304.287 322.23 304.796C322.12 305.305 321.907 305.786 321.603 306.209C321.299 306.633 320.911 306.989 320.463 307.255C320.007 307.511 319.514 307.692 319.001 307.792C319.384 307.905 319.749 308.072 320.085 308.287C320.334 308.494 320.556 308.731 320.748 308.992C320.968 309.254 321.165 309.534 321.336 309.83L323.352 313.73H318.648L316.422 309.621C316.244 309.226 315.986 308.872 315.666 308.581C315.368 308.373 315.013 308.265 314.65 308.27H314.28V313.73L310.063 313.697ZM314.263 305.695H316.019C316.39 305.664 316.758 305.602 317.119 305.511C317.392 305.459 317.635 305.306 317.8 305.083C317.992 304.818 318.083 304.492 318.055 304.166C318.027 303.84 317.883 303.534 317.649 303.305C317.181 303.026 316.636 302.905 316.095 302.961H314.263V305.695Z" fill="white"/>
<path d="M358.759 94.4742C355.229 93.3542 351.541 92.8132 347.839 92.8722C344.244 92.8931 340.684 93.5784 337.339 94.8935C335.934 95.4446 334.613 96.1899 333.416 97.1077C333.298 97.2084 333.164 97.3006 333.071 97.3929C332.979 97.4851 332.887 97.5522 332.735 97.7116C332.584 97.8709 332.189 98.2735 331.895 98.5503C331.359 99.1579 330.862 99.7995 330.409 100.471C328.532 103.227 327.339 106.389 326.931 109.697C326.731 111.263 326.751 112.85 326.99 114.41C327.102 115.144 327.273 115.868 327.502 116.574C327.731 117.282 328.011 117.971 328.342 118.637C329.263 120.361 330.305 122.017 331.459 123.594C332.744 125.423 334.231 127.419 335.659 129.859C337.32 132.562 338.505 135.53 339.161 138.632C339.496 140.378 339.62 142.158 339.531 143.933C339.431 145.674 339.123 147.397 338.615 149.066C337.635 152.263 336.005 155.224 333.827 157.763C332.753 159.011 331.557 160.149 330.257 161.16C329.002 162.146 327.658 163.014 326.242 163.752C323.51 165.159 320.573 166.13 317.54 166.629C314.701 167.098 311.817 167.233 308.947 167.031C306.21 166.837 303.497 166.394 300.841 165.706C298.346 165.06 295.892 164.267 293.491 163.332C288.82 161.546 284.587 159.5 280.546 157.763C276.804 156.048 272.89 154.732 268.87 153.838C267.048 153.469 265.194 153.283 263.335 153.285C261.449 153.291 259.568 153.47 257.715 153.821C253.809 154.618 250.033 155.95 246.493 157.78C239.151 161.479 232.364 167.115 225.341 173.02C224.071 174.092 222.427 174.619 220.769 174.485C219.111 174.352 217.573 173.57 216.491 172.308C215.408 171.047 214.869 169.41 214.992 167.753C215.114 166.097 215.887 164.556 217.143 163.467C224.073 157.436 231.373 150.97 240.428 146.139C245.032 143.646 249.963 141.811 255.077 140.687C257.739 140.126 260.447 139.814 263.167 139.756C265.917 139.695 268.667 139.912 271.373 140.402C276.378 141.38 281.264 142.89 285.947 144.906C290.399 146.726 294.507 148.596 298.472 150.022C300.374 150.721 302.315 151.309 304.285 151.783C306.098 152.219 307.949 152.483 309.812 152.572C313.087 152.839 316.373 152.204 319.312 150.735C319.93 150.392 320.514 149.993 321.059 149.544C321.567 149.128 322.034 148.665 322.454 148.16C323.259 147.173 323.854 146.031 324.201 144.805C324.357 144.259 324.442 143.696 324.453 143.128C324.467 142.604 324.416 142.08 324.302 141.568C323.937 140.181 323.347 138.864 322.555 137.668C321.622 136.158 320.345 134.464 318.943 132.56C317.324 130.432 315.861 128.19 314.566 125.85C313.834 124.479 313.205 123.055 312.685 121.59C312.176 120.118 311.783 118.61 311.509 117.077C310.977 114.097 310.861 111.057 311.164 108.045C311.75 102.173 313.738 96.527 316.96 91.5806C317.771 90.3288 318.66 89.1298 319.623 87.9909C320.119 87.4206 320.623 86.8587 321.152 86.3135C321.395 86.0535 321.748 85.7264 322.059 85.4328C322.37 85.1393 322.697 84.8709 323.017 84.5941C325.416 82.6328 328.087 81.0283 330.946 79.8303C336.152 77.6546 341.718 76.4657 347.36 76.3244C352.871 76.1492 358.374 76.8658 363.656 78.4464C365.658 79.1844 367.303 80.6555 368.258 82.5609C369.213 84.4663 369.406 86.6632 368.798 88.7054C368.189 90.7477 366.825 92.4822 364.983 93.5567C363.14 94.6313 360.957 94.9653 358.876 94.4909L358.759 94.4742Z" fill="#1D1D39"/>
<path d="M358.556 95.1535C354.042 93.6258 349.259 93.0545 344.512 93.4761C342.221 93.6841 339.965 94.1685 337.792 94.9187C335.993 95.5316 334.311 96.4447 332.819 97.6193L332.34 98.0303C330.757 99.4817 328.662 100.246 326.514 100.155C324.367 100.063 322.344 99.1243 320.891 97.5438C319.437 95.9634 318.672 93.8711 318.763 91.7273C318.855 89.5834 319.795 87.5636 321.378 86.1122C324.32 83.2384 327.792 80.96 331.601 79.4025C335.029 77.9755 338.621 76.9755 342.294 76.4251C349.501 75.368 356.851 75.8366 363.865 77.8005C366.193 78.4367 368.173 79.9703 369.369 82.0638C370.564 84.1573 370.878 86.6393 370.241 88.9638C369.604 91.2883 368.068 93.2649 365.971 94.4587C363.874 95.6525 361.388 95.9658 359.06 95.3296L358.615 95.1954L358.556 95.1535Z" fill="#6C63FF"/>
<path d="M201.93 198.953L205.046 203.8C201.913 205.436 198.637 205.193 195.294 205.193C193.874 198.634 201.93 198.953 201.93 198.953Z" fill="#1D1D39"/>
<path d="M182.938 173.078C186.911 184.493 201.644 199.632 201.644 199.632C201.644 199.632 195.428 200.873 197.117 205.159H205.794L224.476 201.645C225.099 201.5 225.643 201.124 225.999 200.593C226.355 200.062 226.495 199.415 226.391 198.785L219.494 175.687L182.938 173.078Z" fill="#6C63FF"/>
<path d="M255.404 179.612L257.084 186.414C260.377 185.114 263.158 184.225 264.586 181.172C262.931 176.928 255.404 179.612 255.404 179.612Z" fill="#1D1D39"/>
<path d="M240.654 144.713C246.534 155.23 258.933 180.878 258.933 180.878C258.933 180.878 265.3 181.147 264.452 185.617L239.764 191.706C239.214 191.897 238.615 191.9 238.063 191.717C237.51 191.533 237.033 191.173 236.706 190.691L219.066 175.779C228.693 169.908 239.898 154.501 240.654 144.713Z" fill="#6C63FF"/>
<path opacity="0.1" d="M229.214 166.78C226.322 170.274 222.925 173.319 219.134 175.812L224.174 179.914C229.609 175.058 231.154 169.858 229.214 166.78Z" fill="black"/>
<path d="M222.929 114.175C229.784 115.341 258.251 111.483 260.368 111.383C260.595 109.814 261.317 105.931 263.023 106.619C264.728 107.306 265.601 110.242 265.257 111.651C269.297 110.93 274.606 119.199 268.567 125.909C259.721 135.823 227.407 137.341 227.407 137.341C227.407 137.341 209.876 115.819 222.929 114.175Z" fill="#6C63FF"/>
<path opacity="0.1" d="M225.063 127.368C223.698 127.217 222.315 127.369 221.015 127.813C222.89 131.154 225.03 134.341 227.415 137.341C227.415 137.341 233.934 137.03 241.914 135.806C237.521 132.669 230.557 128.249 225.063 127.368Z" fill="black"/>
<path d="M265.257 111.626C269.339 109.948 272.195 109.11 273.136 110.51C274.077 111.911 272.817 114.855 268.869 115.618C265.248 113.354 265.257 111.626 265.257 111.626Z" fill="#6C63FF"/>
<path d="M267.912 115.115C272.213 114.972 275.094 115.224 275.472 116.792C275.85 118.361 273.683 120.642 269.836 119.979C267.307 116.692 267.912 115.115 267.912 115.115Z" fill="#6C63FF"/>
<path d="M270.625 119.501C273.388 120.785 275.084 121.908 274.581 123.259C274.077 124.609 271.683 125.649 269.541 123.888C269.516 120.516 270.625 119.501 270.625 119.501Z" fill="#6C63FF"/>
<path d="M170.305 135.621C167.147 141.803 147.02 162.267 145.668 163.911C144.273 163.148 140.729 161.395 140.267 163.181C139.805 164.968 141.627 167.417 142.938 167.962C139.947 170.763 143.383 179.947 152.43 179.159C165.677 178.002 186.215 153.067 186.215 153.067C186.215 153.067 179.419 126.152 170.305 135.621Z" fill="#6C63FF"/>
<path opacity="0.1" d="M179.611 145.216C180.313 144.036 181.261 143.02 182.391 142.239C183.956 145.739 185.234 149.36 186.213 153.067C186.213 153.067 182.072 158.099 176.31 163.743C176.419 158.359 177.032 150.139 179.611 145.216Z" fill="black"/>
<path d="M142.937 167.962C139.132 170.21 136.772 172.013 137.335 173.598C137.897 175.183 141.014 175.947 143.987 173.246C144.332 168.994 142.937 167.962 142.937 167.962Z" fill="#6C63FF"/>
<path d="M144.138 172.181C141.45 175.536 139.938 177.985 140.996 179.234C142.055 180.484 145.146 180.073 146.918 176.618C145.818 172.634 144.138 172.181 144.138 172.181Z" fill="#6C63FF"/>
<path d="M146.054 176.97C145.424 179.947 145.315 182.002 146.709 182.388C148.103 182.774 150.354 181.499 150.203 178.748C147.499 176.693 146.054 176.97 146.054 176.97Z" fill="#6C63FF"/>
<path opacity="0.1" d="M219.512 175.771V175.72L208.34 174.881C208.113 179.687 213.716 182.732 221.242 181.44L219.512 175.771Z" fill="black"/>
<path d="M221.577 118.034L198.528 127.888L175.486 137.743C175.486 137.743 177.939 167.484 185.499 177.674C193.059 187.865 207.658 184.728 220.552 179.209C233.446 173.691 245.752 165.312 243.619 152.815C241.485 140.318 221.577 118.034 221.577 118.034Z" fill="#6C63FF"/>
<path opacity="0.2" d="M211.548 123.594L198.999 128.962L186.457 134.33C186.642 131.889 181.518 154.593 190.254 166.696C195.949 174.58 206.584 172.416 215.933 168.415C225.282 164.414 234.178 158.225 232.389 148.672C229.65 134.019 209.658 122.068 211.548 123.594Z" fill="white"/>
<path opacity="0.2" d="M207.558 127.134L199.158 130.707L190.8 134.288C190.859 132.527 187.961 148.856 194.16 157.847C198.217 163.718 205.365 162.41 211.598 159.743C217.831 157.076 223.711 152.807 222.258 145.829C220.082 135.135 206.231 125.968 207.558 127.134Z" fill="white"/>
<path opacity="0.2" d="M148.781 175.884C150.369 175.248 150.989 173.07 150.165 171.019C149.341 168.968 147.386 167.822 145.797 168.458C144.209 169.095 143.589 171.273 144.413 173.323C145.237 175.374 147.192 176.52 148.781 175.884Z" fill="white"/>
<path opacity="0.2" d="M268.861 119.267C269.02 121.472 267.769 123.359 266.063 123.46C264.358 123.561 262.838 121.9 262.703 119.703C262.569 117.505 263.795 115.61 265.501 115.509C267.206 115.408 268.701 117.069 268.861 119.267Z" fill="white"/>
<path d="M148.079 64.0457C114.589 40.3772 63.1303 54.8953 59.0899 63.836C54.7975 73.3554 101.401 98.9948 112.85 123.77C129.566 92.7632 148.079 64.0457 148.079 64.0457Z" fill="#1D1D39"/>
<path opacity="0.5" d="M135.74 73.7496C109.229 55.2979 71.8494 63.6012 69.4302 69.8915C66.8514 76.6012 103.265 97.0239 113.438 115.392C123.812 93.7109 135.74 73.7496 135.74 73.7496Z" fill="#6C63FF"/>
<path d="M139.042 69.2709C131.532 69.7741 125.173 72.2902 119.57 78.1948C122.095 77.3866 124.786 77.2438 127.382 77.7802C129.978 78.3166 132.392 79.5139 134.388 81.2561L139.042 69.2709Z" fill="#1D1D39"/>
<path d="M188.154 46.894C204.249 -3.81452 261.57 -4.01581 272.994 3.6584C281.671 9.52939 244.72 32.9546 254.623 66.7715C221.292 55.3818 188.154 46.894 188.154 46.894Z" fill="#1D1D39"/>
<path opacity="0.5" d="M203.3 45.7954C216.74 16.4404 248.089 4.69846 262.73 7.32362C276.573 9.78944 235.211 42.0211 243.662 70.3948C223.687 56.9754 203.3 45.7954 203.3 45.7954Z" fill="#6C63FF"/>
<path d="M202.383 41.2663C204.974 39.8654 207.816 38.9907 210.748 38.6927C213.679 38.3947 216.64 38.6793 219.46 39.5301C217.388 39.9939 215.471 40.9854 213.896 42.4081C212.321 43.8307 211.141 45.6362 210.472 47.6489L202.383 41.2663Z" fill="#1D1D39"/>
<path d="M203.081 38.8843C204.796 37.2829 206.812 36.0361 209.012 35.2156C211.212 34.3951 213.553 34.0172 215.899 34.1036C214.395 34.8799 213.116 36.0316 212.189 37.4468C211.262 38.8621 210.717 40.4928 210.607 42.1804L203.081 38.8843Z" fill="#1D1D39"/>
<path d="M264.538 69.3631C273.005 89.0896 242.462 112.976 199.942 131.168C157.421 149.359 119.033 154.962 110.54 135.227C102.048 115.492 122.502 68.0379 165.023 49.8462C207.544 31.6546 256.07 49.6282 264.538 69.3631Z" fill="#6C63FF"/>
<path opacity="0.1" d="M247.754 71.2418C255.6 89.5341 231.676 110.502 197.354 125.179C163.032 139.857 131.338 142.683 123.493 124.383C115.647 106.082 134.614 73.5818 168.92 58.9128C203.226 44.2437 239.9 52.9411 247.754 71.2418Z" fill="black"/>
<path d="M178.721 97.9045C177.982 96.1767 180.241 94.1974 183.475 92.8051C186.709 91.4128 189.716 91.1277 190.456 92.8806C191.195 94.6335 190.061 99.2045 186.818 100.597C183.576 101.989 179.46 99.6322 178.721 97.9045Z" fill="#1D1D39"/>
<path opacity="0.3" d="M185.583 113.312C185.087 112.137 187.465 110.435 190.707 109.051C193.949 107.667 196.822 107.122 197.318 108.288C197.813 109.454 196.201 112.926 192.967 114.31C189.733 115.694 186.087 114.477 185.583 113.312Z" fill="black"/>
<path opacity="0.4" d="M125.584 99.0787C130.212 85.8438 140.788 76.0225 151.574 73.5651C169.76 69.4219 175.094 92.1593 166.307 107.835C156.496 125.381 134.824 122.705 132.707 114.679C129.658 120.021 117.26 122.814 125.584 99.0787Z" fill="white"/>
<path d="M166.314 84.1748C166.314 84.1748 165.079 100.286 156.562 105.981C148.044 111.676 135.461 104.698 135.461 104.698C135.461 104.698 136.696 88.5948 145.213 82.8916C153.731 77.1883 166.314 84.1748 166.314 84.1748Z" fill="white"/>
<path d="M135.461 104.614C135.384 100.668 135.951 96.7364 137.141 92.9729C137.726 91.0469 138.532 89.195 139.543 87.4542C140.565 85.6489 141.905 84.0434 143.5 82.7154C145.143 81.3771 147.085 80.4537 149.161 80.0232C151.178 79.5954 153.256 79.5385 155.293 79.8554C159.238 80.434 163 81.8963 166.297 84.1329C162.715 82.7601 158.952 81.9126 155.125 81.6167C153.29 81.4941 151.447 81.6639 149.665 82.1199C147.926 82.5215 146.307 83.3324 144.945 84.4851C143.533 85.6316 142.331 87.0135 141.391 88.5696L141.005 89.1483L140.661 89.7606C140.442 90.1716 140.199 90.5993 139.989 90.9935C139.594 91.8322 139.149 92.6709 138.821 93.5684C137.388 97.1482 136.264 100.844 135.461 104.614Z" fill="#1D1D39"/>
<path d="M189.036 74.4122C189.036 74.4122 201.569 84.6361 211.54 82.3799C221.511 80.1238 225.165 66.2431 225.165 66.2431C225.165 66.2431 212.64 56.0192 202.661 58.2754C192.682 60.5315 189.036 74.4122 189.036 74.4122Z" fill="white"/>
<path d="M225.164 66.2431C221.875 64.2313 218.422 62.5002 214.841 61.0683C214.001 60.716 213.052 60.4476 212.161 60.1457C211.716 60.0031 211.254 59.9024 210.8 59.7766L210.128 59.6005L209.44 59.4831C207.664 59.0921 205.834 59.007 204.03 59.2315C202.255 59.4282 200.551 60.0403 199.057 61.0179C197.498 61.9882 196.105 63.2031 194.933 64.616C192.506 67.5786 190.525 70.8787 189.053 74.4122C189.702 70.4856 191.236 66.7576 193.538 63.5089C194.715 61.8182 196.189 60.3547 197.89 59.1895C199.641 57.9835 201.658 57.2181 203.77 56.9586C205.83 56.7231 207.916 56.8624 209.927 57.3695C211.87 57.8399 213.753 58.5322 215.538 59.4328C219.095 61.1665 222.347 63.4667 225.164 66.2431Z" fill="#1D1D39"/>
<path d="M158.307 103.071C163.189 101.885 166.184 96.9728 164.997 92.0983C163.81 87.2239 158.889 84.2335 154.007 85.419C149.126 86.6046 146.131 91.5172 147.318 96.3916C148.505 101.266 153.425 104.256 158.307 103.071Z" fill="#1D1D39"/>
<path d="M148.85 94.7845C149.151 95.4785 149.65 96.068 150.286 96.4786C150.921 96.8893 151.665 97.1026 152.422 97.0918C153.179 97.0809 153.915 96.8463 154.539 96.4176C155.163 95.9888 155.645 95.3852 155.925 94.6829C156.205 93.9807 156.271 93.2113 156.113 92.4719C155.956 91.7325 155.582 91.0563 155.04 90.5287C154.498 90.0011 153.811 89.6458 153.067 89.5076C152.322 89.3694 151.554 89.4545 150.858 89.7522C150.395 89.9504 149.975 90.238 149.623 90.5983C149.272 90.9587 148.995 91.3849 148.808 91.8524C148.622 92.3198 148.529 92.8195 148.537 93.3227C148.544 93.8258 148.65 94.3226 148.85 94.7845Z" fill="white"/>
<path d="M211.468 77.5714C213.335 72.914 211.067 67.6275 206.402 65.7637C201.737 63.8999 196.443 66.1646 194.576 70.822C192.71 75.4795 194.978 80.766 199.642 82.6298C204.307 84.4936 209.602 82.2289 211.468 77.5714Z" fill="#1D1D39"/>
<path d="M195.713 74.7308C196.014 75.4247 196.513 76.0143 197.149 76.4249C197.784 76.8356 198.528 77.0489 199.285 77.0381C200.042 77.0272 200.778 76.7926 201.402 76.3638C202.026 75.9351 202.508 75.3315 202.788 74.6292C203.068 73.9269 203.134 73.1575 202.976 72.4182C202.819 71.6788 202.445 71.0026 201.903 70.475C201.361 69.9474 200.674 69.5921 199.93 69.4539C199.185 69.3157 198.417 69.4008 197.721 69.6985C197.257 69.8958 196.837 70.1829 196.484 70.5431C196.132 70.9033 195.854 71.3296 195.668 71.7973C195.481 72.2651 195.389 72.7652 195.397 73.2686C195.405 73.7721 195.512 74.269 195.713 74.7308Z" fill="white"/>
<path d="M157.494 94.8012C157.615 95.0776 157.815 95.3121 158.069 95.4751C158.323 95.6381 158.619 95.7223 158.921 95.7171C159.223 95.7119 159.517 95.6176 159.765 95.4459C160.013 95.2743 160.205 95.0331 160.316 94.7527C160.427 94.4723 160.453 94.1654 160.389 93.8705C160.326 93.5757 160.177 93.3063 159.96 93.0961C159.744 92.886 159.47 92.7446 159.173 92.6898C158.876 92.635 158.569 92.6693 158.292 92.7883C157.919 92.9504 157.627 93.2532 157.477 93.6304C157.328 94.0076 157.334 94.4285 157.494 94.8012Z" fill="white"/>
<path d="M204.358 74.7477C204.474 75.0254 204.67 75.2627 204.921 75.4296C205.172 75.5965 205.467 75.6856 205.768 75.6857C206.07 75.6858 206.364 75.5969 206.615 75.4301C206.866 75.2633 207.062 75.0262 207.179 74.7485C207.295 74.4707 207.326 74.1649 207.269 73.8693C207.212 73.5737 207.068 73.3017 206.857 73.0873C206.645 72.873 206.375 72.726 206.079 72.6647C205.784 72.6035 205.478 72.6308 205.198 72.7431C205.009 72.8177 204.838 72.9291 204.693 73.0709C204.548 73.2127 204.433 73.3819 204.355 73.5687C204.277 73.7555 204.237 73.956 204.237 74.1585C204.238 74.3609 204.279 74.5613 204.358 74.7477Z" fill="white"/>
<path d="M199.477 103.356C199.015 103.65 198.553 103.952 198.074 104.195C197.595 104.438 197.066 104.673 196.537 104.866C195.456 105.243 194.322 105.444 193.177 105.461C192 105.445 190.837 105.194 189.758 104.723C188.648 104.237 187.663 103.506 186.877 102.585L188.246 101.997C188.368 103.203 188.219 104.421 187.809 105.562C187.406 106.666 186.787 107.678 185.987 108.539C185.188 109.356 184.26 110.036 183.24 110.552C182.736 110.794 182.22 111.009 181.694 111.198C181.157 111.358 180.619 111.492 180.09 111.618C180.569 111.332 181.047 111.072 181.518 110.779C181.988 110.485 182.425 110.217 182.845 109.881C183.677 109.264 184.425 108.543 185.071 107.734C185.677 106.934 186.137 106.034 186.432 105.076C186.578 104.602 186.679 104.117 186.734 103.625C186.789 103.156 186.789 102.684 186.734 102.216C186.715 102.018 186.772 101.822 186.894 101.665C187.016 101.509 187.193 101.406 187.389 101.377C187.523 101.36 187.659 101.377 187.784 101.427C187.909 101.477 188.019 101.558 188.103 101.662C188.409 102.022 188.749 102.351 189.12 102.643C189.519 102.934 189.94 103.192 190.38 103.415C191.28 103.856 192.248 104.139 193.244 104.254C194.279 104.347 195.321 104.302 196.344 104.119C196.873 104.052 197.385 103.885 197.915 103.784C198.444 103.683 198.948 103.507 199.477 103.356Z" fill="#1D1D39"/>
<path d="M187.49 102.92C187.341 102.919 187.195 102.874 187.07 102.793C186.945 102.711 186.846 102.595 186.785 102.459L184.458 96.9986C184.38 96.8128 184.378 96.6036 184.454 96.4166C184.529 96.2296 184.676 96.08 184.862 96.0006C184.954 95.9593 185.054 95.937 185.155 95.935C185.256 95.9329 185.357 95.9513 185.451 95.9888C185.545 96.0264 185.63 96.0824 185.702 96.1536C185.774 96.2247 185.831 96.3096 185.869 96.4031L188.213 101.855C188.263 101.971 188.283 102.098 188.272 102.224C188.261 102.351 188.218 102.472 188.148 102.578C188.078 102.683 187.983 102.77 187.871 102.83C187.759 102.89 187.634 102.921 187.507 102.92H187.49Z" fill="#1D1D39"/>
<path d="M111.145 114.561C104.333 117.757 99.3852 124.55 98.1504 132.594C104.165 125.263 111.179 127.419 111.179 127.419L111.145 114.561Z" fill="#6C63FF"/>
<path d="M111.842 134.38C110.653 137.082 110.142 140.033 110.355 142.977C110.567 145.92 111.495 148.768 113.06 151.272C112.993 144.059 118.15 141.912 118.15 141.912L111.842 134.38Z" fill="#6C63FF"/>
<path d="M111.447 123.309C104.584 128.425 100.653 137.123 101.065 146.382C106.105 136.829 114.421 137.643 114.421 137.643L111.447 123.309Z" fill="#6C63FF"/>
<path d="M249.138 55.5245C256.152 52.807 264.468 53.9477 271.179 58.569C261.712 57.8645 258.437 64.44 258.437 64.44L249.138 55.5245Z" fill="#6C63FF"/>
<path d="M260.78 69.3631C266.433 68.4489 272.599 69.1618 276.379 72.8354C271.739 72.8327 267.247 74.4664 263.695 77.4483L260.78 69.3631Z" fill="#6C63FF"/>
<path d="M258.891 68.5413C264.023 71.0574 268.609 75.251 269.533 80.4426C265.765 77.7347 261.159 76.4452 256.53 76.8026L258.891 68.5413Z" fill="#6C63FF"/>
<path d="M255.287 61.7811C263.729 60.3469 272.742 63.5089 279.177 70.1682C268.778 67.2243 263.628 73.7915 263.628 73.7915L255.287 61.7811Z" fill="#6C63FF"/>
<path d="M160.097 53.587C159.778 48.8399 162.071 44.7553 167.75 40.5366C166.557 47.3134 171.471 49.0076 171.471 49.0076L160.097 53.587Z" fill="#6C63FF"/>
<path d="M166.298 50.945C167.423 45.4263 173.085 40.0418 181.325 36.5779C175.445 42.9018 180.183 46.8269 180.183 46.8269L166.298 50.945Z" fill="#6C63FF"/>
<path d="M119.436 150.056C119.362 150.053 119.289 150.03 119.226 149.989C119.185 149.961 119.149 149.925 119.121 149.883C119.094 149.841 119.075 149.795 119.065 149.745C119.056 149.696 119.056 149.646 119.067 149.597C119.077 149.548 119.097 149.501 119.126 149.46C141.394 116.23 181.916 103.121 182.319 102.996C182.417 102.966 182.522 102.976 182.613 103.023C182.704 103.07 182.773 103.15 182.806 103.247C182.835 103.344 182.825 103.448 182.778 103.538C182.731 103.627 182.65 103.694 182.554 103.725C182.151 103.851 141.881 116.885 119.756 149.854C119.726 149.914 119.681 149.964 119.625 150C119.568 150.036 119.503 150.055 119.436 150.056Z" fill="#1D1D39"/>
<path d="M125.566 170.99C125.524 170.998 125.481 170.998 125.44 170.99C125.343 170.957 125.263 170.888 125.218 170.797C125.172 170.706 125.164 170.6 125.196 170.503C140.568 125.674 180.804 106.25 181.207 106.065C181.298 106.022 181.401 106.016 181.496 106.049C181.59 106.082 181.668 106.151 181.711 106.241C181.734 106.286 181.748 106.335 181.751 106.386C181.755 106.436 181.748 106.487 181.731 106.534C181.715 106.582 181.689 106.626 181.655 106.663C181.622 106.701 181.581 106.731 181.535 106.753C181.132 106.946 141.215 126.236 125.927 170.755C125.896 170.825 125.845 170.884 125.781 170.926C125.717 170.968 125.642 170.99 125.566 170.99Z" fill="#1D1D39"/>
<path d="M191.849 99.7161C191.782 99.7176 191.716 99.7003 191.658 99.6662C191.6 99.6321 191.553 99.5826 191.522 99.5232C191.495 99.4807 191.477 99.4331 191.469 99.3834C191.461 99.3337 191.464 99.283 191.477 99.2343C191.489 99.1856 191.512 99.14 191.542 99.1002C191.573 99.0605 191.612 99.0275 191.656 99.0032C192.026 98.7852 229.045 77.7587 268.642 83.7471C268.692 83.7532 268.739 83.7692 268.783 83.7943C268.826 83.8193 268.863 83.8529 268.893 83.8928C268.923 83.9328 268.945 83.9784 268.956 84.0269C268.968 84.0753 268.97 84.1256 268.961 84.1748C268.943 84.2741 268.888 84.3628 268.807 84.4234C268.726 84.484 268.625 84.512 268.525 84.5019C229.204 78.547 192.412 99.4477 192.085 99.6658C192.014 99.7071 191.931 99.7248 191.849 99.7161Z" fill="#1D1D39"/>
<path d="M271.298 102.534C271.259 102.543 271.219 102.543 271.18 102.534C224.308 87.4373 195.236 100.857 194.942 101.008C194.85 101.051 194.745 101.056 194.65 101.023C194.555 100.989 194.477 100.919 194.433 100.827C194.39 100.736 194.385 100.631 194.418 100.536C194.452 100.441 194.523 100.363 194.614 100.32C194.9 100.177 224.224 86.5986 271.415 101.804C271.511 101.839 271.589 101.908 271.635 101.999C271.68 102.09 271.689 102.194 271.659 102.291C271.631 102.364 271.582 102.426 271.517 102.47C271.452 102.513 271.376 102.536 271.298 102.534Z" fill="#1D1D39"/>
<path d="M184.587 307.491C191.827 299.684 191.358 287.494 183.54 280.264C175.722 273.034 163.515 273.502 156.275 281.309C149.036 289.117 149.505 301.307 157.323 308.537C165.141 315.767 177.348 315.299 184.587 307.491Z" fill="#6C63FF"/>
<path d="M224.573 314.502C215.014 314.502 211.637 310.887 208.378 307.398C207.299 306.18 206.115 305.057 204.841 304.043C199.952 300.32 192.241 298.617 188.352 300.403C188.171 300.434 187.984 300.403 187.822 300.318C187.659 300.232 187.529 300.095 187.452 299.928C187.374 299.762 187.354 299.574 187.394 299.395C187.434 299.216 187.531 299.054 187.672 298.936C192.124 296.898 200.431 298.65 205.824 302.752C207.172 303.832 208.425 305.024 209.57 306.316C212.729 309.713 215.719 312.917 224.573 312.917C226.733 312.974 228.869 312.446 230.753 311.388C232.638 310.331 234.2 308.784 235.274 306.912C236.162 305.442 236.641 303.763 236.663 302.048C236.685 300.332 236.25 298.641 235.4 297.149C233.393 293.92 229.26 292.276 223.75 292.536C223.627 292.575 223.497 292.586 223.369 292.566C223.242 292.547 223.121 292.499 223.015 292.425C222.909 292.352 222.822 292.255 222.76 292.142C222.697 292.03 222.662 291.905 222.656 291.776C222.65 291.648 222.674 291.519 222.725 291.402C222.777 291.284 222.855 291.179 222.953 291.096C223.051 291.013 223.168 290.954 223.293 290.923C223.418 290.892 223.548 290.89 223.674 290.918C229.798 290.641 234.451 292.545 236.778 296.294C237.778 298.032 238.297 300.004 238.282 302.008C238.268 304.013 237.719 305.977 236.694 307.7C235.476 309.82 233.707 311.572 231.573 312.77C229.439 313.967 227.02 314.566 224.573 314.502Z" fill="#6C63FF"/>
<path d="M178.582 309.118C168.415 309.015 158.616 305.304 150.938 298.65C150.838 298.496 150.792 298.314 150.806 298.132C150.82 297.949 150.894 297.776 151.016 297.639C151.138 297.502 151.301 297.409 151.481 297.373C151.661 297.338 151.848 297.362 152.013 297.443C158.733 303.431 170.728 309.101 184.109 307.088C184.227 307.036 184.356 307.013 184.484 307.018C184.613 307.024 184.739 307.06 184.851 307.122C184.964 307.184 185.061 307.271 185.135 307.377C185.209 307.482 185.257 307.603 185.276 307.73C185.296 307.858 185.286 307.988 185.247 308.11C185.208 308.233 185.141 308.345 185.052 308.438C184.962 308.53 184.853 308.601 184.732 308.645C184.611 308.689 184.481 308.704 184.353 308.69C182.443 308.975 180.514 309.118 178.582 309.118Z" fill="#6C63FF"/>
<path d="M176.465 311.516C166.562 311.516 158.103 307.625 150.719 299.691C150.575 299.535 150.495 299.332 150.495 299.12C150.495 298.909 150.575 298.705 150.719 298.55C150.875 298.404 151.081 298.322 151.295 298.322C151.508 298.322 151.714 298.404 151.87 298.55C160.043 307.34 169.594 310.938 181.06 309.579C181.18 309.529 181.31 309.507 181.439 309.516C181.569 309.524 181.695 309.562 181.807 309.628C181.919 309.693 182.015 309.783 182.086 309.892C182.158 310 182.203 310.123 182.219 310.252C182.234 310.381 182.22 310.512 182.176 310.634C182.132 310.756 182.061 310.867 181.967 310.957C181.874 311.047 181.761 311.114 181.637 311.153C181.513 311.192 181.382 311.201 181.253 311.181C179.665 311.389 178.067 311.501 176.465 311.516Z" fill="#6C63FF"/>
<path d="M161.832 312.489C161.623 312.49 161.421 312.414 161.266 312.274C161.111 312.134 161.013 311.942 160.992 311.734C160.287 302.274 163.554 287.211 172.425 274.89C172.567 274.774 172.744 274.708 172.928 274.702C173.112 274.696 173.293 274.751 173.443 274.858C173.592 274.964 173.703 275.117 173.757 275.293C173.812 275.468 173.807 275.657 173.743 275.829C165.142 287.831 161.958 302.45 162.622 311.617C162.623 311.824 162.547 312.025 162.409 312.18C162.271 312.335 162.081 312.433 161.874 312.456L161.832 312.489Z" fill="#6C63FF"/>
<path d="M153.777 304.983C153.623 304.982 153.471 304.938 153.34 304.857C153.165 304.737 153.041 304.556 152.994 304.349C152.947 304.142 152.981 303.925 153.088 303.742C155.911 299.288 166.394 284.351 182.824 279.109C183.028 279.051 183.246 279.073 183.434 279.17C183.623 279.266 183.768 279.43 183.841 279.629C183.898 279.832 183.876 280.05 183.779 280.238C183.683 280.426 183.519 280.571 183.32 280.643C167.41 285.726 157.204 300.269 154.457 304.605C154.383 304.718 154.282 304.812 154.164 304.878C154.045 304.943 153.912 304.979 153.777 304.983Z" fill="#6C63FF"/>
<path d="M153.777 304.983C153.673 304.984 153.57 304.964 153.475 304.924C153.28 304.839 153.126 304.683 153.042 304.489C152.957 304.294 152.95 304.075 153.021 303.876C155.505 297.777 159.263 292.277 164.042 287.742C168.822 283.207 174.515 279.74 180.741 277.574C180.925 277.561 181.108 277.608 181.262 277.709C181.416 277.81 181.532 277.959 181.593 278.132C181.654 278.306 181.657 278.494 181.6 278.669C181.543 278.844 181.43 278.996 181.279 279.1C175.265 281.188 169.766 284.531 165.149 288.907C160.531 293.283 156.901 298.592 154.499 304.48C154.437 304.622 154.337 304.744 154.21 304.833C154.082 304.922 153.932 304.974 153.777 304.983Z" fill="#6C63FF"/>
<path d="M159.438 311.08C159.234 311.082 159.037 311.01 158.882 310.877C158.728 310.745 158.627 310.56 158.598 310.359C156.565 292.88 162.311 282.883 168.829 274.688C168.967 274.528 169.16 274.424 169.37 274.399C169.58 274.375 169.792 274.43 169.963 274.554C170.127 274.692 170.232 274.886 170.257 275.098C170.282 275.31 170.225 275.523 170.098 275.695C163.798 283.621 158.245 293.308 160.211 310.174C160.228 310.386 160.164 310.597 160.032 310.764C159.899 310.931 159.708 311.041 159.497 311.072L159.438 311.08Z" fill="#6C63FF"/>
<path d="M157.187 309.252C157.012 309.248 156.842 309.189 156.702 309.084C156.562 308.978 156.458 308.832 156.406 308.665C153.886 299.397 155.759 284.904 166.04 274.965C166.196 274.821 166.4 274.742 166.612 274.742C166.823 274.742 167.027 274.821 167.183 274.965C167.329 275.121 167.411 275.326 167.411 275.54C167.411 275.753 167.329 275.959 167.183 276.114C157.817 285.164 155.465 299.112 157.985 308.212C158.035 308.418 158.005 308.636 157.901 308.822C157.796 309.007 157.625 309.146 157.422 309.21L157.187 309.252Z" fill="#6C63FF"/>
<path d="M189.502 297.929C189.334 297.927 189.17 297.875 189.032 297.778C177.02 289.148 162.37 285.969 153.189 286.657C153.006 286.623 152.84 286.53 152.716 286.392C152.592 286.253 152.518 286.078 152.504 285.893C152.491 285.708 152.539 285.524 152.642 285.369C152.744 285.214 152.895 285.098 153.071 285.038C162.547 284.342 177.633 287.596 189.981 296.462C190.105 296.57 190.195 296.712 190.239 296.87C190.283 297.029 190.279 297.197 190.228 297.354C190.177 297.51 190.081 297.648 189.952 297.75C189.823 297.853 189.666 297.915 189.502 297.929Z" fill="#6C63FF"/>
<path d="M189.67 295.69C189.557 295.693 189.445 295.67 189.342 295.623C178.573 290.85 162.277 290.221 151.441 294.147C151.336 294.222 151.215 294.272 151.087 294.293C150.959 294.313 150.828 294.304 150.704 294.266C150.58 294.228 150.467 294.162 150.373 294.072C150.279 293.983 150.208 293.874 150.163 293.752C150.119 293.631 150.103 293.5 150.117 293.372C150.132 293.243 150.176 293.12 150.246 293.011C150.316 292.902 150.41 292.811 150.522 292.745C150.633 292.678 150.758 292.639 150.887 292.629C162.076 288.569 178.884 289.223 189.997 294.147C190.188 294.239 190.336 294.401 190.413 294.598C190.489 294.796 190.488 295.015 190.409 295.212C190.342 295.352 190.238 295.471 190.107 295.555C189.977 295.64 189.825 295.686 189.67 295.69Z" fill="#6C63FF"/>
<path d="M189.635 293.425C189.524 293.424 189.413 293.4 189.311 293.355C189.209 293.311 189.116 293.246 189.039 293.165C181.051 284.493 170.702 281.423 155.439 283.176C155.319 283.226 155.189 283.248 155.06 283.24C154.93 283.231 154.804 283.193 154.692 283.128C154.58 283.062 154.484 282.972 154.413 282.864C154.341 282.755 154.296 282.632 154.28 282.503C154.265 282.374 154.28 282.244 154.323 282.121C154.367 281.999 154.438 281.889 154.532 281.799C154.625 281.709 154.738 281.642 154.862 281.603C154.986 281.564 155.118 281.554 155.246 281.574C170.836 279.763 181.941 283.101 190.198 292.075C190.291 292.195 190.35 292.337 190.368 292.487C190.387 292.637 190.364 292.789 190.303 292.928C190.242 293.066 190.145 293.185 190.021 293.273C189.898 293.361 189.753 293.413 189.602 293.425H189.635Z" fill="#6C63FF"/>
<path d="M189.031 290.138C188.817 290.132 188.612 290.045 188.46 289.894C178.473 279.947 164.386 278.513 158.01 280.669C157.826 280.681 157.642 280.631 157.488 280.529C157.335 280.426 157.219 280.276 157.16 280.101C157.1 279.926 157.1 279.736 157.16 279.561C157.22 279.386 157.335 279.236 157.489 279.134C164.251 276.844 179.136 278.295 189.603 288.745C189.747 288.9 189.827 289.104 189.827 289.316C189.827 289.527 189.747 289.731 189.603 289.886C189.452 290.04 189.247 290.13 189.031 290.138Z" fill="#6C63FF"/>
<path d="M185.302 307.533C185.227 307.545 185.15 307.545 185.075 307.533C165.755 301.821 151.551 288.854 151.416 288.72C151.32 288.565 151.277 288.382 151.294 288.2C151.311 288.018 151.387 287.847 151.51 287.712C151.634 287.577 151.799 287.486 151.979 287.453C152.159 287.42 152.345 287.447 152.508 287.529C152.651 287.663 166.595 300.378 185.537 305.981C185.699 306.058 185.831 306.186 185.916 306.344C186 306.502 186.031 306.683 186.005 306.86C185.978 307.037 185.896 307.201 185.769 307.328C185.643 307.456 185.479 307.539 185.302 307.566V307.533Z" fill="#6C63FF"/>
<path d="M185.688 307.038C185.578 307.036 185.47 307.014 185.369 306.971C173.679 301.759 162.479 295.513 151.903 288.309C151.781 288.266 151.67 288.196 151.579 288.102C151.488 288.009 151.42 287.897 151.381 287.773C151.341 287.649 151.331 287.518 151.351 287.39C151.37 287.261 151.42 287.139 151.495 287.033C151.57 286.927 151.669 286.84 151.783 286.779C151.898 286.717 152.025 286.683 152.155 286.679C152.285 286.675 152.414 286.701 152.532 286.756C152.65 286.81 152.754 286.891 152.836 286.992C163.318 294.133 174.42 300.322 186.007 305.486C186.157 305.575 186.275 305.709 186.346 305.868C186.416 306.027 186.435 306.205 186.4 306.375C186.365 306.546 186.277 306.701 186.15 306.82C186.022 306.938 185.861 307.015 185.688 307.038Z" fill="#6C63FF"/>
<path d="M186.403 306.04C186.271 306.042 186.141 306.01 186.025 305.947C169.502 297.074 152.181 288.46 152.013 288.376C151.876 288.254 151.783 288.091 151.747 287.911C151.712 287.731 151.737 287.544 151.818 287.38C151.899 287.215 152.031 287.081 152.196 286.999C152.36 286.917 152.547 286.891 152.727 286.925C152.904 287.009 170.25 295.64 186.789 304.538C186.928 304.636 187.034 304.774 187.093 304.933C187.152 305.092 187.161 305.266 187.119 305.43C187.077 305.594 186.986 305.742 186.858 305.854C186.731 305.966 186.572 306.037 186.403 306.056V306.04Z" fill="#6C63FF"/>
<path d="M186.982 305.151C186.803 305.154 186.627 305.095 186.487 304.983C171.484 293.241 152.626 287.789 152.433 287.739C152.274 287.644 152.15 287.5 152.081 287.328C152.012 287.156 152.003 286.966 152.054 286.788C152.104 286.609 152.213 286.453 152.362 286.343C152.511 286.233 152.693 286.175 152.878 286.179C153.072 286.238 172.198 291.756 187.486 303.708C187.648 303.845 187.751 304.038 187.776 304.248C187.801 304.458 187.745 304.669 187.621 304.84C187.546 304.938 187.449 305.017 187.338 305.071C187.228 305.125 187.106 305.152 186.982 305.151Z" fill="#6C63FF"/>
<path d="M188.527 301.896C188.342 301.896 188.161 301.834 188.015 301.72C174.272 290.448 152.735 287.789 152.55 287.764C152.378 287.696 152.233 287.573 152.138 287.413C152.043 287.254 152.003 287.068 152.025 286.885C152.048 286.701 152.13 286.529 152.26 286.397C152.39 286.265 152.56 286.179 152.743 286.154C152.962 286.154 174.928 288.896 189.048 300.471C189.205 300.611 189.304 300.805 189.324 301.015C189.344 301.225 189.285 301.435 189.157 301.603C189.079 301.694 188.983 301.767 188.874 301.818C188.765 301.868 188.647 301.895 188.527 301.896Z" fill="#6C63FF"/>
<path d="M163.202 313.143C163.04 313.126 162.887 313.062 162.761 312.96C162.635 312.858 162.541 312.721 162.492 312.566C162.442 312.412 162.438 312.246 162.481 312.09C162.523 311.933 162.61 311.792 162.731 311.684C178.045 300.621 186.789 285.273 186.873 285.122C186.905 284.997 186.965 284.881 187.049 284.783C187.133 284.685 187.239 284.608 187.357 284.558C187.476 284.507 187.605 284.484 187.734 284.492C187.863 284.499 187.988 284.535 188.101 284.599C188.213 284.662 188.309 284.751 188.382 284.857C188.454 284.964 188.501 285.086 188.519 285.214C188.537 285.341 188.525 285.471 188.484 285.594C188.443 285.716 188.375 285.827 188.284 285.919C188.2 286.07 179.279 301.729 163.681 312.992C163.54 313.09 163.373 313.143 163.202 313.143Z" fill="#6C63FF"/>
<g opacity="0.3">
<path d="M178.582 309.118C168.415 309.015 158.616 305.304 150.938 298.65C150.838 298.496 150.792 298.314 150.806 298.132C150.82 297.949 150.894 297.776 151.016 297.639C151.138 297.502 151.301 297.409 151.481 297.373C151.661 297.338 151.848 297.362 152.013 297.443C158.733 303.431 170.728 309.101 184.109 307.088C184.227 307.036 184.356 307.013 184.484 307.018C184.613 307.024 184.739 307.06 184.851 307.122C184.964 307.184 185.061 307.271 185.135 307.377C185.209 307.482 185.257 307.603 185.276 307.73C185.296 307.858 185.286 307.988 185.247 308.11C185.208 308.233 185.141 308.345 185.052 308.438C184.962 308.53 184.853 308.601 184.732 308.645C184.611 308.689 184.481 308.704 184.353 308.69C182.443 308.975 180.514 309.118 178.582 309.118Z" fill="black"/>
<path d="M176.465 311.516C166.562 311.516 158.103 307.625 150.719 299.69C150.575 299.535 150.495 299.332 150.495 299.12C150.495 298.909 150.575 298.705 150.719 298.55C150.875 298.404 151.081 298.322 151.295 298.322C151.508 298.322 151.714 298.404 151.87 298.55C160.043 307.34 169.594 310.938 181.06 309.579C181.18 309.529 181.31 309.507 181.439 309.516C181.569 309.524 181.695 309.562 181.807 309.628C181.919 309.693 182.015 309.783 182.086 309.892C182.158 310 182.203 310.123 182.219 310.252C182.234 310.381 182.22 310.512 182.176 310.634C182.132 310.756 182.061 310.866 181.967 310.956C181.874 311.046 181.761 311.114 181.637 311.152C181.513 311.191 181.382 311.201 181.253 311.181C179.665 311.389 178.067 311.501 176.465 311.516Z" fill="black"/>
<path d="M161.833 312.489C161.624 312.49 161.422 312.414 161.267 312.274C161.112 312.134 161.014 311.942 160.993 311.734C160.288 302.274 163.555 287.211 172.426 274.89C172.568 274.774 172.745 274.708 172.929 274.702C173.113 274.696 173.294 274.751 173.444 274.858C173.593 274.964 173.704 275.117 173.758 275.293C173.813 275.468 173.808 275.657 173.744 275.829C165.143 287.831 161.959 302.45 162.623 311.617C162.624 311.824 162.548 312.025 162.41 312.18C162.272 312.335 162.082 312.433 161.875 312.456L161.833 312.489Z" fill="black"/>
<path d="M153.778 304.983C153.623 304.982 153.472 304.938 153.341 304.857C153.166 304.737 153.042 304.556 152.995 304.349C152.948 304.142 152.982 303.925 153.089 303.742C155.912 299.288 166.395 284.351 182.825 279.109C183.029 279.051 183.247 279.073 183.435 279.17C183.624 279.266 183.769 279.43 183.841 279.629C183.899 279.832 183.877 280.05 183.78 280.238C183.684 280.426 183.52 280.571 183.321 280.643C167.411 285.726 157.205 300.269 154.458 304.605C154.384 304.718 154.283 304.812 154.165 304.878C154.046 304.943 153.913 304.979 153.778 304.983Z" fill="black"/>
<path d="M153.778 304.983C153.674 304.984 153.571 304.964 153.476 304.924C153.281 304.839 153.127 304.683 153.043 304.489C152.958 304.294 152.951 304.075 153.022 303.876C155.506 297.777 159.264 292.277 164.043 287.742C168.823 283.207 174.516 279.74 180.742 277.574C180.926 277.561 181.109 277.608 181.263 277.709C181.417 277.81 181.533 277.959 181.594 278.132C181.655 278.306 181.658 278.494 181.601 278.669C181.544 278.844 181.431 278.996 181.28 279.1C175.266 281.188 169.767 284.531 165.15 288.907C160.532 293.283 156.902 298.592 154.5 304.48C154.438 304.622 154.338 304.744 154.211 304.833C154.083 304.922 153.933 304.974 153.778 304.983Z" fill="black"/>
<path d="M159.439 311.08C159.235 311.082 159.038 311.01 158.883 310.877C158.729 310.745 158.628 310.56 158.599 310.359C156.566 292.88 162.312 282.883 168.83 274.688C168.968 274.528 169.161 274.424 169.371 274.399C169.581 274.375 169.793 274.43 169.964 274.554C170.128 274.692 170.233 274.886 170.258 275.098C170.283 275.31 170.226 275.523 170.099 275.695C163.799 283.621 158.246 293.308 160.212 310.174C160.229 310.386 160.165 310.597 160.032 310.764C159.9 310.931 159.709 311.041 159.498 311.072L159.439 311.08Z" fill="black"/>
<path d="M157.188 309.252C157.013 309.248 156.843 309.189 156.703 309.083C156.563 308.978 156.459 308.832 156.407 308.665C153.887 299.397 155.76 284.904 166.041 274.965C166.197 274.821 166.401 274.741 166.613 274.741C166.824 274.741 167.028 274.821 167.184 274.965C167.33 275.121 167.412 275.326 167.412 275.54C167.412 275.753 167.33 275.959 167.184 276.114C157.818 285.164 155.466 299.112 157.986 308.212C158.036 308.418 158.006 308.636 157.902 308.822C157.797 309.007 157.626 309.146 157.423 309.21L157.188 309.252Z" fill="black"/>
<path d="M189.502 297.929C189.334 297.927 189.17 297.874 189.032 297.778C177.02 289.148 162.37 285.969 153.189 286.657C153.006 286.623 152.84 286.53 152.716 286.392C152.592 286.253 152.518 286.078 152.504 285.893C152.491 285.708 152.539 285.524 152.642 285.369C152.744 285.214 152.895 285.098 153.071 285.038C162.547 284.342 177.633 287.596 189.981 296.461C190.105 296.57 190.195 296.712 190.239 296.87C190.283 297.029 190.279 297.197 190.228 297.353C190.177 297.51 190.081 297.648 189.952 297.75C189.823 297.853 189.666 297.915 189.502 297.929Z" fill="black"/>
<path d="M189.671 295.69C189.558 295.693 189.446 295.67 189.343 295.623C178.574 290.85 162.278 290.221 151.442 294.147C151.337 294.222 151.216 294.272 151.088 294.293C150.96 294.313 150.829 294.304 150.705 294.266C150.581 294.228 150.468 294.162 150.374 294.072C150.28 293.983 150.208 293.874 150.164 293.752C150.12 293.631 150.104 293.5 150.118 293.372C150.133 293.243 150.177 293.12 150.247 293.011C150.317 292.902 150.411 292.811 150.522 292.745C150.634 292.678 150.759 292.639 150.888 292.629C162.077 288.569 178.885 289.223 189.998 294.147C190.189 294.239 190.337 294.401 190.414 294.598C190.49 294.796 190.489 295.015 190.41 295.212C190.343 295.352 190.239 295.471 190.108 295.555C189.978 295.64 189.826 295.686 189.671 295.69Z" fill="black"/>
<path d="M189.637 293.425C189.526 293.424 189.415 293.4 189.313 293.355C189.211 293.311 189.118 293.246 189.041 293.165C181.053 284.493 170.704 281.423 155.441 283.176C155.321 283.226 155.191 283.248 155.062 283.24C154.932 283.231 154.806 283.193 154.694 283.128C154.582 283.062 154.486 282.972 154.415 282.864C154.343 282.755 154.298 282.632 154.282 282.503C154.267 282.374 154.281 282.243 154.325 282.121C154.369 281.999 154.44 281.889 154.534 281.799C154.627 281.709 154.74 281.642 154.864 281.603C154.988 281.564 155.119 281.554 155.248 281.574C170.838 279.763 181.943 283.101 190.2 292.075C190.293 292.194 190.352 292.337 190.37 292.487C190.389 292.637 190.366 292.789 190.305 292.928C190.244 293.066 190.147 293.185 190.023 293.273C189.9 293.361 189.755 293.413 189.604 293.425H189.637Z" fill="black"/>
<path d="M189.032 290.138C188.818 290.132 188.613 290.045 188.461 289.894C178.474 279.947 164.387 278.513 158.011 280.669C157.827 280.681 157.643 280.631 157.489 280.529C157.336 280.426 157.22 280.276 157.161 280.101C157.101 279.926 157.101 279.736 157.161 279.561C157.221 279.386 157.336 279.236 157.49 279.134C164.252 276.844 179.137 278.295 189.604 288.745C189.748 288.9 189.828 289.104 189.828 289.316C189.828 289.527 189.748 289.731 189.604 289.886C189.453 290.04 189.248 290.13 189.032 290.138Z" fill="black"/>
<path d="M185.303 307.532C185.228 307.545 185.151 307.545 185.076 307.532C165.756 301.821 151.552 288.854 151.417 288.72C151.321 288.565 151.278 288.382 151.295 288.2C151.312 288.018 151.388 287.847 151.511 287.712C151.635 287.577 151.799 287.486 151.98 287.453C152.16 287.42 152.346 287.447 152.509 287.529C152.652 287.663 166.596 300.378 185.538 305.981C185.7 306.058 185.832 306.185 185.917 306.344C186.001 306.502 186.032 306.683 186.006 306.86C185.979 307.037 185.897 307.201 185.77 307.328C185.644 307.455 185.48 307.539 185.303 307.566V307.532Z" fill="black"/>
<path d="M185.689 307.038C185.579 307.036 185.471 307.014 185.37 306.971C173.68 301.759 162.48 295.513 151.904 288.309C151.782 288.266 151.671 288.196 151.58 288.102C151.489 288.009 151.421 287.897 151.382 287.773C151.342 287.649 151.332 287.518 151.352 287.39C151.371 287.261 151.421 287.139 151.496 287.033C151.571 286.927 151.67 286.84 151.784 286.779C151.899 286.717 152.026 286.683 152.156 286.679C152.286 286.675 152.415 286.701 152.533 286.756C152.651 286.81 152.755 286.891 152.837 286.992C163.319 294.133 174.421 300.322 186.008 305.486C186.158 305.575 186.276 305.709 186.347 305.868C186.417 306.027 186.436 306.205 186.401 306.375C186.366 306.546 186.278 306.701 186.151 306.82C186.023 306.938 185.862 307.015 185.689 307.038Z" fill="black"/>
<path d="M186.403 306.04C186.271 306.042 186.141 306.01 186.025 305.947C169.502 297.074 152.181 288.46 152.013 288.376C151.876 288.254 151.783 288.091 151.747 287.911C151.712 287.731 151.737 287.544 151.818 287.38C151.899 287.215 152.031 287.081 152.196 286.999C152.36 286.917 152.547 286.891 152.727 286.925C152.904 287.009 170.25 295.64 186.789 304.538C186.928 304.636 187.034 304.774 187.093 304.933C187.152 305.092 187.161 305.266 187.119 305.43C187.077 305.594 186.986 305.742 186.858 305.854C186.731 305.966 186.572 306.037 186.403 306.056V306.04Z" fill="black"/>
<path d="M186.982 305.151C186.803 305.154 186.627 305.095 186.487 304.983C171.484 293.241 152.626 287.789 152.433 287.739C152.274 287.644 152.15 287.5 152.081 287.328C152.012 287.156 152.003 286.966 152.054 286.788C152.104 286.609 152.213 286.453 152.362 286.343C152.511 286.233 152.693 286.175 152.878 286.179C153.072 286.238 172.198 291.756 187.486 303.708C187.648 303.845 187.751 304.038 187.776 304.248C187.801 304.458 187.745 304.669 187.621 304.84C187.546 304.938 187.449 305.017 187.338 305.071C187.228 305.125 187.106 305.152 186.982 305.151Z" fill="black"/>
<path d="M188.528 301.896C188.343 301.896 188.162 301.834 188.016 301.72C174.273 290.448 152.736 287.789 152.551 287.764C152.379 287.696 152.234 287.573 152.139 287.413C152.044 287.254 152.004 287.068 152.026 286.885C152.049 286.701 152.131 286.529 152.261 286.397C152.391 286.265 152.561 286.179 152.744 286.154C152.963 286.154 174.929 288.896 189.049 300.471C189.206 300.611 189.305 300.805 189.325 301.015C189.345 301.225 189.286 301.435 189.158 301.603C189.08 301.694 188.984 301.767 188.875 301.818C188.766 301.868 188.648 301.895 188.528 301.896Z" fill="black"/>
<path d="M163.202 313.143C163.04 313.126 162.887 313.062 162.761 312.96C162.635 312.858 162.541 312.721 162.492 312.566C162.442 312.412 162.438 312.246 162.481 312.09C162.523 311.933 162.61 311.792 162.731 311.684C178.045 300.621 186.789 285.273 186.873 285.122C186.905 284.997 186.965 284.881 187.049 284.783C187.133 284.685 187.239 284.608 187.357 284.558C187.476 284.507 187.605 284.484 187.734 284.492C187.863 284.499 187.988 284.535 188.101 284.599C188.213 284.662 188.309 284.751 188.382 284.857C188.454 284.964 188.501 285.086 188.519 285.214C188.537 285.341 188.525 285.471 188.484 285.594C188.443 285.716 188.375 285.827 188.284 285.919C188.2 286.07 179.279 301.729 163.681 312.992C163.54 313.09 163.373 313.143 163.202 313.143Z" fill="black"/>
</g>
</svg>
