<svg width="421" height="323" viewBox="0 0 421 323" fill="none" xmlns="http://www.w3.org/2000/svg">
<path d="M420.5 284.157H0.5V284.367H420.5V284.157Z" fill="#EBEBEB"/>
<path d="M378.416 292.142H302.06V292.352H378.416V292.142Z" fill="#EBEBEB"/>
<path d="M278.725 289.869H257.817V290.079H278.725V289.869Z" fill="#EBEBEB"/>
<path d="M326.512 299.934H294.097V300.143H326.512V299.934Z" fill="#EBEBEB"/>
<path d="M63.583 298.524H44.5654V298.734H63.583V298.524Z" fill="#EBEBEB"/>
<path d="M93.6472 298.524H71.0596V298.734H93.6472V298.524Z" fill="#EBEBEB"/>
<path d="M189.627 294.985H150.281V295.195H189.627V294.985Z" fill="#EBEBEB"/>
<path d="M199.58 246.751H37.3847C36.1141 246.749 34.8962 246.243 33.9985 245.345C33.1009 244.447 32.5967 243.23 32.5967 241.962V14.3101C32.6077 13.0487 33.1168 11.8425 34.0133 10.9537C34.9098 10.0649 36.1213 9.56511 37.3847 9.56294H199.58C200.852 9.56294 202.072 10.0675 202.972 10.9656C203.871 11.8637 204.377 13.0819 204.377 14.352V241.962C204.377 243.232 203.871 244.45 202.972 245.348C202.072 246.246 200.852 246.751 199.58 246.751ZM37.3847 9.73069C36.1697 9.73291 35.0053 10.2164 34.147 11.0749C33.2887 11.9335 32.8067 13.097 32.8067 14.3101V241.962C32.8067 243.175 33.2887 244.338 34.147 245.197C35.0053 246.055 36.1697 246.539 37.3847 246.541H199.58C200.796 246.539 201.961 246.056 202.821 245.197C203.681 244.339 204.164 243.176 204.167 241.962V14.3101C204.164 13.0962 203.681 11.9327 202.821 11.0744C201.961 10.2161 200.796 9.7329 199.58 9.73069H37.3847Z" fill="#EBEBEB"/>
<path d="M381.281 246.751H219.077C217.805 246.749 216.587 246.243 215.688 245.346C214.789 244.448 214.282 243.231 214.28 241.962V14.3101C214.294 13.0479 214.804 11.8418 215.702 10.9532C216.6 10.0646 217.812 9.56508 219.077 9.56294H381.281C382.543 9.56731 383.752 10.0681 384.647 10.9567C385.541 11.8453 386.049 13.0501 386.06 14.3101V241.962C386.06 243.229 385.557 244.445 384.661 245.342C383.766 246.24 382.55 246.746 381.281 246.751ZM219.077 9.73069C217.861 9.7329 216.696 10.2161 215.836 11.0744C214.976 11.9327 214.492 13.0962 214.49 14.3101V241.962C214.492 243.176 214.976 244.339 215.836 245.197C216.696 246.056 217.861 246.539 219.077 246.541H381.281C382.496 246.539 383.662 246.056 384.521 245.197C385.381 244.339 385.865 243.176 385.867 241.962V14.3101C385.865 13.0962 385.381 11.9327 384.521 11.0744C383.662 10.2161 382.496 9.7329 381.281 9.73069H219.077Z" fill="#EBEBEB"/>
<path d="M361.003 183.269C359.758 183.273 358.519 183.434 357.315 183.747C356.124 182.128 354.614 180.769 352.879 179.753C351.144 178.737 349.219 178.085 347.223 177.837C345.227 177.589 343.201 177.75 341.269 178.31C339.337 178.871 337.54 179.819 335.988 181.096C333.44 176.799 329.595 173.417 325.003 171.437C320.411 169.457 315.309 168.98 310.429 170.075C305.549 171.169 301.142 173.779 297.839 177.529C294.537 181.28 292.509 185.979 292.047 190.951C289.402 190.364 286.654 190.425 284.037 191.128C281.42 191.83 279.013 193.155 277.019 194.988C275.026 196.821 273.507 199.109 272.591 201.655C271.675 204.201 271.389 206.931 271.758 209.612C272.128 212.292 273.141 214.843 274.711 217.048C276.282 219.253 278.364 221.046 280.778 222.274C283.193 223.501 285.869 224.128 288.579 224.099C291.289 224.07 293.951 223.388 296.34 222.109C297.408 225.964 299.611 229.409 302.664 231.999C305.716 234.589 309.477 236.204 313.46 236.636C317.442 237.067 321.462 236.294 325 234.417C328.537 232.54 331.429 229.646 333.3 226.11C336.505 228.842 340.42 230.612 344.591 231.215C348.762 231.818 353.019 231.229 356.869 229.517C360.719 227.805 364.004 225.04 366.346 221.541C368.687 218.043 369.989 213.953 370.1 209.747C372.547 207.861 374.342 205.258 375.232 202.303C376.122 199.347 376.063 196.188 375.064 193.267C374.064 190.347 372.174 187.812 369.658 186.019C367.142 184.226 364.127 183.264 361.036 183.269H361.003Z" fill="#F5F5F5"/>
<path d="M61.5428 94.5413C59.6569 93.7202 57.5216 93.6804 55.6063 94.4306C53.6909 95.1807 52.1523 96.6595 51.3284 98.5419C50.3865 98.0703 49.3582 97.7952 48.3063 97.7333C47.2544 97.6713 46.2008 97.8239 45.2099 98.1817C44.219 98.5396 43.3114 99.0951 42.5425 99.8145C41.7735 100.534 41.1594 101.402 40.7374 102.366C40.3154 103.33 40.0945 104.37 40.088 105.422C40.0816 106.474 40.2898 107.517 40.6999 108.486C41.11 109.455 41.7135 110.331 42.4736 111.059C43.2336 111.788 44.1344 112.355 45.1208 112.725L59.342 118.923L65.5496 104.723C66.369 102.842 66.4073 100.714 65.656 98.8045C64.9048 96.8955 63.4254 95.3622 61.5428 94.5413Z" fill="#F5F5F5"/>
<path d="M127.852 26.8907C127.536 26.2884 127.103 25.7543 126.579 25.3191C126.056 24.8839 125.451 24.556 124.801 24.3542C124.15 24.1525 123.466 24.0808 122.787 24.1433C122.109 24.2058 121.449 24.4012 120.847 24.7185C120.183 23.5439 119.086 22.6739 117.79 22.2935C116.494 21.913 115.101 22.0519 113.906 22.6807C112.711 23.3096 111.808 24.3788 111.39 25.6613C110.972 26.9438 111.071 28.3386 111.666 29.5494L116.504 38.7166L125.66 33.8856C126.265 33.5708 126.801 33.14 127.239 32.6178C127.676 32.0956 128.007 31.4923 128.21 30.8425C128.414 30.1927 128.487 29.5091 128.426 28.831C128.364 28.1529 128.169 27.4935 127.852 26.8907Z" fill="#E6E6E6"/>
<path d="M339.02 6.0739C338.702 5.47229 338.269 4.93905 337.745 4.50466C337.221 4.07026 336.617 3.74324 335.966 3.54228C335.316 3.34132 334.632 3.27036 333.954 3.33345C333.276 3.39655 332.617 3.59247 332.014 3.91002C331.698 3.30644 331.265 2.77104 330.741 2.33438C330.218 1.89772 329.613 1.56835 328.961 1.36508C328.31 1.16181 327.625 1.08862 326.945 1.14968C326.266 1.21075 325.605 1.40488 325 1.72098C324.396 2.03709 323.86 2.46898 323.422 2.992C322.985 3.51502 322.655 4.11893 322.451 4.76924C322.248 5.41955 322.175 6.10353 322.236 6.78213C322.297 7.46073 322.491 8.12065 322.808 8.72423L327.646 17.883L336.819 13.0604C338.036 12.4228 338.951 11.3299 339.364 10.0206C339.776 8.71142 339.652 7.2924 339.02 6.0739Z" fill="#F5F5F5"/>
<path d="M372.62 157.654C372.461 156.651 371.911 155.752 371.089 155.153C370.267 154.554 369.241 154.304 368.236 154.459C368.037 153.496 367.476 152.646 366.666 152.086C365.857 151.526 364.863 151.298 363.891 151.451C362.918 151.603 362.042 152.123 361.443 152.903C360.844 153.684 360.569 154.664 360.676 155.641L361.86 163.19L369.42 162.007C370.421 161.85 371.319 161.304 371.918 160.489C372.518 159.674 372.77 158.655 372.62 157.654Z" fill="#EBEBEB"/>
<path d="M294.946 92.8135C294.553 92.6901 294.139 92.6454 293.728 92.6819C293.318 92.7184 292.918 92.8355 292.553 93.0264C292.188 93.2172 291.864 93.4782 291.6 93.7943C291.336 94.1104 291.137 94.4754 291.015 94.8684C290.621 94.7455 290.207 94.7014 289.796 94.7384C289.385 94.7754 288.985 94.8929 288.62 95.0841C288.255 95.2753 287.93 95.5365 287.666 95.8527C287.402 96.169 287.202 96.5342 287.079 96.9274C286.956 97.3206 286.912 97.7341 286.949 98.1444C286.986 98.5547 287.104 98.9536 287.295 99.3185C287.487 99.6834 287.749 100.007 288.065 100.271C288.382 100.535 288.748 100.734 289.142 100.857L295.139 102.727L297.012 96.7387C297.259 95.9446 297.18 95.085 296.793 94.349C296.405 93.613 295.741 93.0607 294.946 92.8135Z" fill="#F5F5F5"/>
<path d="M62.1471 16.2726C61.3506 16.0258 60.4886 16.1044 59.7501 16.4911C59.0116 16.8779 58.4569 17.5413 58.2075 18.3358C57.8142 18.2136 57.4007 18.1699 56.9905 18.2072C56.5803 18.2445 56.1815 18.3621 55.8169 18.5533C55.4522 18.7445 55.1289 19.0055 54.8652 19.3215C54.6016 19.6375 54.4029 20.0022 54.2805 20.3949C54.158 20.7875 54.1142 21.2004 54.1516 21.61C54.189 22.0195 54.3068 22.4177 54.4983 22.7818C54.6898 23.1459 54.9512 23.4688 55.2677 23.732C55.5841 23.9952 55.9494 24.1936 56.3427 24.3159L62.3319 26.1862L64.2051 20.1978C64.3287 19.8051 64.3735 19.392 64.3369 18.9821C64.3003 18.5721 64.1831 18.1734 63.9919 17.8088C63.8007 17.4441 63.5393 17.1208 63.2228 16.8572C62.9062 16.5935 62.5407 16.3949 62.1471 16.2726Z" fill="#F5F5F5"/>
<path d="M155.825 156.27C155.819 151.275 153.954 146.461 150.592 142.762C147.229 139.064 142.609 136.746 137.63 136.259C135.145 130.68 131.229 125.854 126.278 122.268C121.328 118.683 115.518 116.465 109.434 115.838C103.351 115.211 97.2091 116.197 91.6294 118.697C86.0497 121.197 81.2292 125.123 77.6544 130.077C74.6911 127.921 71.1312 126.734 67.4645 126.68C63.7978 126.626 60.2045 127.708 57.1791 129.778C54.1536 131.847 51.8446 134.801 50.5698 138.234C49.2951 141.667 49.1171 145.41 50.0604 148.949C47.2577 151.305 44.9686 154.21 43.3346 157.485C41.7005 160.759 40.7562 164.334 40.56 167.987C40.3637 171.64 40.9197 175.295 42.1936 178.725C43.4675 182.155 45.4322 185.288 47.9664 187.931C50.5006 190.573 53.5505 192.668 56.9277 194.088C60.3048 195.507 63.9376 196.22 67.6015 196.182C71.2654 196.145 74.8826 195.357 78.2299 193.869C81.5771 192.381 84.5832 190.223 87.0624 187.529C90.3616 191.81 94.816 195.062 99.9021 196.902C104.988 198.742 110.495 199.094 115.774 197.918C121.054 196.741 125.888 194.084 129.707 190.259C133.527 186.434 136.174 181.599 137.336 176.324C142.375 175.905 147.073 173.612 150.497 169.897C153.922 166.183 155.823 161.319 155.825 156.27Z" fill="#EBEBEB"/>
<path d="M291.812 61.9154C291.814 58.5298 293.078 55.2663 295.357 52.7596C297.637 50.2529 300.768 48.6824 304.143 48.3534C305.818 44.5636 308.467 41.2837 311.821 38.8463C315.176 36.4089 319.116 34.9007 323.243 34.4749C327.37 34.0491 331.536 34.7207 335.319 36.4216C339.101 38.1225 342.366 40.7922 344.782 44.1598C346.791 42.7088 349.201 41.9132 351.68 41.8822C354.16 41.8511 356.589 42.586 358.634 43.9862C360.679 45.3865 362.241 47.3836 363.105 49.7043C363.97 52.025 364.095 54.5558 363.464 56.9502C365.37 58.5447 366.929 60.5132 368.042 62.7338C369.156 64.9544 369.8 67.3797 369.937 69.8593C370.073 72.339 369.697 74.8201 368.833 77.1489C367.97 79.4777 366.636 81.6045 364.915 83.3975C363.194 85.1905 361.123 86.6115 358.83 87.5723C356.536 88.5332 354.07 89.0134 351.583 88.9833C349.096 88.9532 346.641 88.4133 344.372 87.3971C342.102 86.381 340.066 84.9103 338.39 83.0761C336.158 85.9791 333.143 88.1858 329.699 89.4369C326.254 90.6879 322.524 90.9314 318.946 90.1387C315.368 89.346 312.091 87.55 309.5 84.9617C306.909 82.3735 305.112 79.1006 304.319 75.5277C300.903 75.2412 297.721 73.6821 295.403 71.1601C293.086 68.6381 291.804 65.3379 291.812 61.9154Z" fill="#F0F0F0"/>
<path d="M210.5 322.034C300.45 322.034 373.368 317.783 373.368 312.539C373.368 307.296 300.45 303.045 210.5 303.045C120.551 303.045 47.6328 307.296 47.6328 312.539C47.6328 317.783 120.551 322.034 210.5 322.034Z" fill="#F5F5F5"/>
<path d="M114.833 291.161H69.1959C68.1271 291.15 67.1059 290.718 66.3541 289.959C65.6023 289.201 65.1806 288.177 65.1807 287.11V268.415C65.1827 267.46 65.5217 266.536 66.1383 265.806L117.714 204.58C118.096 204.128 118.572 203.765 119.109 203.516C119.645 203.267 120.23 203.138 120.822 203.138H140.587C141.663 203.138 142.695 203.565 143.456 204.324C144.217 205.084 144.645 206.114 144.645 207.189V264.221C144.645 265.296 145.072 266.326 145.833 267.086C146.594 267.845 147.626 268.272 148.702 268.272H153.918C154.994 268.272 156.026 268.699 156.787 269.459C157.548 270.218 157.975 271.249 157.975 272.323V287.076C157.975 288.15 157.548 289.181 156.787 289.941C156.026 290.7 154.994 291.127 153.918 291.127H148.702C147.626 291.127 146.594 291.554 145.833 292.314C145.072 293.073 144.645 294.104 144.645 295.178V306.92C144.645 307.994 144.217 309.025 143.456 309.784C142.695 310.544 141.663 310.971 140.587 310.971H122.947C121.871 310.971 120.839 310.544 120.079 309.784C119.318 309.025 118.89 307.994 118.89 306.92V295.178C118.881 294.109 118.45 293.088 117.69 292.335C116.93 291.583 115.903 291.161 114.833 291.161ZM118.89 265.471V242.658C118.9 242.069 118.725 241.491 118.391 241.006C118.057 240.52 117.579 240.151 117.025 239.949C116.471 239.747 115.867 239.722 115.298 239.878C114.729 240.035 114.223 240.364 113.85 240.821L94.4379 263.634C94.0868 264.046 93.8612 264.55 93.7876 265.086C93.714 265.622 93.7955 266.167 94.0225 266.659C94.2494 267.15 94.6124 267.566 95.0685 267.858C95.5247 268.149 96.0549 268.305 96.5967 268.306H116.017C116.393 268.31 116.766 268.24 117.114 268.1C117.463 267.959 117.78 267.751 118.047 267.487C118.314 267.224 118.526 266.91 118.671 266.563C118.816 266.217 118.89 265.846 118.89 265.471Z" fill="#1D1D39"/>
<path d="M167.131 257.537C167.131 237.408 170.771 223.303 178.051 215.224C185.331 207.144 196.399 203.118 211.256 203.146C218.402 203.146 224.282 204.027 228.896 205.788C233.066 207.29 236.885 209.628 240.118 212.657C242.844 215.252 245.154 218.25 246.964 221.547C248.759 224.999 250.111 228.662 250.988 232.451C252.993 240.542 253.991 248.849 253.962 257.184C253.962 276.424 250.7 290.504 244.176 299.422C237.652 308.34 226.426 312.813 210.5 312.841C201.54 312.841 194.319 311.418 188.836 308.572C183.25 305.68 178.547 301.341 175.22 296.008C172.655 292.094 170.662 286.755 169.239 279.989C167.767 272.597 167.06 265.073 167.131 257.537ZM196.396 257.604C196.396 271.107 197.592 280.333 199.983 285.281C202.374 290.23 205.838 292.704 210.374 292.704C211.816 292.718 213.247 292.446 214.583 291.905C215.92 291.364 217.136 290.563 218.161 289.55C220.362 287.453 221.98 284.138 223.016 279.603C224.052 275.069 224.57 268.007 224.57 258.417C224.57 244.344 223.374 234.883 220.983 230.035C218.592 225.187 215.008 222.764 210.231 222.764C205.348 222.764 201.823 225.235 199.656 230.178C197.488 235.121 196.402 244.263 196.396 257.604Z" fill="#1D1D39"/>
<path d="M312.72 291.161H267.091C266.015 291.161 264.983 290.734 264.223 289.974C263.462 289.214 263.034 288.184 263.034 287.11V268.415C263.034 267.461 263.37 266.537 263.983 265.806L315.568 204.58C315.948 204.129 316.422 203.765 316.958 203.516C317.493 203.267 318.077 203.138 318.667 203.138H338.441C339.517 203.138 340.549 203.565 341.31 204.324C342.071 205.084 342.498 206.114 342.498 207.189V264.221C342.494 264.758 342.596 265.291 342.8 265.788C343.003 266.285 343.304 266.736 343.683 267.116C344.063 267.496 344.515 267.797 345.012 268.001C345.51 268.206 346.043 268.309 346.581 268.306H351.789C352.865 268.306 353.897 268.732 354.657 269.492C355.418 270.252 355.846 271.282 355.846 272.357V287.11C355.846 288.184 355.418 289.214 354.657 289.974C353.897 290.734 352.865 291.161 351.789 291.161H346.581C345.505 291.161 344.473 291.587 343.712 292.347C342.951 293.107 342.523 294.137 342.523 295.212V306.954C342.523 308.028 342.096 309.058 341.335 309.818C340.574 310.578 339.542 311.005 338.466 311.005H320.826C319.75 311.005 318.718 310.578 317.957 309.818C317.196 309.058 316.769 308.028 316.769 306.954V295.212C316.769 294.139 316.343 293.11 315.584 292.35C314.825 291.591 313.795 291.163 312.72 291.161ZM316.777 265.471V242.658C316.776 242.079 316.598 241.514 316.266 241.039C315.933 240.564 315.463 240.202 314.919 240.002C314.374 239.802 313.782 239.773 313.22 239.92C312.659 240.066 312.156 240.381 311.779 240.821L292.359 263.634C292.008 264.045 291.783 264.547 291.709 265.082C291.635 265.616 291.715 266.16 291.94 266.651C292.165 267.141 292.525 267.558 292.979 267.851C293.432 268.144 293.96 268.302 294.501 268.306H313.913C314.288 268.309 314.66 268.238 315.007 268.097C315.355 267.956 315.671 267.748 315.937 267.484C316.203 267.221 316.415 266.907 316.559 266.562C316.703 266.216 316.777 265.845 316.777 265.471Z" fill="#1D1D39"/>
<path d="M133.069 214.108C132.288 215.786 131.465 217.295 130.667 218.855L128.315 223.51L125.963 228.182C125.173 229.75 124.359 231.318 123.393 232.862C123.537 231.064 123.884 229.289 124.426 227.569C124.941 225.837 125.607 224.153 126.417 222.537C127.223 220.919 128.179 219.381 129.273 217.941C130.354 216.493 131.632 215.203 133.069 214.108Z" fill="white"/>
<path d="M136.06 218.05C135.329 219.501 134.573 220.868 133.834 222.244L131.659 226.353L129.483 230.48C128.752 231.864 128.005 233.256 127.114 234.615C127.271 233.014 127.607 231.436 128.114 229.909C128.605 228.38 129.226 226.896 129.97 225.473C130.713 224.043 131.593 222.689 132.599 221.43C133.587 220.146 134.753 219.008 136.06 218.05Z" fill="white"/>
<path d="M127.895 212.456C127.248 213.966 126.559 215.383 125.887 216.809L123.913 221.078L121.939 225.355C121.267 226.789 120.587 228.232 119.764 229.649C119.841 228.026 120.103 226.416 120.545 224.852C120.966 223.281 121.528 221.751 122.225 220.281C122.902 218.811 123.714 217.407 124.652 216.087C125.562 214.735 126.653 213.513 127.895 212.456Z" fill="white"/>
<path d="M320.541 276.198C321.979 277.303 323.256 278.602 324.338 280.056C325.454 281.496 326.433 283.038 327.261 284.661C328.066 286.278 328.729 287.962 329.243 289.693C329.784 291.413 330.134 293.188 330.285 294.985C329.311 293.442 328.504 291.874 327.706 290.305L325.354 285.633L323.002 280.979C322.171 279.385 321.381 277.842 320.541 276.198Z" fill="white"/>
<path d="M317.584 280.14C318.884 281.094 320.046 282.223 321.036 283.495C322.044 284.756 322.924 286.113 323.666 287.546C324.417 288.966 325.038 290.451 325.522 291.983C326.036 293.508 326.374 295.086 326.53 296.688C325.64 295.329 324.892 293.937 324.153 292.553L321.977 288.426L319.802 284.317C319.062 282.983 318.306 281.591 317.584 280.14Z" fill="white"/>
<path d="M325.741 274.546C326.999 275.592 328.106 276.806 329.034 278.152C329.972 279.47 330.782 280.874 331.453 282.346C332.146 283.817 332.708 285.347 333.133 286.917C333.571 288.482 333.833 290.091 333.914 291.714C333.074 290.288 332.402 288.854 331.739 287.42L329.765 283.134L327.791 278.873C327.085 277.473 326.422 276.055 325.741 274.546Z" fill="white"/>
<path d="M251.76 300.277H262.915V303.112H255.935V305.251H262.411V307.994H255.935V310.661H263.117V313.705H251.76V300.277Z" fill="#6C63FF"/>
<path d="M263.117 315.349H251.76C251.33 315.349 250.918 315.178 250.614 314.875C250.309 314.571 250.139 314.16 250.139 313.73V300.311C250.138 300.098 250.179 299.887 250.26 299.69C250.341 299.493 250.46 299.314 250.611 299.164C250.762 299.013 250.941 298.894 251.138 298.813C251.335 298.732 251.547 298.691 251.76 298.692H262.915C263.128 298.691 263.34 298.732 263.537 298.813C263.734 298.894 263.913 299.013 264.064 299.164C264.215 299.314 264.334 299.493 264.415 299.69C264.496 299.887 264.537 300.098 264.536 300.311V303.112C264.198 303.34 263.959 303.687 263.865 304.083C263.772 304.48 263.831 304.897 264.032 305.251V307.994C263.845 308.195 263.712 308.44 263.646 308.706C263.579 308.973 263.581 309.252 263.652 309.517C263.722 309.782 263.859 310.026 264.049 310.224C264.238 310.423 264.476 310.57 264.738 310.652V313.697C264.742 313.912 264.704 314.126 264.624 314.327C264.545 314.527 264.426 314.709 264.275 314.863C264.124 315.017 263.944 315.139 263.745 315.223C263.546 315.306 263.332 315.349 263.117 315.349ZM253.381 312.112H255.17C254.914 311.973 254.7 311.767 254.552 311.515C254.404 311.264 254.327 310.977 254.33 310.686V308.027C254.561 307.88 254.751 307.677 254.882 307.438C255.014 307.198 255.083 306.929 255.083 306.656C255.083 306.383 255.014 306.114 254.882 305.874C254.751 305.634 254.561 305.432 254.33 305.284V303.112C254.33 302.873 254.384 302.636 254.487 302.42C254.59 302.204 254.74 302.013 254.927 301.863H253.398L253.381 312.112Z" fill="#6C63FF"/>
<path d="M265.418 313.73V300.311H272.356C273.35 300.276 274.343 300.386 275.305 300.638C275.989 300.842 276.582 301.274 276.985 301.863C277.283 302.289 277.491 302.773 277.594 303.284C277.697 303.794 277.694 304.32 277.584 304.83C277.475 305.339 277.261 305.82 276.957 306.243C276.653 306.666 276.265 307.022 275.817 307.289C275.362 307.544 274.868 307.726 274.356 307.826C274.738 307.938 275.103 308.105 275.439 308.321C275.688 308.528 275.911 308.764 276.103 309.025C276.323 309.287 276.519 309.568 276.691 309.864L278.707 313.764H274.003L271.777 309.654C271.598 309.26 271.341 308.906 271.021 308.614C270.723 308.407 270.367 308.298 270.004 308.304H269.635V313.764L265.418 313.73ZM269.618 305.729H271.374C271.745 305.697 272.113 305.635 272.474 305.544C272.747 305.493 272.99 305.34 273.154 305.117C273.347 304.851 273.437 304.526 273.409 304.2C273.382 303.873 273.237 303.568 273.003 303.339C272.536 303.059 271.991 302.939 271.449 302.995H269.618V305.729Z" fill="#6C63FF"/>
<path d="M278.674 315.349H273.969C273.678 315.349 273.392 315.272 273.141 315.124C272.89 314.977 272.683 314.765 272.541 314.51L271.223 312.061V313.739C271.221 314.167 271.049 314.578 270.745 314.881C270.442 315.184 270.031 315.355 269.601 315.357H265.401C265.189 315.357 264.978 315.316 264.781 315.234C264.584 315.153 264.406 315.034 264.255 314.883C264.105 314.733 263.985 314.555 263.904 314.358C263.822 314.162 263.78 313.951 263.78 313.739V300.319C263.779 300.106 263.82 299.895 263.901 299.699C263.983 299.502 264.102 299.323 264.253 299.172C264.403 299.022 264.583 298.903 264.78 298.822C264.977 298.741 265.188 298.699 265.401 298.701H272.34C273.505 298.661 274.669 298.8 275.792 299.112C276.798 299.432 277.667 300.078 278.262 300.948C278.885 301.862 279.205 302.947 279.178 304.052C279.196 305.014 278.955 305.964 278.48 306.803C278.192 307.296 277.823 307.739 277.388 308.111C277.654 308.434 277.888 308.782 278.085 309.151L280.093 313.026C280.221 313.272 280.284 313.548 280.275 313.826C280.266 314.103 280.185 314.374 280.041 314.612C279.897 314.849 279.693 315.046 279.451 315.182C279.209 315.319 278.935 315.391 278.657 315.391L278.674 315.349ZM274.935 312.112H276.019L275.179 310.577C275.068 310.371 274.932 310.18 274.776 310.006C274.659 309.856 274.532 309.714 274.398 309.579C274.2 309.473 273.992 309.389 273.776 309.327C273.569 309.256 273.378 309.145 273.214 309L274.935 312.112ZM267.039 312.112H267.98V308.27C267.98 308.025 268.036 307.782 268.144 307.561C268.252 307.34 268.408 307.147 268.602 306.995C268.408 306.846 268.252 306.654 268.144 306.434C268.036 306.215 267.98 305.973 267.98 305.729V302.995C267.981 302.588 268.133 302.196 268.409 301.896H267.039V312.112ZM271.962 307.289C272.267 307.524 272.531 307.807 272.743 308.128C272.712 307.987 272.698 307.844 272.701 307.7C272.717 307.494 272.768 307.293 272.852 307.105H272.777C272.458 307.205 272.189 307.255 271.962 307.306V307.289ZM273.835 301.963L274.028 302.106C274.352 302.378 274.609 302.721 274.781 303.107C274.953 303.494 275.034 303.914 275.019 304.337C275.024 304.97 274.817 305.587 274.431 306.09C274.612 306.041 274.784 305.968 274.944 305.872C275.257 305.69 275.52 305.434 275.708 305.125C275.889 304.782 275.976 304.397 275.96 304.01C275.983 303.568 275.865 303.131 275.624 302.76C275.426 302.461 275.129 302.241 274.784 302.139C274.474 302.053 274.156 301.994 273.835 301.963Z" fill="#6C63FF"/>
<path d="M280.06 313.73V300.311H286.998C287.994 300.275 288.99 300.385 289.955 300.638C290.639 300.841 291.233 301.273 291.635 301.863C291.933 302.29 292.141 302.773 292.244 303.284C292.347 303.794 292.344 304.32 292.234 304.83C292.125 305.339 291.911 305.82 291.607 306.243C291.303 306.666 290.915 307.022 290.467 307.289C290.012 307.544 289.518 307.726 289.006 307.826C289.388 307.939 289.753 308.105 290.089 308.321C290.341 308.527 290.567 308.764 290.761 309.025C290.976 309.289 291.17 309.57 291.341 309.864L293.357 313.764H288.619L286.393 309.654C286.217 309.258 285.96 308.904 285.637 308.614C285.341 308.404 284.984 308.295 284.621 308.304H284.251V313.764L280.06 313.73ZM284.26 305.729H286.015C286.386 305.698 286.754 305.636 287.116 305.545C287.388 305.493 287.631 305.34 287.796 305.117C287.971 304.895 288.063 304.619 288.056 304.337C288.067 304.15 288.036 303.964 287.965 303.791C287.894 303.618 287.784 303.463 287.645 303.339C287.178 303.059 286.632 302.939 286.091 302.995H284.26V305.729Z" fill="#6C63FF"/>
<path d="M293.314 315.349H288.619C288.328 315.349 288.041 315.272 287.79 315.124C287.539 314.977 287.332 314.765 287.191 314.51L285.872 312.061V313.739C285.872 314.168 285.701 314.58 285.397 314.883C285.093 315.187 284.681 315.357 284.251 315.357H280.051C279.622 315.355 279.211 315.184 278.907 314.881C278.603 314.578 278.432 314.167 278.43 313.739V300.319C278.43 299.89 278.6 299.478 278.905 299.175C279.209 298.871 279.621 298.701 280.051 298.701H286.989C288.154 298.661 289.319 298.799 290.442 299.112C291.451 299.429 292.324 300.076 292.92 300.948C293.483 301.817 293.8 302.821 293.837 303.855C293.874 304.889 293.63 305.913 293.13 306.819C292.842 307.311 292.476 307.753 292.046 308.128C292.309 308.453 292.543 308.801 292.743 309.168L294.742 313.043C294.871 313.289 294.933 313.565 294.924 313.842C294.915 314.12 294.835 314.391 294.69 314.628C294.546 314.866 294.343 315.062 294.1 315.199C293.858 315.335 293.584 315.407 293.306 315.408L293.314 315.349ZM289.577 312.112H290.66L289.862 310.577C289.741 310.375 289.603 310.185 289.45 310.006C289.34 309.851 289.213 309.708 289.072 309.579C288.875 309.473 288.666 309.389 288.451 309.327C288.247 309.255 288.058 309.144 287.897 309L289.577 312.112ZM281.68 312.112H282.621V308.27C282.621 308.025 282.677 307.782 282.785 307.561C282.893 307.34 283.049 307.147 283.243 306.995C283.049 306.846 282.893 306.654 282.785 306.434C282.677 306.215 282.621 305.973 282.621 305.729V302.995C282.621 302.586 282.778 302.193 283.058 301.896H281.68V312.112ZM286.603 307.306C286.908 307.541 287.171 307.824 287.384 308.145C287.363 308.003 287.363 307.859 287.384 307.717C287.393 307.511 287.441 307.309 287.527 307.121H287.46C287.098 307.205 286.83 307.255 286.603 307.306ZM288.484 301.98L288.669 302.123C288.993 302.395 289.25 302.738 289.422 303.124C289.594 303.511 289.675 303.931 289.66 304.354C289.665 304.987 289.458 305.604 289.072 306.106C289.255 306.057 289.43 305.984 289.593 305.888C289.904 305.707 290.164 305.45 290.349 305.142C290.53 304.799 290.617 304.414 290.601 304.026C290.624 303.585 290.506 303.148 290.265 302.777C290.067 302.478 289.77 302.258 289.425 302.156C289.118 302.064 288.803 302 288.484 301.963V301.98Z" fill="#6C63FF"/>
<path d="M293.802 307.012C293.71 306.076 293.826 305.13 294.143 304.244C294.46 303.357 294.97 302.552 295.636 301.886C296.302 301.219 297.107 300.709 297.994 300.39C298.881 300.071 299.827 299.953 300.766 300.043C301.706 299.983 302.65 300.111 303.54 300.421C304.43 300.731 305.249 301.215 305.949 301.846C306.575 302.519 307.058 303.312 307.37 304.177C307.682 305.042 307.815 305.96 307.763 306.878C307.815 308.211 307.544 309.538 306.973 310.745C306.454 311.736 305.654 312.553 304.672 313.093C303.516 313.69 302.226 313.979 300.925 313.932C299.63 313.975 298.342 313.728 297.154 313.21C296.133 312.706 295.29 311.905 294.735 310.912C294.08 309.719 293.758 308.372 293.802 307.012ZM298.002 307.012C297.91 308.046 298.177 309.079 298.758 309.939C299.026 310.218 299.348 310.439 299.704 310.59C300.059 310.741 300.442 310.819 300.829 310.819C301.215 310.819 301.598 310.741 301.954 310.59C302.31 310.439 302.631 310.218 302.899 309.939C303.486 309.007 303.746 307.907 303.639 306.811C303.717 305.823 303.444 304.84 302.866 304.035C302.602 303.751 302.278 303.528 301.918 303.383C301.558 303.238 301.17 303.174 300.783 303.196C300.401 303.182 300.021 303.255 299.672 303.409C299.323 303.563 299.013 303.794 298.767 304.085C298.166 304.944 297.884 305.985 297.969 307.029L298.002 307.012Z" fill="#6C63FF"/>
<path d="M300.925 315.576C299.384 315.619 297.854 315.315 296.448 314.686C295.139 314.047 294.055 313.027 293.34 311.759C292.529 310.311 292.128 308.67 292.18 307.012C292.241 305.315 292.786 303.67 293.751 302.27C294.716 300.871 296.061 299.776 297.627 299.114C299.194 298.451 300.918 298.249 302.595 298.531C304.273 298.813 305.835 299.567 307.099 300.705C307.883 301.529 308.491 302.503 308.887 303.568C309.283 304.634 309.457 305.768 309.4 306.903C309.453 308.5 309.115 310.086 308.418 311.525C307.757 312.794 306.734 313.839 305.478 314.527C304.076 315.263 302.508 315.624 300.925 315.576ZM302.059 301.745C302.835 301.958 303.531 302.395 304.058 303.003C304.91 304.095 305.326 305.464 305.226 306.845C305.226 308.765 304.864 310.124 304.117 311.038C303.637 311.606 303.009 312.03 302.302 312.263C302.859 312.181 303.396 312.002 303.89 311.734C304.604 311.354 305.189 310.77 305.57 310.057C306.02 309.083 306.231 308.016 306.183 306.945C306.236 306.237 306.143 305.525 305.912 304.853C305.681 304.182 305.316 303.564 304.839 303.037C304.082 302.31 303.104 301.855 302.059 301.745ZM299.463 301.745C298.457 301.867 297.519 302.315 296.792 303.02C296.307 303.558 295.937 304.188 295.703 304.873C295.469 305.557 295.376 306.282 295.431 307.004C295.384 308.083 295.628 309.154 296.137 310.107C296.527 310.83 297.132 311.416 297.867 311.785C298.297 311.987 298.752 312.131 299.22 312.212C298.551 311.969 297.957 311.555 297.498 311.013C296.749 309.819 296.351 308.438 296.351 307.029C296.351 305.62 296.749 304.239 297.498 303.045C298.009 302.432 298.689 301.983 299.455 301.754L299.463 301.745ZM300.757 304.806C300.609 304.792 300.46 304.813 300.323 304.869C300.185 304.924 300.063 305.012 299.967 305.125C299.646 305.702 299.516 306.366 299.598 307.021C299.516 307.67 299.645 308.329 299.967 308.899C300.07 309.017 300.201 309.108 300.347 309.163C300.494 309.219 300.652 309.238 300.807 309.218C301.395 309.218 301.563 309.025 301.647 308.925C301.731 308.824 302 308.455 302 306.836C302.067 306.252 301.937 305.661 301.63 305.159C301.524 305.03 301.389 304.929 301.235 304.865C301.081 304.801 300.914 304.775 300.748 304.79L300.757 304.806Z" fill="#6C63FF"/>
<path d="M310.063 313.73V300.311H317.002C317.995 300.276 318.989 300.386 319.95 300.638C320.634 300.842 321.227 301.274 321.63 301.863C321.929 302.289 322.136 302.773 322.239 303.284C322.343 303.794 322.339 304.32 322.23 304.83C322.12 305.339 321.907 305.82 321.603 306.243C321.299 306.666 320.911 307.022 320.463 307.289C320.007 307.544 319.514 307.726 319.001 307.826C319.384 307.938 319.749 308.105 320.085 308.321C320.334 308.528 320.556 308.764 320.748 309.025C320.968 309.287 321.165 309.568 321.336 309.864L323.352 313.764H318.648L316.422 309.654C316.244 309.26 315.986 308.906 315.666 308.614C315.368 308.407 315.013 308.298 314.65 308.304H314.28V313.764L310.063 313.73ZM314.263 305.729H316.019C316.39 305.697 316.758 305.635 317.119 305.544C317.392 305.493 317.635 305.34 317.8 305.117C317.992 304.851 318.083 304.526 318.055 304.2C318.027 303.873 317.883 303.568 317.649 303.339C317.181 303.059 316.636 302.939 316.095 302.995H314.263V305.729Z" fill="#6C63FF"/>
<path d="M323.319 315.349H318.615C318.324 315.349 318.037 315.272 317.786 315.124C317.535 314.977 317.328 314.765 317.187 314.51L315.868 312.061V313.739C315.866 314.167 315.695 314.578 315.391 314.881C315.087 315.184 314.676 315.355 314.247 315.357H310.047C309.617 315.357 309.205 315.187 308.901 314.883C308.597 314.58 308.426 314.168 308.426 313.739V300.319C308.425 300.106 308.466 299.895 308.547 299.699C308.628 299.502 308.747 299.323 308.898 299.172C309.049 299.022 309.228 298.903 309.425 298.822C309.622 298.741 309.834 298.699 310.047 298.701H316.985C318.15 298.661 319.315 298.8 320.438 299.112C321.443 299.432 322.313 300.078 322.907 300.948C323.534 301.861 323.857 302.946 323.831 304.052C323.848 305.015 323.604 305.965 323.126 306.803C322.837 307.296 322.468 307.739 322.034 308.111C322.3 308.434 322.534 308.782 322.731 309.151L324.739 313.026C324.867 313.272 324.93 313.548 324.92 313.826C324.911 314.103 324.831 314.374 324.686 314.612C324.542 314.849 324.339 315.046 324.096 315.182C323.854 315.319 323.581 315.391 323.302 315.391L323.319 315.349ZM319.581 312.112H320.656L319.867 310.577C319.746 310.375 319.608 310.185 319.455 310.006C319.338 309.856 319.212 309.714 319.077 309.579C318.879 309.473 318.671 309.389 318.455 309.327C318.248 309.256 318.057 309.145 317.893 309L319.581 312.112ZM311.685 312.112H312.626V308.27C312.626 308.025 312.682 307.782 312.789 307.561C312.897 307.34 313.054 307.147 313.247 306.995C313.054 306.846 312.897 306.654 312.79 306.434C312.682 306.215 312.626 305.973 312.626 305.729V302.995C312.623 302.587 312.776 302.194 313.054 301.896H311.685V312.112ZM316.607 307.289C316.912 307.524 317.176 307.807 317.389 308.128C317.367 307.986 317.367 307.842 317.389 307.7C317.397 307.494 317.446 307.292 317.531 307.105H317.456C317.103 307.205 316.834 307.255 316.607 307.306V307.289ZM318.489 301.963L318.674 302.106C318.997 302.378 319.255 302.721 319.426 303.107C319.598 303.494 319.68 303.914 319.665 304.337C319.669 304.97 319.463 305.587 319.077 306.09C319.607 305.941 320.061 305.596 320.345 305.125C320.528 304.755 320.617 304.346 320.603 303.933C320.59 303.521 320.476 303.118 320.27 302.76C320.072 302.461 319.774 302.241 319.43 302.139C319.122 302.053 318.807 301.994 318.489 301.963Z" fill="#6C63FF"/>
<path d="M251.76 300.277H262.915V303.112H255.935V305.251H262.411V307.994H255.935V310.661H263.117V313.705H251.76V300.277Z" fill="white"/>
<path d="M265.418 313.73V300.311H272.356C273.35 300.276 274.343 300.386 275.305 300.638C275.989 300.842 276.582 301.274 276.985 301.863C277.283 302.289 277.491 302.773 277.594 303.284C277.697 303.794 277.694 304.32 277.584 304.83C277.475 305.339 277.261 305.82 276.957 306.243C276.653 306.666 276.265 307.022 275.817 307.289C275.362 307.544 274.868 307.726 274.356 307.826C274.738 307.938 275.103 308.105 275.439 308.321C275.688 308.528 275.911 308.764 276.103 309.025C276.323 309.287 276.519 309.568 276.691 309.864L278.707 313.764H274.003L271.777 309.654C271.598 309.26 271.341 308.906 271.021 308.614C270.723 308.407 270.367 308.298 270.004 308.304H269.635V313.764L265.418 313.73ZM269.618 305.729H271.374C271.745 305.697 272.113 305.635 272.474 305.544C272.747 305.493 272.99 305.34 273.154 305.117C273.347 304.851 273.437 304.526 273.409 304.2C273.382 303.873 273.237 303.568 273.003 303.339C272.536 303.059 271.991 302.939 271.449 302.995H269.618V305.729Z" fill="white"/>
<path d="M280.06 313.73V300.311H286.998C287.994 300.275 288.99 300.385 289.955 300.638C290.639 300.841 291.233 301.273 291.635 301.863C291.933 302.29 292.141 302.773 292.244 303.284C292.347 303.794 292.344 304.32 292.234 304.83C292.125 305.339 291.911 305.82 291.607 306.243C291.303 306.666 290.915 307.022 290.467 307.289C290.012 307.544 289.518 307.726 289.006 307.826C289.388 307.939 289.753 308.105 290.089 308.321C290.341 308.527 290.567 308.764 290.761 309.025C290.976 309.289 291.17 309.57 291.341 309.864L293.357 313.764H288.619L286.393 309.654C286.217 309.258 285.96 308.904 285.637 308.614C285.341 308.404 284.984 308.295 284.621 308.304H284.251V313.764L280.06 313.73ZM284.26 305.729H286.015C286.386 305.698 286.754 305.636 287.116 305.545C287.388 305.493 287.631 305.34 287.796 305.117C287.971 304.895 288.063 304.619 288.056 304.337C288.067 304.15 288.036 303.964 287.965 303.791C287.894 303.618 287.784 303.463 287.645 303.339C287.178 303.059 286.632 302.939 286.091 302.995H284.26V305.729Z" fill="white"/>
<path d="M293.802 307.012C293.71 306.076 293.826 305.13 294.143 304.244C294.46 303.357 294.97 302.552 295.636 301.886C296.302 301.219 297.107 300.709 297.994 300.39C298.881 300.071 299.827 299.953 300.766 300.043C301.706 299.983 302.65 300.111 303.54 300.421C304.43 300.731 305.249 301.215 305.949 301.846C306.575 302.519 307.058 303.312 307.37 304.177C307.682 305.042 307.815 305.96 307.763 306.878C307.815 308.211 307.544 309.538 306.973 310.745C306.454 311.736 305.654 312.553 304.672 313.093C303.516 313.69 302.226 313.979 300.925 313.932C299.63 313.975 298.342 313.728 297.154 313.21C296.133 312.706 295.29 311.905 294.735 310.912C294.08 309.719 293.758 308.372 293.802 307.012ZM298.002 307.012C297.91 308.046 298.177 309.079 298.758 309.939C299.026 310.218 299.348 310.439 299.704 310.59C300.059 310.741 300.442 310.819 300.829 310.819C301.215 310.819 301.598 310.741 301.954 310.59C302.31 310.439 302.631 310.218 302.899 309.939C303.486 309.007 303.746 307.907 303.639 306.811C303.717 305.823 303.444 304.84 302.866 304.035C302.602 303.751 302.278 303.528 301.918 303.383C301.558 303.238 301.17 303.174 300.783 303.196C300.401 303.182 300.021 303.255 299.672 303.409C299.323 303.563 299.013 303.794 298.767 304.085C298.166 304.944 297.884 305.985 297.969 307.029L298.002 307.012Z" fill="white"/>
<path d="M310.063 313.73V300.311H317.002C317.995 300.276 318.989 300.386 319.95 300.638C320.634 300.842 321.227 301.274 321.63 301.863C321.929 302.289 322.136 302.773 322.239 303.284C322.343 303.794 322.339 304.32 322.23 304.83C322.12 305.339 321.907 305.82 321.603 306.243C321.299 306.666 320.911 307.022 320.463 307.289C320.007 307.544 319.514 307.726 319.001 307.826C319.384 307.938 319.749 308.105 320.085 308.321C320.334 308.528 320.556 308.764 320.748 309.025C320.968 309.287 321.165 309.568 321.336 309.864L323.352 313.764H318.648L316.422 309.654C316.244 309.26 315.986 308.906 315.666 308.614C315.368 308.407 315.013 308.298 314.65 308.304H314.28V313.764L310.063 313.73ZM314.263 305.729H316.019C316.39 305.697 316.758 305.635 317.119 305.544C317.392 305.493 317.635 305.34 317.8 305.117C317.992 304.851 318.083 304.526 318.055 304.2C318.027 303.873 317.883 303.568 317.649 303.339C317.181 303.059 316.636 302.939 316.095 302.995H314.263V305.729Z" fill="white"/>
<path d="M358.759 94.5077C355.229 93.3878 351.541 92.8467 347.839 92.9058C344.244 92.9267 340.684 93.612 337.339 94.9271C335.934 95.4781 334.613 96.2235 333.416 97.1413C333.298 97.2419 333.164 97.3342 333.071 97.4264C332.979 97.5187 332.887 97.5858 332.735 97.7452C332.584 97.9045 332.189 98.3071 331.895 98.5839C331.359 99.1915 330.862 99.8331 330.409 100.505C328.532 103.26 327.339 106.423 326.931 109.73C326.731 111.297 326.751 112.883 326.99 114.444C327.102 115.178 327.273 115.901 327.502 116.608C327.731 117.315 328.011 118.005 328.342 118.671C329.263 120.394 330.305 122.051 331.459 123.628C332.744 125.456 334.231 127.452 335.659 129.893C337.32 132.596 338.505 135.563 339.161 138.666C339.496 140.412 339.62 142.191 339.531 143.967C339.431 145.708 339.123 147.431 338.615 149.1C337.635 152.296 336.005 155.257 333.827 157.797C332.753 159.045 331.557 160.183 330.257 161.194C329.002 162.18 327.658 163.048 326.242 163.785C323.51 165.193 320.573 166.163 317.54 166.662C314.701 167.132 311.817 167.267 308.947 167.065C306.21 166.871 303.497 166.427 300.841 165.74C298.346 165.094 295.892 164.301 293.491 163.366C288.82 161.58 284.587 159.533 280.546 157.797C276.804 156.082 272.89 154.766 268.87 153.872C267.048 153.502 265.194 153.317 263.335 153.318C261.449 153.324 259.568 153.504 257.715 153.855C253.809 154.651 250.033 155.983 246.493 157.814C239.151 161.512 232.364 167.149 225.341 173.053C224.071 174.125 222.427 174.652 220.769 174.519C219.111 174.386 217.573 173.603 216.491 172.342C215.408 171.081 214.869 169.443 214.992 167.787C215.114 166.13 215.887 164.589 217.143 163.5C224.073 157.47 231.373 151.003 240.428 146.172C245.032 143.68 249.963 141.845 255.077 140.721C257.739 140.159 260.447 139.848 263.167 139.79C265.917 139.729 268.667 139.945 271.373 140.436C276.378 141.413 281.264 142.923 285.947 144.94C290.399 146.76 294.507 148.63 298.472 150.056C300.374 150.755 302.315 151.343 304.285 151.817C306.098 152.252 307.949 152.516 309.812 152.605C313.087 152.873 316.373 152.237 319.312 150.769C319.93 150.425 320.514 150.027 321.059 149.578C321.567 149.161 322.034 148.698 322.454 148.194C323.259 147.206 323.854 146.064 324.201 144.839C324.357 144.293 324.442 143.729 324.453 143.161C324.467 142.637 324.416 142.113 324.302 141.601C323.937 140.215 323.347 138.897 322.555 137.701C321.622 136.192 320.345 134.498 318.943 132.594C317.324 130.466 315.861 128.223 314.566 125.884C313.834 124.513 313.205 123.088 312.685 121.623C312.176 120.152 311.783 118.643 311.509 117.111C310.977 114.13 310.861 111.091 311.164 108.078C311.75 102.206 313.738 96.5605 316.96 91.6142C317.771 90.3624 318.66 89.1634 319.623 88.0245C320.119 87.4542 320.623 86.8922 321.152 86.3471C321.395 86.0871 321.748 85.76 322.059 85.4664C322.37 85.1729 322.697 84.9045 323.017 84.6277C325.416 82.6664 328.087 81.0618 330.946 79.8638C336.152 77.6881 341.718 76.4992 347.36 76.358C352.871 76.1828 358.374 76.8994 363.656 78.4799C365.658 79.218 367.303 80.689 368.258 82.5944C369.213 84.4998 369.406 86.6967 368.798 88.739C368.189 90.7812 366.825 92.5157 364.983 93.5903C363.14 94.6648 360.957 94.9988 358.876 94.5245L358.759 94.5077Z" fill="#1D1D39"/>
<path d="M358.556 95.1871C354.042 93.6594 349.259 93.0881 344.512 93.5097C342.221 93.7177 339.965 94.2021 337.792 94.9523C335.993 95.5651 334.311 96.4783 332.819 97.6529L332.34 98.0639C330.757 99.5153 328.662 100.279 326.514 100.188C324.367 100.097 322.344 99.1579 320.891 97.5774C319.437 95.997 318.672 93.9047 318.763 91.7609C318.855 89.617 319.795 87.5972 321.378 86.1458C324.32 83.272 327.792 80.9936 331.601 79.4361C335.029 78.0091 338.621 77.0091 342.294 76.4586C349.501 75.4016 356.851 75.8702 363.865 77.8341C366.193 78.4703 368.173 80.0038 369.369 82.0974C370.564 84.1909 370.878 86.6729 370.241 88.9974C369.604 91.3219 368.068 93.2985 365.971 94.4923C363.874 95.6861 361.388 95.9994 359.06 95.3632L358.615 95.229L358.556 95.1871Z" fill="#6C63FF"/>
<path d="M201.93 198.986L205.046 203.834C201.913 205.469 198.637 205.226 195.294 205.226C193.874 198.667 201.93 198.986 201.93 198.986Z" fill="#1D1D39"/>
<path d="M182.938 173.112C186.911 184.527 201.644 199.665 201.644 199.665C201.644 199.665 195.428 200.907 197.117 205.193H205.794L224.476 201.678C225.099 201.534 225.643 201.157 225.999 200.626C226.355 200.095 226.495 199.449 226.391 198.818L219.494 175.72L182.938 173.112Z" fill="#6C63FF"/>
<path d="M255.404 179.645L257.084 186.447C260.377 185.147 263.158 184.258 264.586 181.205C262.931 176.962 255.404 179.645 255.404 179.645Z" fill="#1D1D39"/>
<path d="M240.654 144.747C246.534 155.264 258.933 180.912 258.933 180.912C258.933 180.912 265.3 181.18 264.452 185.651L239.764 191.74C239.214 191.93 238.615 191.934 238.063 191.75C237.51 191.567 237.033 191.206 236.706 190.725L219.066 175.812C228.693 169.942 239.898 154.534 240.654 144.747Z" fill="#6C63FF"/>
<path opacity="0.1" d="M229.214 166.813C226.322 170.308 222.925 173.352 219.134 175.846L224.174 179.947C229.609 175.091 231.154 169.891 229.214 166.813Z" fill="black"/>
<path d="M222.929 114.209C229.784 115.375 258.251 111.517 260.368 111.416C260.595 109.848 261.317 105.965 263.023 106.652C264.728 107.34 265.601 110.276 265.257 111.685C269.297 110.963 274.606 119.233 268.567 125.943C259.721 135.856 227.407 137.374 227.407 137.374C227.407 137.374 209.876 115.853 222.929 114.209Z" fill="#6C63FF"/>
<path opacity="0.1" d="M225.063 127.402C223.698 127.251 222.315 127.403 221.015 127.847C222.89 131.188 225.03 134.374 227.415 137.374C227.415 137.374 233.934 137.064 241.914 135.839C237.521 132.703 230.557 128.283 225.063 127.402Z" fill="black"/>
<path d="M265.257 111.659C269.339 109.982 272.195 109.143 273.136 110.544C274.077 111.945 272.817 114.888 268.869 115.652C265.248 113.387 265.257 111.659 265.257 111.659Z" fill="#6C63FF"/>
<path d="M267.912 115.148C272.213 115.006 275.094 115.257 275.472 116.826C275.85 118.394 273.683 120.676 269.836 120.013C267.307 116.725 267.912 115.148 267.912 115.148Z" fill="#6C63FF"/>
<path d="M270.625 119.535C273.388 120.818 275.084 121.942 274.581 123.292C274.077 124.643 271.683 125.683 269.541 123.921C269.516 120.55 270.625 119.535 270.625 119.535Z" fill="#6C63FF"/>
<path d="M170.305 135.655C167.147 141.836 147.02 162.301 145.668 163.945C144.273 163.182 140.729 161.429 140.267 163.215C139.805 165.002 141.627 167.451 142.938 167.996C139.947 170.797 143.383 179.981 152.43 179.193C165.677 178.035 186.215 153.1 186.215 153.1C186.215 153.1 179.419 126.186 170.305 135.655Z" fill="#6C63FF"/>
<path opacity="0.1" d="M179.611 145.25C180.313 144.07 181.261 143.054 182.391 142.272C183.956 145.773 185.234 149.394 186.213 153.1C186.213 153.1 182.072 158.132 176.31 163.777C176.419 158.392 177.032 150.173 179.611 145.25Z" fill="black"/>
<path d="M142.937 167.996C139.132 170.243 136.772 172.047 137.335 173.632C137.897 175.217 141.014 175.98 143.987 173.28C144.332 169.027 142.937 167.996 142.937 167.996Z" fill="#6C63FF"/>
<path d="M144.138 172.214C141.45 175.569 139.938 178.018 140.996 179.268C142.055 180.518 145.146 180.107 146.918 176.651C145.818 172.667 144.138 172.214 144.138 172.214Z" fill="#6C63FF"/>
<path d="M146.054 177.003C145.424 179.981 145.315 182.036 146.709 182.422C148.103 182.807 150.354 181.533 150.203 178.782C147.499 176.727 146.054 177.003 146.054 177.003Z" fill="#6C63FF"/>
<path opacity="0.1" d="M219.512 175.804V175.754L208.34 174.915C208.113 179.721 213.716 182.765 221.242 181.474L219.512 175.804Z" fill="black"/>
<path d="M221.577 118.067L198.528 127.922L175.486 137.777C175.486 137.777 177.939 167.518 185.499 177.708C193.059 187.898 207.658 184.762 220.552 179.243C233.446 173.724 245.752 165.345 243.619 152.849C241.485 140.352 221.577 118.067 221.577 118.067Z" fill="#6C63FF"/>
<path opacity="0.2" d="M211.548 123.628L198.999 128.996L186.457 134.363C186.642 131.923 181.518 154.627 190.254 166.729C195.949 174.613 206.584 172.449 215.933 168.449C225.282 164.448 234.178 158.258 232.389 148.705C229.65 134.053 209.658 122.101 211.548 123.628Z" fill="white"/>
<path opacity="0.2" d="M207.558 127.167L199.158 130.74L190.8 134.321C190.859 132.56 187.961 148.89 194.16 157.881C198.217 163.752 205.365 162.443 211.598 159.776C217.831 157.109 223.711 152.84 222.258 145.862C220.082 135.168 206.231 126.001 207.558 127.167Z" fill="white"/>
<path opacity="0.2" d="M148.781 175.918C150.369 175.281 150.989 173.103 150.165 171.053C149.341 169.002 147.386 167.856 145.797 168.492C144.209 169.128 143.589 171.306 144.413 173.357C145.237 175.407 147.192 176.554 148.781 175.918Z" fill="white"/>
<path opacity="0.2" d="M268.861 119.3C269.02 121.506 267.769 123.393 266.063 123.494C264.358 123.594 262.838 121.934 262.703 119.736C262.569 117.539 263.795 115.643 265.501 115.543C267.206 115.442 268.701 117.103 268.861 119.3Z" fill="white"/>
<path d="M148.079 64.0793C114.589 40.4108 63.1303 54.9289 59.0899 63.8696C54.7975 73.389 101.401 99.0284 112.85 123.804C129.566 92.7968 148.079 64.0793 148.079 64.0793Z" fill="#1D1D39"/>
<path opacity="0.5" d="M135.74 73.7832C109.229 55.3315 71.8494 63.6347 69.4302 69.9251C66.8514 76.6348 103.265 97.0574 113.438 115.425C123.812 93.7445 135.74 73.7832 135.74 73.7832Z" fill="#6C63FF"/>
<path d="M139.042 69.3044C131.532 69.8077 125.173 72.3238 119.57 78.2283C122.095 77.4202 124.786 77.2774 127.382 77.8137C129.978 78.3501 132.392 79.5475 134.388 81.2896L139.042 69.3044Z" fill="#1D1D39"/>
<path d="M188.154 46.9276C204.249 -3.78095 261.57 -3.98224 272.994 3.69197C281.671 9.56296 244.72 32.9882 254.623 66.8051C221.292 55.4154 188.154 46.9276 188.154 46.9276Z" fill="#1D1D39"/>
<path opacity="0.5" d="M203.3 45.8289C216.74 16.474 248.089 4.73199 262.73 7.35716C276.573 9.82298 235.211 42.0547 243.662 70.4283C223.687 57.0089 203.3 45.8289 203.3 45.8289Z" fill="#6C63FF"/>
<path d="M202.383 41.2998C204.974 39.8989 207.816 39.0243 210.748 38.7263C213.679 38.4283 216.64 38.7129 219.46 39.5637C217.388 40.0275 215.471 41.0189 213.896 42.4416C212.321 43.8643 211.141 45.6698 210.472 47.6824L202.383 41.2998Z" fill="#1D1D39"/>
<path d="M203.081 38.9179C204.796 37.3165 206.812 36.0697 209.012 35.2492C211.212 34.4287 213.553 34.0508 215.899 34.1372C214.395 34.9135 213.116 36.0652 212.189 37.4804C211.262 38.8957 210.717 40.5264 210.607 42.214L203.081 38.9179Z" fill="#1D1D39"/>
<path d="M264.538 69.3967C273.005 89.1232 242.462 113.01 199.942 131.201C157.421 149.393 119.033 154.996 110.54 135.261C102.048 115.526 122.502 68.0715 165.023 49.8798C207.544 31.6882 256.07 49.6618 264.538 69.3967Z" fill="#6C63FF"/>
<path opacity="0.1" d="M247.754 71.2754C255.6 89.5677 231.676 110.536 197.354 125.213C163.032 139.89 131.338 142.717 123.493 124.416C115.647 106.116 134.614 73.6154 168.92 58.9463C203.226 44.2772 239.9 52.9747 247.754 71.2754Z" fill="black"/>
<path d="M178.721 97.938C177.982 96.2103 180.241 94.2309 183.475 92.8387C186.709 91.4464 189.716 91.1613 190.456 92.9142C191.195 94.6671 190.061 99.2381 186.818 100.63C183.576 102.023 179.46 99.6658 178.721 97.938Z" fill="#1D1D39"/>
<path opacity="0.3" d="M185.583 113.345C185.087 112.171 187.465 110.468 190.707 109.085C193.949 107.701 196.822 107.156 197.318 108.321C197.813 109.487 196.201 112.959 192.967 114.343C189.733 115.727 186.087 114.511 185.583 113.345Z" fill="black"/>
<path opacity="0.4" d="M125.584 99.1123C130.212 85.8774 140.788 76.0561 151.574 73.5986C169.76 69.4554 175.094 92.1929 166.307 107.868C156.496 125.414 134.824 122.739 132.707 114.712C129.658 120.055 117.26 122.848 125.584 99.1123Z" fill="white"/>
<path d="M166.314 84.2083C166.314 84.2083 165.079 100.32 156.562 106.015C148.044 111.71 135.461 104.732 135.461 104.732C135.461 104.732 136.696 88.6284 145.213 82.9251C153.731 77.2219 166.314 84.2083 166.314 84.2083Z" fill="white"/>
<path d="M135.461 104.648C135.384 100.702 135.951 96.77 137.141 93.0064C137.726 91.0804 138.532 89.2285 139.543 87.4877C140.565 85.6825 141.905 84.0769 143.5 82.749C145.143 81.4107 147.085 80.4872 149.161 80.0567C151.178 79.6289 153.256 79.5721 155.293 79.889C159.238 80.4675 163 81.9299 166.297 84.1664C162.715 82.7936 158.952 81.9461 155.125 81.6503C153.29 81.5276 151.447 81.6975 149.665 82.1535C147.926 82.555 146.307 83.366 144.945 84.5187C143.533 85.6651 142.331 87.0471 141.391 88.6032L141.005 89.1819L140.661 89.7942C140.442 90.2051 140.199 90.6329 139.989 91.0271C139.594 91.8658 139.149 92.7045 138.821 93.6019C137.388 97.1818 136.264 100.877 135.461 104.648Z" fill="#1D1D39"/>
<path d="M189.036 74.4457C189.036 74.4457 201.569 84.6696 211.54 82.4135C221.511 80.1574 225.165 66.2767 225.165 66.2767C225.165 66.2767 212.64 56.0528 202.661 58.3089C192.682 60.5651 189.036 74.4457 189.036 74.4457Z" fill="white"/>
<path d="M225.164 66.2767C221.875 64.2649 218.422 62.5338 214.841 61.1018C214.001 60.7496 213.052 60.4812 212.161 60.1792C211.716 60.0367 211.254 59.936 210.8 59.8102L210.128 59.6341L209.44 59.5167C207.664 59.1257 205.834 59.0406 204.03 59.265C202.255 59.4618 200.551 60.0739 199.057 61.0515C197.498 62.0217 196.105 63.2367 194.933 64.6496C192.506 67.6122 190.525 70.9123 189.053 74.4457C189.702 70.5192 191.236 66.7911 193.538 63.5425C194.715 61.8517 196.189 60.3882 197.89 59.2231C199.641 58.0171 201.658 57.2517 203.77 56.9921C205.83 56.7567 207.916 56.896 209.927 57.4031C211.87 57.8734 213.753 58.5657 215.538 59.4663C219.095 61.2 222.347 63.5002 225.164 66.2767Z" fill="#1D1D39"/>
<path d="M158.307 103.105C163.189 101.919 166.184 97.0064 164.997 92.1319C163.81 87.2575 158.889 84.2671 154.007 85.4526C149.126 86.6382 146.131 91.5508 147.318 96.4252C148.505 101.3 153.425 104.29 158.307 103.105Z" fill="#1D1D39"/>
<path d="M148.85 94.818C149.151 95.512 149.65 96.1015 150.286 96.5122C150.921 96.9228 151.665 97.1362 152.422 97.1253C153.179 97.1144 153.915 96.8798 154.539 96.4511C155.163 96.0223 155.645 95.4187 155.925 94.7165C156.205 94.0142 156.271 93.2448 156.113 92.5054C155.956 91.766 155.582 91.0898 155.04 90.5622C154.498 90.0346 153.811 89.6793 153.067 89.5411C152.322 89.4029 151.554 89.488 150.858 89.7858C150.395 89.984 149.975 90.2715 149.623 90.6319C149.272 90.9922 148.995 91.4184 148.808 91.8859C148.622 92.3534 148.529 92.853 148.537 93.3562C148.544 93.8593 148.65 94.3561 148.85 94.818Z" fill="white"/>
<path d="M211.468 77.6049C213.335 72.9475 211.067 67.661 206.402 65.7972C201.737 63.9334 196.443 66.1981 194.576 70.8556C192.71 75.513 194.978 80.7995 199.642 82.6633C204.307 84.5271 209.602 82.2624 211.468 77.6049Z" fill="#1D1D39"/>
<path d="M195.713 74.7644C196.014 75.4584 196.513 76.0479 197.149 76.4585C197.784 76.8692 198.528 77.0826 199.285 77.0717C200.042 77.0608 200.778 76.8262 201.402 76.3975C202.026 75.9687 202.508 75.3651 202.788 74.6628C203.068 73.9606 203.134 73.1912 202.976 72.4518C202.819 71.7124 202.445 71.0362 201.903 70.5086C201.361 69.981 200.674 69.6257 199.93 69.4875C199.185 69.3493 198.417 69.4344 197.721 69.7322C197.257 69.9295 196.837 70.2165 196.484 70.5767C196.132 70.9369 195.854 71.3632 195.668 71.831C195.481 72.2988 195.389 72.7988 195.397 73.3023C195.405 73.8057 195.512 74.3027 195.713 74.7644Z" fill="white"/>
<path d="M157.494 94.8348C157.615 95.1112 157.815 95.3457 158.069 95.5087C158.323 95.6717 158.619 95.7559 158.921 95.7507C159.223 95.7455 159.517 95.6512 159.765 95.4795C160.013 95.3079 160.205 95.0667 160.316 94.7863C160.427 94.5059 160.453 94.199 160.389 93.9041C160.326 93.6093 160.177 93.3399 159.96 93.1297C159.744 92.9196 159.47 92.7782 159.173 92.7234C158.876 92.6686 158.569 92.7029 158.292 92.8219C157.919 92.984 157.627 93.2868 157.477 93.664C157.328 94.0412 157.334 94.4621 157.494 94.8348Z" fill="white"/>
<path d="M204.358 74.7812C204.474 75.059 204.67 75.2963 204.921 75.4632C205.172 75.6301 205.467 75.7192 205.768 75.7193C206.07 75.7193 206.364 75.6304 206.615 75.4636C206.866 75.2969 207.062 75.0597 207.179 74.782C207.295 74.5043 207.326 74.1984 207.269 73.9028C207.212 73.6073 207.068 73.3352 206.857 73.1209C206.645 72.9066 206.375 72.7595 206.079 72.6983C205.784 72.637 205.478 72.6643 205.198 72.7767C205.009 72.8512 204.838 72.9626 204.693 73.1044C204.548 73.2462 204.433 73.4154 204.355 73.6022C204.277 73.789 204.237 73.9895 204.237 74.192C204.238 74.3945 204.279 74.5948 204.358 74.7812Z" fill="white"/>
<path d="M199.477 103.39C199.015 103.683 198.553 103.985 198.074 104.228C197.595 104.472 197.066 104.706 196.537 104.899C195.456 105.277 194.322 105.478 193.177 105.495C192 105.479 190.837 105.228 189.758 104.757C188.648 104.271 187.663 103.539 186.877 102.618L188.246 102.031C188.368 103.237 188.219 104.455 187.809 105.596C187.406 106.699 186.787 107.712 185.987 108.573C185.188 109.39 184.26 110.07 183.24 110.586C182.736 110.827 182.22 111.043 181.694 111.232C181.157 111.391 180.619 111.525 180.09 111.651C180.569 111.366 181.047 111.106 181.518 110.812C181.988 110.519 182.425 110.25 182.845 109.915C183.677 109.298 184.425 108.576 185.071 107.768C185.677 106.968 186.137 106.068 186.432 105.109C186.578 104.636 186.679 104.15 186.734 103.658C186.789 103.19 186.789 102.717 186.734 102.249C186.715 102.052 186.772 101.855 186.894 101.699C187.016 101.543 187.193 101.44 187.389 101.41C187.523 101.393 187.659 101.41 187.784 101.46C187.909 101.51 188.019 101.591 188.103 101.695C188.409 102.056 188.749 102.384 189.12 102.677C189.519 102.967 189.94 103.225 190.38 103.448C191.28 103.889 192.248 104.173 193.244 104.287C194.279 104.38 195.321 104.335 196.344 104.153C196.873 104.086 197.385 103.918 197.915 103.817C198.444 103.717 198.948 103.541 199.477 103.39Z" fill="#1D1D39"/>
<path d="M187.49 102.954C187.341 102.952 187.195 102.908 187.07 102.826C186.945 102.744 186.846 102.629 186.785 102.492L184.458 97.0322C184.38 96.8464 184.378 96.6372 184.454 96.4502C184.529 96.2632 184.676 96.1136 184.862 96.0342C184.954 95.9929 185.054 95.9706 185.155 95.9686C185.256 95.9666 185.357 95.9849 185.451 96.0224C185.545 96.06 185.63 96.116 185.702 96.1872C185.774 96.2583 185.831 96.3432 185.869 96.4368L188.213 101.888C188.263 102.005 188.283 102.132 188.272 102.258C188.261 102.384 188.218 102.506 188.148 102.611C188.078 102.717 187.983 102.804 187.871 102.863C187.759 102.923 187.634 102.954 187.507 102.954H187.49Z" fill="#1D1D39"/>
<path d="M111.145 114.595C104.333 117.79 99.3852 124.584 98.1504 132.627C104.165 125.297 111.179 127.452 111.179 127.452L111.145 114.595Z" fill="#6C63FF"/>
<path d="M111.842 134.414C110.653 137.116 110.142 140.067 110.355 143.01C110.567 145.954 111.495 148.801 113.06 151.305C112.993 144.092 118.15 141.945 118.15 141.945L111.842 134.414Z" fill="#6C63FF"/>
<path d="M111.447 123.343C104.584 128.459 100.653 137.156 101.065 146.416C106.105 136.863 114.421 137.676 114.421 137.676L111.447 123.343Z" fill="#6C63FF"/>
<path d="M249.138 55.558C256.152 52.8405 264.468 53.9812 271.179 58.6025C261.712 57.898 258.437 64.4735 258.437 64.4735L249.138 55.558Z" fill="#6C63FF"/>
<path d="M260.78 69.3967C266.433 68.4825 272.599 69.1954 276.379 72.8689C271.739 72.8662 267.247 74.4999 263.695 77.4819L260.78 69.3967Z" fill="#6C63FF"/>
<path d="M258.891 68.5748C264.023 71.0909 268.609 75.2845 269.533 80.4761C265.765 77.7682 261.159 76.4787 256.53 76.8361L258.891 68.5748Z" fill="#6C63FF"/>
<path d="M255.287 61.8147C263.729 60.3805 272.742 63.5425 279.177 70.2019C268.778 67.258 263.628 73.8251 263.628 73.8251L255.287 61.8147Z" fill="#6C63FF"/>
<path d="M160.097 53.6205C159.778 48.8734 162.071 44.7889 167.75 40.5702C166.557 47.347 171.471 49.0412 171.471 49.0412L160.097 53.6205Z" fill="#6C63FF"/>
<path d="M166.298 50.9786C167.423 45.4599 173.085 40.0753 181.325 36.6115C175.445 42.9353 180.183 46.8605 180.183 46.8605L166.298 50.9786Z" fill="#6C63FF"/>
<path d="M119.436 150.089C119.362 150.086 119.289 150.063 119.226 150.022C119.185 149.994 119.149 149.958 119.121 149.917C119.094 149.875 119.075 149.828 119.065 149.779C119.056 149.73 119.056 149.679 119.067 149.63C119.077 149.581 119.097 149.535 119.126 149.494C141.394 116.264 181.916 103.155 182.319 103.029C182.417 103 182.522 103.01 182.613 103.057C182.704 103.104 182.773 103.184 182.806 103.281C182.835 103.377 182.825 103.482 182.778 103.571C182.731 103.66 182.65 103.728 182.554 103.759C182.151 103.885 141.881 116.918 119.756 149.888C119.726 149.948 119.681 149.998 119.625 150.033C119.568 150.069 119.503 150.088 119.436 150.089Z" fill="#1D1D39"/>
<path d="M125.566 171.023C125.524 171.031 125.481 171.031 125.44 171.023C125.343 170.991 125.263 170.922 125.218 170.83C125.172 170.739 125.164 170.634 125.196 170.537C140.568 125.708 180.804 106.283 181.207 106.099C181.298 106.055 181.401 106.05 181.496 106.083C181.59 106.116 181.668 106.185 181.711 106.275C181.734 106.32 181.748 106.369 181.751 106.419C181.755 106.47 181.748 106.52 181.731 106.568C181.715 106.616 181.689 106.659 181.655 106.697C181.622 106.735 181.581 106.765 181.535 106.786C181.132 106.979 141.215 126.27 125.927 170.789C125.896 170.858 125.845 170.918 125.781 170.96C125.717 171.001 125.642 171.023 125.566 171.023Z" fill="#1D1D39"/>
<path d="M191.849 99.7497C191.782 99.7512 191.716 99.7339 191.658 99.6998C191.6 99.6657 191.553 99.6162 191.522 99.5568C191.495 99.5143 191.477 99.4667 191.469 99.417C191.461 99.3673 191.464 99.3165 191.477 99.2678C191.489 99.2191 191.512 99.1735 191.542 99.1338C191.573 99.0941 191.612 99.0611 191.656 99.0368C192.026 98.8187 229.045 77.7922 268.642 83.7806C268.692 83.7867 268.739 83.8028 268.783 83.8278C268.826 83.8529 268.863 83.8864 268.893 83.9264C268.923 83.9664 268.945 84.012 268.956 84.0604C268.968 84.1089 268.97 84.1592 268.961 84.2084C268.943 84.3077 268.888 84.3964 268.807 84.457C268.726 84.5176 268.625 84.5456 268.525 84.5355C229.204 78.5806 192.412 99.4813 192.085 99.6994C192.014 99.7407 191.931 99.7583 191.849 99.7497Z" fill="#1D1D39"/>
<path d="M271.298 102.568C271.259 102.576 271.219 102.576 271.18 102.568C224.308 87.4709 195.236 100.89 194.942 101.041C194.85 101.085 194.745 101.09 194.65 101.056C194.555 101.022 194.477 100.952 194.433 100.861C194.39 100.77 194.385 100.665 194.418 100.57C194.452 100.475 194.523 100.397 194.614 100.354C194.9 100.211 224.224 86.6322 271.415 101.838C271.511 101.872 271.589 101.942 271.635 102.033C271.68 102.123 271.689 102.228 271.659 102.325C271.631 102.397 271.582 102.46 271.517 102.503C271.452 102.547 271.376 102.569 271.298 102.568Z" fill="#1D1D39"/>
<path d="M184.587 307.525C191.827 299.717 191.358 287.527 183.54 280.297C175.722 273.067 163.515 273.536 156.275 281.343C149.036 289.151 149.505 301.341 157.323 308.571C165.141 315.801 177.348 315.332 184.587 307.525Z" fill="#6C63FF"/>
<path d="M224.573 314.536C215.014 314.536 211.637 310.921 208.378 307.432C207.299 306.213 206.115 305.091 204.841 304.077C199.952 300.353 192.241 298.651 188.352 300.437C188.171 300.467 187.984 300.437 187.822 300.351C187.659 300.265 187.529 300.129 187.452 299.962C187.374 299.795 187.354 299.608 187.394 299.429C187.434 299.249 187.531 299.088 187.672 298.969C192.124 296.931 200.431 298.684 205.824 302.785C207.172 303.865 208.425 305.058 209.57 306.35C212.729 309.747 215.719 312.951 224.573 312.951C226.733 313.008 228.869 312.479 230.753 311.422C232.638 310.365 234.2 308.818 235.274 306.945C236.162 305.476 236.641 303.797 236.663 302.081C236.685 300.365 236.25 298.675 235.4 297.183C233.393 293.954 229.26 292.31 223.75 292.57C223.627 292.609 223.497 292.619 223.369 292.6C223.242 292.581 223.121 292.532 223.015 292.459C222.909 292.385 222.822 292.289 222.76 292.176C222.697 292.064 222.662 291.938 222.656 291.81C222.65 291.681 222.674 291.553 222.725 291.435C222.777 291.317 222.855 291.213 222.953 291.13C223.051 291.047 223.168 290.988 223.293 290.957C223.418 290.926 223.548 290.924 223.674 290.951C229.798 290.674 234.451 292.578 236.778 296.327C237.778 298.065 238.297 300.038 238.282 302.042C238.268 304.046 237.719 306.011 236.694 307.734C235.476 309.854 233.707 311.606 231.573 312.803C229.439 314.001 227.02 314.599 224.573 314.536Z" fill="#6C63FF"/>
<path d="M178.582 309.151C168.415 309.048 158.616 305.338 150.938 298.684C150.838 298.53 150.792 298.348 150.806 298.165C150.82 297.983 150.894 297.809 151.016 297.673C151.138 297.536 151.301 297.442 151.481 297.407C151.661 297.371 151.848 297.396 152.013 297.476C158.733 303.465 170.728 309.134 184.109 307.122C184.227 307.07 184.356 307.046 184.484 307.052C184.613 307.058 184.739 307.093 184.851 307.155C184.964 307.218 185.061 307.305 185.135 307.41C185.209 307.516 185.257 307.637 185.276 307.764C185.296 307.891 185.286 308.021 185.247 308.144C185.208 308.266 185.141 308.378 185.052 308.471C184.962 308.564 184.853 308.635 184.732 308.679C184.611 308.722 184.481 308.738 184.353 308.724C182.443 309.009 180.514 309.152 178.582 309.151Z" fill="#6C63FF"/>
<path d="M176.465 311.55C166.562 311.55 158.103 307.658 150.719 299.724C150.575 299.569 150.495 299.365 150.495 299.154C150.495 298.942 150.575 298.739 150.719 298.583C150.875 298.437 151.081 298.356 151.295 298.356C151.508 298.356 151.714 298.437 151.87 298.583C160.043 307.373 169.594 310.971 181.06 309.613C181.18 309.562 181.31 309.541 181.439 309.549C181.569 309.558 181.695 309.596 181.807 309.661C181.919 309.726 182.015 309.817 182.086 309.925C182.158 310.034 182.203 310.157 182.219 310.286C182.234 310.415 182.22 310.545 182.176 310.667C182.132 310.79 182.061 310.9 181.967 310.99C181.874 311.08 181.761 311.147 181.637 311.186C181.513 311.225 181.382 311.235 181.253 311.214C179.665 311.423 178.067 311.535 176.465 311.55Z" fill="#6C63FF"/>
<path d="M161.832 312.523C161.623 312.524 161.421 312.447 161.266 312.308C161.111 312.168 161.013 311.976 160.992 311.768C160.287 302.307 163.554 287.244 172.425 274.923C172.567 274.807 172.744 274.741 172.928 274.736C173.112 274.73 173.293 274.784 173.443 274.891C173.592 274.998 173.703 275.151 173.757 275.326C173.812 275.502 173.807 275.69 173.743 275.863C165.142 287.865 161.958 302.483 162.622 311.651C162.623 311.858 162.547 312.058 162.409 312.213C162.271 312.368 162.081 312.466 161.874 312.489L161.832 312.523Z" fill="#6C63FF"/>
<path d="M153.777 305.016C153.623 305.015 153.471 304.972 153.34 304.891C153.165 304.771 153.041 304.589 152.994 304.382C152.947 304.175 152.981 303.958 153.088 303.775C155.911 299.322 166.394 284.384 182.824 279.142C183.028 279.085 183.246 279.107 183.434 279.203C183.623 279.3 183.768 279.463 183.841 279.662C183.898 279.866 183.876 280.083 183.779 280.271C183.683 280.46 183.519 280.604 183.32 280.677C167.41 285.76 157.204 300.303 154.457 304.639C154.383 304.752 154.282 304.845 154.164 304.911C154.045 304.977 153.912 305.013 153.777 305.016Z" fill="#6C63FF"/>
<path d="M153.777 305.016C153.673 305.017 153.57 304.997 153.475 304.958C153.28 304.872 153.126 304.717 153.042 304.522C152.957 304.328 152.95 304.109 153.021 303.909C155.505 297.811 159.263 292.311 164.042 287.776C168.822 283.241 174.515 279.774 180.741 277.607C180.925 277.594 181.108 277.642 181.262 277.743C181.416 277.843 181.532 277.992 181.593 278.166C181.654 278.339 181.657 278.528 181.6 278.703C181.543 278.878 181.43 279.029 181.279 279.134C175.265 281.221 169.766 284.564 165.149 288.941C160.531 293.317 156.901 298.626 154.499 304.513C154.437 304.656 154.337 304.778 154.21 304.867C154.082 304.956 153.932 305.007 153.777 305.016Z" fill="#6C63FF"/>
<path d="M159.438 311.114C159.234 311.116 159.037 311.044 158.882 310.911C158.728 310.778 158.627 310.594 158.598 310.393C156.565 292.914 162.311 282.916 168.829 274.722C168.967 274.561 169.16 274.458 169.37 274.433C169.58 274.408 169.792 274.463 169.963 274.588C170.127 274.725 170.232 274.92 170.257 275.132C170.282 275.344 170.225 275.557 170.098 275.729C163.798 283.654 158.245 293.341 160.211 310.208C160.228 310.42 160.164 310.631 160.032 310.797C159.899 310.964 159.708 311.074 159.497 311.105L159.438 311.114Z" fill="#6C63FF"/>
<path d="M157.187 309.285C157.012 309.281 156.842 309.222 156.702 309.117C156.562 309.012 156.458 308.865 156.406 308.698C153.886 299.431 155.759 284.938 166.04 274.999C166.196 274.855 166.4 274.775 166.612 274.775C166.823 274.775 167.027 274.855 167.183 274.999C167.329 275.154 167.411 275.36 167.411 275.573C167.411 275.787 167.329 275.992 167.183 276.148C157.817 285.198 155.465 299.145 157.985 308.245C158.035 308.452 158.005 308.67 157.901 308.855C157.796 309.041 157.625 309.179 157.422 309.243L157.187 309.285Z" fill="#6C63FF"/>
<path d="M189.502 297.963C189.334 297.961 189.17 297.908 189.032 297.812C177.02 289.181 162.37 286.003 153.189 286.691C153.006 286.657 152.84 286.563 152.716 286.425C152.592 286.287 152.518 286.112 152.504 285.927C152.491 285.741 152.539 285.557 152.642 285.403C152.744 285.248 152.895 285.132 153.071 285.072C162.547 284.376 177.633 287.63 189.981 296.495C190.105 296.603 190.195 296.745 190.239 296.904C190.283 297.063 190.279 297.231 190.228 297.387C190.177 297.543 190.081 297.681 189.952 297.784C189.823 297.886 189.666 297.948 189.502 297.963Z" fill="#6C63FF"/>
<path d="M189.67 295.723C189.557 295.726 189.445 295.703 189.342 295.656C178.573 290.884 162.277 290.255 151.441 294.18C151.336 294.256 151.215 294.305 151.087 294.326C150.959 294.347 150.828 294.338 150.704 294.3C150.58 294.261 150.467 294.195 150.373 294.106C150.279 294.017 150.208 293.907 150.163 293.786C150.119 293.664 150.103 293.534 150.117 293.405C150.132 293.277 150.176 293.153 150.246 293.045C150.316 292.936 150.41 292.845 150.522 292.778C150.633 292.712 150.758 292.672 150.887 292.662C162.076 288.603 178.884 289.257 189.997 294.18C190.188 294.273 190.336 294.434 190.413 294.632C190.489 294.83 190.488 295.049 190.409 295.245C190.342 295.386 190.238 295.504 190.107 295.589C189.977 295.673 189.825 295.72 189.67 295.723Z" fill="#6C63FF"/>
<path d="M189.635 293.459C189.524 293.457 189.413 293.434 189.311 293.389C189.209 293.344 189.116 293.28 189.039 293.199C181.051 284.527 170.702 281.457 155.439 283.21C155.319 283.26 155.189 283.282 155.06 283.273C154.93 283.265 154.804 283.226 154.692 283.161C154.58 283.096 154.484 283.006 154.413 282.897C154.341 282.789 154.296 282.665 154.28 282.537C154.265 282.408 154.28 282.277 154.323 282.155C154.367 282.033 154.438 281.922 154.532 281.832C154.625 281.742 154.738 281.675 154.862 281.636C154.986 281.597 155.118 281.588 155.246 281.608C170.836 279.796 181.941 283.134 190.198 292.109C190.291 292.228 190.35 292.37 190.368 292.521C190.387 292.671 190.364 292.823 190.303 292.961C190.242 293.1 190.145 293.219 190.021 293.307C189.898 293.394 189.753 293.447 189.602 293.459H189.635Z" fill="#6C63FF"/>
<path d="M189.031 290.171C188.817 290.166 188.612 290.079 188.46 289.928C178.473 279.981 164.386 278.547 158.01 280.702C157.826 280.714 157.642 280.665 157.488 280.562C157.335 280.46 157.219 280.309 157.16 280.134C157.1 279.959 157.1 279.77 157.16 279.595C157.22 279.42 157.335 279.27 157.489 279.167C164.251 276.878 179.136 278.329 189.603 288.779C189.747 288.934 189.827 289.138 189.827 289.349C189.827 289.561 189.747 289.764 189.603 289.92C189.452 290.074 189.247 290.164 189.031 290.171Z" fill="#6C63FF"/>
<path d="M185.302 307.566C185.227 307.578 185.15 307.578 185.075 307.566C165.755 301.854 151.551 288.888 151.416 288.754C151.32 288.598 151.277 288.416 151.294 288.234C151.311 288.052 151.387 287.88 151.51 287.745C151.634 287.61 151.799 287.52 151.979 287.487C152.159 287.454 152.345 287.48 152.508 287.563C152.651 287.697 166.595 300.412 185.537 306.014C185.699 306.092 185.831 306.219 185.916 306.377C186 306.535 186.031 306.716 186.005 306.894C185.978 307.071 185.896 307.235 185.769 307.362C185.643 307.489 185.479 307.572 185.302 307.6V307.566Z" fill="#6C63FF"/>
<path d="M185.688 307.071C185.578 307.07 185.47 307.047 185.369 307.004C173.679 301.792 162.479 295.547 151.903 288.343C151.781 288.3 151.67 288.229 151.579 288.136C151.488 288.043 151.42 287.93 151.381 287.807C151.341 287.683 151.331 287.552 151.351 287.423C151.37 287.295 151.42 287.173 151.495 287.067C151.57 286.961 151.669 286.874 151.783 286.812C151.898 286.751 152.025 286.717 152.155 286.713C152.285 286.709 152.414 286.735 152.532 286.789C152.65 286.844 152.754 286.925 152.836 287.026C163.318 294.166 174.42 300.355 186.007 305.52C186.157 305.609 186.275 305.742 186.346 305.902C186.416 306.061 186.435 306.238 186.4 306.409C186.365 306.579 186.277 306.735 186.15 306.853C186.022 306.972 185.861 307.048 185.688 307.071Z" fill="#6C63FF"/>
<path d="M186.403 306.073C186.271 306.075 186.141 306.044 186.025 305.981C169.502 297.107 152.181 288.494 152.013 288.41C151.876 288.288 151.783 288.125 151.747 287.945C151.712 287.764 151.737 287.578 151.818 287.413C151.899 287.249 152.031 287.115 152.196 287.033C152.36 286.951 152.547 286.925 152.727 286.959C152.904 287.043 170.25 295.673 186.789 304.572C186.928 304.67 187.034 304.807 187.093 304.967C187.152 305.126 187.161 305.299 187.119 305.464C187.077 305.628 186.986 305.776 186.858 305.888C186.731 306 186.572 306.07 186.403 306.09V306.073Z" fill="#6C63FF"/>
<path d="M186.982 305.184C186.803 305.187 186.627 305.128 186.487 305.016C171.484 293.274 152.626 287.823 152.433 287.772C152.274 287.678 152.15 287.533 152.081 287.361C152.012 287.189 152.003 286.999 152.054 286.821C152.104 286.643 152.213 286.487 152.362 286.377C152.511 286.266 152.693 286.209 152.878 286.212C153.072 286.271 172.198 291.79 187.486 303.742C187.648 303.879 187.751 304.071 187.776 304.281C187.801 304.491 187.745 304.703 187.621 304.874C187.546 304.972 187.449 305.051 187.338 305.105C187.228 305.159 187.106 305.186 186.982 305.184Z" fill="#6C63FF"/>
<path d="M188.527 301.93C188.342 301.929 188.161 301.867 188.015 301.754C174.272 290.481 152.735 287.823 152.55 287.798C152.378 287.729 152.233 287.606 152.138 287.447C152.043 287.288 152.003 287.102 152.025 286.918C152.048 286.734 152.13 286.563 152.26 286.431C152.39 286.299 152.56 286.213 152.743 286.187C152.962 286.187 174.928 288.93 189.048 300.504C189.205 300.645 189.304 300.839 189.324 301.049C189.344 301.259 189.285 301.468 189.157 301.636C189.079 301.727 188.983 301.801 188.874 301.851C188.765 301.902 188.647 301.929 188.527 301.93Z" fill="#6C63FF"/>
<path d="M163.202 313.177C163.04 313.16 162.887 313.096 162.761 312.994C162.635 312.891 162.541 312.755 162.492 312.6C162.442 312.446 162.438 312.28 162.481 312.123C162.523 311.967 162.61 311.826 162.731 311.718C178.045 300.655 186.789 285.307 186.873 285.156C186.905 285.031 186.965 284.915 187.049 284.817C187.133 284.719 187.239 284.642 187.357 284.591C187.476 284.541 187.605 284.518 187.734 284.525C187.863 284.532 187.988 284.569 188.101 284.633C188.213 284.696 188.309 284.784 188.382 284.891C188.454 284.998 188.501 285.119 188.519 285.247C188.537 285.375 188.525 285.505 188.484 285.627C188.443 285.749 188.375 285.861 188.284 285.952C188.2 286.103 179.279 301.762 163.681 313.026C163.54 313.124 163.373 313.177 163.202 313.177Z" fill="#6C63FF"/>
<g opacity="0.3">
<path d="M178.582 309.151C168.415 309.048 158.616 305.338 150.938 298.684C150.838 298.53 150.792 298.348 150.806 298.165C150.82 297.983 150.894 297.809 151.016 297.673C151.138 297.536 151.301 297.442 151.481 297.407C151.661 297.371 151.848 297.396 152.013 297.476C158.733 303.465 170.728 309.134 184.109 307.122C184.227 307.07 184.356 307.046 184.484 307.052C184.613 307.058 184.739 307.093 184.851 307.155C184.964 307.218 185.061 307.305 185.135 307.41C185.209 307.516 185.257 307.637 185.276 307.764C185.296 307.891 185.286 308.021 185.247 308.144C185.208 308.266 185.141 308.378 185.052 308.471C184.962 308.564 184.853 308.635 184.732 308.679C184.611 308.722 184.481 308.738 184.353 308.724C182.443 309.009 180.514 309.152 178.582 309.151Z" fill="black"/>
<path d="M176.465 311.55C166.562 311.55 158.103 307.658 150.719 299.724C150.575 299.569 150.495 299.365 150.495 299.154C150.495 298.942 150.575 298.739 150.719 298.583C150.875 298.437 151.081 298.356 151.295 298.356C151.508 298.356 151.714 298.437 151.87 298.583C160.043 307.373 169.594 310.971 181.06 309.613C181.18 309.562 181.31 309.541 181.439 309.549C181.569 309.558 181.695 309.596 181.807 309.661C181.919 309.726 182.015 309.817 182.086 309.925C182.158 310.034 182.203 310.157 182.219 310.286C182.234 310.415 182.22 310.545 182.176 310.667C182.132 310.79 182.061 310.9 181.967 310.99C181.874 311.08 181.761 311.147 181.637 311.186C181.513 311.225 181.382 311.235 181.253 311.214C179.665 311.423 178.067 311.535 176.465 311.55Z" fill="black"/>
<path d="M161.833 312.523C161.624 312.524 161.422 312.447 161.267 312.308C161.112 312.168 161.014 311.976 160.993 311.768C160.288 302.307 163.555 287.244 172.426 274.923C172.568 274.807 172.745 274.741 172.929 274.736C173.113 274.73 173.294 274.784 173.444 274.891C173.593 274.998 173.704 275.151 173.758 275.326C173.813 275.502 173.808 275.69 173.744 275.863C165.143 287.865 161.959 302.483 162.623 311.651C162.624 311.858 162.548 312.058 162.41 312.213C162.272 312.368 162.082 312.466 161.875 312.489L161.833 312.523Z" fill="black"/>
<path d="M153.778 305.016C153.623 305.015 153.472 304.972 153.341 304.891C153.166 304.771 153.042 304.589 152.995 304.382C152.948 304.175 152.982 303.958 153.089 303.775C155.912 299.322 166.395 284.384 182.825 279.142C183.029 279.085 183.247 279.107 183.435 279.203C183.624 279.3 183.769 279.463 183.842 279.662C183.899 279.866 183.877 280.083 183.78 280.271C183.684 280.46 183.52 280.604 183.321 280.677C167.411 285.76 157.205 300.303 154.458 304.639C154.384 304.752 154.283 304.845 154.165 304.911C154.046 304.977 153.913 305.013 153.778 305.016Z" fill="black"/>
<path d="M153.778 305.016C153.674 305.017 153.571 304.997 153.476 304.958C153.281 304.872 153.127 304.717 153.043 304.522C152.958 304.328 152.951 304.109 153.022 303.909C155.506 297.811 159.264 292.311 164.043 287.776C168.823 283.241 174.516 279.774 180.742 277.607C180.926 277.594 181.109 277.642 181.263 277.743C181.417 277.843 181.533 277.992 181.594 278.166C181.655 278.339 181.658 278.528 181.601 278.703C181.544 278.878 181.431 279.029 181.28 279.134C175.266 281.221 169.767 284.564 165.15 288.941C160.532 293.317 156.902 298.626 154.5 304.513C154.438 304.656 154.338 304.778 154.211 304.867C154.083 304.956 153.933 305.007 153.778 305.016Z" fill="black"/>
<path d="M159.439 311.114C159.235 311.116 159.038 311.044 158.883 310.911C158.729 310.778 158.628 310.594 158.599 310.393C156.566 292.914 162.312 282.916 168.83 274.722C168.968 274.561 169.161 274.458 169.371 274.433C169.581 274.408 169.793 274.463 169.964 274.588C170.128 274.725 170.233 274.92 170.258 275.132C170.283 275.344 170.226 275.557 170.099 275.729C163.799 283.654 158.246 293.341 160.212 310.208C160.229 310.42 160.165 310.631 160.032 310.797C159.9 310.964 159.709 311.074 159.498 311.105L159.439 311.114Z" fill="black"/>
<path d="M157.188 309.285C157.013 309.281 156.843 309.222 156.703 309.117C156.563 309.012 156.459 308.865 156.407 308.698C153.887 299.431 155.76 284.938 166.041 274.999C166.197 274.855 166.401 274.775 166.613 274.775C166.824 274.775 167.028 274.855 167.184 274.999C167.33 275.154 167.412 275.36 167.412 275.573C167.412 275.787 167.33 275.992 167.184 276.148C157.818 285.198 155.466 299.145 157.986 308.245C158.036 308.452 158.006 308.67 157.902 308.855C157.797 309.041 157.626 309.179 157.423 309.243L157.188 309.285Z" fill="black"/>
<path d="M189.502 297.963C189.334 297.961 189.17 297.908 189.032 297.812C177.02 289.181 162.37 286.003 153.189 286.691C153.006 286.657 152.84 286.563 152.716 286.425C152.592 286.287 152.518 286.112 152.504 285.927C152.491 285.741 152.539 285.557 152.642 285.403C152.744 285.248 152.895 285.132 153.071 285.072C162.547 284.376 177.633 287.63 189.981 296.495C190.105 296.603 190.195 296.745 190.239 296.904C190.283 297.063 190.279 297.231 190.228 297.387C190.177 297.543 190.081 297.681 189.952 297.784C189.823 297.886 189.666 297.948 189.502 297.963Z" fill="black"/>
<path d="M189.671 295.723C189.558 295.726 189.446 295.703 189.343 295.656C178.574 290.884 162.278 290.255 151.442 294.18C151.337 294.256 151.216 294.305 151.088 294.326C150.96 294.347 150.829 294.338 150.705 294.3C150.581 294.261 150.468 294.195 150.374 294.106C150.28 294.017 150.208 293.907 150.164 293.786C150.12 293.664 150.104 293.534 150.118 293.405C150.133 293.277 150.177 293.153 150.247 293.045C150.317 292.936 150.411 292.845 150.522 292.778C150.634 292.712 150.759 292.672 150.888 292.662C162.077 288.603 178.885 289.257 189.998 294.18C190.189 294.273 190.337 294.434 190.414 294.632C190.49 294.83 190.489 295.049 190.41 295.245C190.343 295.386 190.239 295.504 190.108 295.589C189.978 295.673 189.826 295.72 189.671 295.723Z" fill="black"/>
<path d="M189.637 293.459C189.526 293.457 189.415 293.434 189.313 293.389C189.211 293.344 189.118 293.28 189.041 293.199C181.053 284.527 170.704 281.457 155.441 283.21C155.321 283.26 155.191 283.282 155.062 283.273C154.932 283.265 154.806 283.226 154.694 283.161C154.582 283.096 154.486 283.006 154.415 282.897C154.343 282.789 154.298 282.665 154.282 282.537C154.267 282.408 154.281 282.277 154.325 282.155C154.369 282.033 154.44 281.922 154.534 281.832C154.627 281.742 154.74 281.675 154.864 281.636C154.988 281.597 155.119 281.588 155.248 281.608C170.838 279.796 181.943 283.134 190.2 292.109C190.293 292.228 190.352 292.37 190.37 292.521C190.389 292.671 190.366 292.823 190.305 292.961C190.244 293.1 190.147 293.219 190.023 293.307C189.9 293.394 189.755 293.447 189.604 293.459H189.637Z" fill="black"/>
<path d="M189.032 290.171C188.818 290.166 188.613 290.079 188.461 289.928C178.474 279.981 164.387 278.547 158.011 280.702C157.827 280.714 157.643 280.665 157.489 280.562C157.336 280.46 157.22 280.309 157.161 280.134C157.101 279.959 157.101 279.77 157.161 279.595C157.221 279.42 157.336 279.27 157.49 279.167C164.252 276.878 179.137 278.329 189.604 288.779C189.748 288.934 189.828 289.138 189.828 289.349C189.828 289.561 189.748 289.764 189.604 289.92C189.453 290.074 189.248 290.164 189.032 290.171Z" fill="black"/>
<path d="M185.303 307.566C185.228 307.578 185.151 307.578 185.076 307.566C165.756 301.854 151.552 288.888 151.417 288.754C151.321 288.598 151.278 288.416 151.295 288.234C151.312 288.052 151.388 287.88 151.511 287.745C151.635 287.61 151.799 287.52 151.98 287.487C152.16 287.454 152.346 287.48 152.509 287.563C152.652 287.697 166.596 300.412 185.538 306.014C185.7 306.092 185.832 306.219 185.917 306.377C186.001 306.535 186.032 306.716 186.006 306.894C185.979 307.071 185.897 307.235 185.77 307.362C185.644 307.489 185.48 307.572 185.303 307.6V307.566Z" fill="black"/>
<path d="M185.689 307.071C185.579 307.07 185.471 307.047 185.37 307.004C173.68 301.792 162.48 295.547 151.904 288.343C151.782 288.3 151.671 288.229 151.58 288.136C151.489 288.043 151.421 287.93 151.382 287.807C151.342 287.683 151.332 287.552 151.352 287.423C151.371 287.295 151.421 287.173 151.496 287.067C151.571 286.961 151.67 286.874 151.784 286.812C151.899 286.751 152.026 286.717 152.156 286.713C152.286 286.709 152.415 286.735 152.533 286.789C152.651 286.844 152.755 286.925 152.837 287.026C163.319 294.166 174.421 300.355 186.008 305.52C186.158 305.609 186.276 305.742 186.347 305.902C186.417 306.061 186.436 306.238 186.401 306.409C186.366 306.579 186.278 306.735 186.151 306.853C186.023 306.972 185.862 307.048 185.689 307.071Z" fill="black"/>
<path d="M186.403 306.073C186.271 306.075 186.141 306.044 186.025 305.981C169.502 297.107 152.181 288.494 152.013 288.41C151.876 288.288 151.783 288.125 151.747 287.945C151.712 287.764 151.737 287.578 151.818 287.413C151.899 287.249 152.031 287.115 152.196 287.033C152.36 286.951 152.547 286.925 152.727 286.959C152.904 287.043 170.25 295.673 186.789 304.572C186.928 304.67 187.034 304.807 187.093 304.967C187.152 305.126 187.161 305.299 187.119 305.464C187.077 305.628 186.986 305.776 186.858 305.888C186.731 306 186.572 306.07 186.403 306.09V306.073Z" fill="black"/>
<path d="M186.982 305.184C186.803 305.187 186.627 305.128 186.487 305.016C171.484 293.274 152.626 287.823 152.433 287.772C152.274 287.678 152.15 287.533 152.081 287.361C152.012 287.189 152.003 286.999 152.054 286.821C152.104 286.643 152.213 286.487 152.362 286.377C152.511 286.266 152.693 286.209 152.878 286.212C153.072 286.271 172.198 291.79 187.486 303.742C187.648 303.879 187.751 304.071 187.776 304.281C187.801 304.491 187.745 304.703 187.621 304.874C187.546 304.972 187.449 305.051 187.338 305.105C187.228 305.159 187.106 305.186 186.982 305.184Z" fill="black"/>
<path d="M188.528 301.93C188.343 301.929 188.162 301.867 188.016 301.754C174.273 290.481 152.736 287.823 152.551 287.798C152.379 287.729 152.234 287.606 152.139 287.447C152.044 287.288 152.004 287.102 152.026 286.918C152.049 286.734 152.131 286.563 152.261 286.431C152.391 286.299 152.561 286.213 152.744 286.187C152.963 286.187 174.929 288.93 189.049 300.504C189.206 300.645 189.305 300.839 189.325 301.049C189.345 301.259 189.286 301.468 189.158 301.636C189.08 301.727 188.984 301.801 188.875 301.851C188.766 301.902 188.648 301.929 188.528 301.93Z" fill="black"/>
<path d="M163.202 313.177C163.04 313.16 162.887 313.096 162.761 312.994C162.635 312.891 162.541 312.755 162.492 312.6C162.442 312.446 162.438 312.28 162.481 312.123C162.523 311.967 162.61 311.826 162.731 311.718C178.045 300.655 186.789 285.307 186.873 285.156C186.905 285.031 186.965 284.915 187.049 284.817C187.133 284.719 187.239 284.642 187.357 284.591C187.476 284.541 187.605 284.518 187.734 284.525C187.863 284.532 187.988 284.569 188.101 284.633C188.213 284.696 188.309 284.784 188.382 284.891C188.454 284.998 188.501 285.119 188.519 285.247C188.537 285.375 188.525 285.505 188.484 285.627C188.443 285.749 188.375 285.861 188.284 285.952C188.2 286.103 179.279 301.762 163.681 313.026C163.54 313.124 163.373 313.177 163.202 313.177Z" fill="black"/>
</g>
</svg>
