<svg width="220" height="220" viewBox="0 0 220 220" fill="none" xmlns="http://www.w3.org/2000/svg">
<path d="M189.249 187.583L202.999 201.333M138.832 164.667C138.832 171.96 141.729 178.955 146.887 184.112C152.044 189.269 159.039 192.167 166.332 192.167C173.625 192.167 180.62 189.269 185.777 184.112C190.935 178.955 193.832 171.96 193.832 164.667C193.832 157.373 190.935 150.378 185.777 145.221C180.62 140.064 173.625 137.167 166.332 137.167C159.039 137.167 152.044 140.064 146.887 145.221C141.729 150.378 138.832 157.373 138.832 164.667Z" stroke="#6C63FF" stroke-width="10" stroke-linecap="round" stroke-linejoin="round"/>
<path d="M184.667 109.667V52.3658C184.667 51.6423 184.525 50.9257 184.248 50.2572C183.971 49.5886 183.565 48.9813 183.053 48.47L154.197 19.6133C153.166 18.5816 151.768 18.0013 150.31 18H43.5C42.0413 18 40.6424 18.5795 39.6109 19.6109C38.5795 20.6424 38 22.0413 38 23.5V195.833C38 197.292 38.5795 198.691 39.6109 199.722C40.6424 200.754 42.0413 201.333 43.5 201.333H102.167" stroke="#6C63FF" stroke-width="10" stroke-linecap="round" stroke-linejoin="round"/>
<path d="M148 18V49.1667C148 50.6254 148.579 52.0243 149.611 53.0558C150.642 54.0872 152.041 54.6667 153.5 54.6667H184.667" stroke="#6C63FF" stroke-width="10" stroke-linecap="round" stroke-linejoin="round"/>
</svg>
