<svg width="590" height="573" viewBox="0 0 590 573" fill="none" xmlns="http://www.w3.org/2000/svg">
<g filter="url(#filter0_d_954_3073)">
<path d="M30.5845 155.719C44.9319 114.704 104.688 92.2448 159.244 67.7766C213.8 43.3084 263.512 16.8001 303.74 29.4745C344.324 42.1179 400.935 62.7321 443 96.359C485.065 129.986 513.295 176.563 537.431 210.348C561.892 243.752 557.102 295.545 546.4 345.391C535.728 395.586 518.432 443.896 486.051 479.799C453.641 515.354 405.76 538.183 359.48 538.353C313.527 538.142 264 521.175 220.016 502.495C176.032 483.815 137.59 463.421 113.14 434.238C88.6601 404.706 82.9604 360.163 64.7733 308.265C46.5556 256.018 16.2371 196.734 30.5845 155.719Z" fill="url(#paint0_linear_954_3073)"/>
</g>
<defs>
<filter id="filter0_d_954_3073" x="0.847168" y="0.198242" width="588.301" height="572.155" filterUnits="userSpaceOnUse" color-interpolation-filters="sRGB">
<feFlood flood-opacity="0" result="BackgroundImageFix"/>
<feColorMatrix in="SourceAlpha" type="matrix" values="0 0 0 0 0 0 0 0 0 0 0 0 0 0 0 0 0 0 127 0" result="hardAlpha"/>
<feOffset dx="4" dy="4"/>
<feGaussianBlur stdDeviation="15"/>
<feComposite in2="hardAlpha" operator="out"/>
<feColorMatrix type="matrix" values="0 0 0 0 0 0 0 0 0 0 0 0 0 0 0 0 0 0 0.1 0"/>
<feBlend mode="normal" in2="BackgroundImageFix" result="effect1_dropShadow_954_3073"/>
<feBlend mode="normal" in="SourceGraphic" in2="effect1_dropShadow_954_3073" result="shape"/>
</filter>
<linearGradient id="paint0_linear_954_3073" x1="396.413" y1="544.916" x2="147.166" y2="-19.8196" gradientUnits="userSpaceOnUse">
<stop stop-color="#F8A4D8"/>
<stop offset="1" stop-color="#6C63FF"/>
</linearGradient>
</defs>
</svg>
