<svg width="24" height="24" viewBox="0 0 24 24" fill="none" xmlns="http://www.w3.org/2000/svg">
<path d="M10.8745 0.133224C7.15873 0.510391 3.8853 2.54523 1.90168 5.70225C-0.365973 9.30629 -0.501008 13.9766 1.55245 17.7064C2.47442 19.3827 3.84805 20.882 5.43122 21.9344C6.9492 22.9402 8.62549 23.5641 10.5486 23.8388C11.0934 23.9134 12.9326 23.918 13.4821 23.8388C16.4203 23.4291 18.8462 22.1626 20.8252 20.016C22.4503 18.2559 23.4886 16.0022 23.8518 13.4691C23.931 12.9196 23.931 11.085 23.8518 10.5356C23.5771 8.59852 22.9625 6.95482 21.9427 5.41821C21.5143 4.76632 21.0813 4.23549 20.476 3.62551C18.6181 1.74433 16.3178 0.584892 13.6684 0.193758C13.1003 0.109943 11.4473 0.072691 10.8745 0.133224ZM13.3517 1.36251C14.5857 1.52548 15.6659 1.85143 16.7416 2.38691C17.9196 2.96896 18.8136 3.62085 19.7263 4.56144C21.6773 6.58231 22.725 9.17591 22.725 12.0023C22.725 14.8008 21.6959 17.3758 19.7822 19.3874C18.8695 20.3419 17.9755 20.9985 16.7788 21.5991C14.5996 22.6934 12.0433 23.0007 9.62661 22.4559C8.03413 22.0974 6.41837 21.2965 5.1658 20.2488C3.06112 18.4887 1.73871 16.0767 1.37551 13.3387C1.28704 12.6496 1.28704 11.397 1.37086 10.6985C1.88306 6.59162 4.70948 3.13193 8.61618 1.83746C9.32395 1.59998 9.95256 1.45564 10.6417 1.36251C11.3029 1.27869 12.6859 1.27869 13.3517 1.36251Z" fill="#1D1D39"/>
<path d="M8.99836 6.89452C8.78417 6.97833 8.53273 7.23443 8.47685 7.43466C8.41632 7.66282 8.41166 16.3423 8.47685 16.5705C8.57463 16.929 9.03096 17.2131 9.40813 17.1479C9.61766 17.1106 16.3135 12.6591 16.4625 12.4542C16.5976 12.268 16.5976 11.7372 16.4625 11.5509C16.4067 11.4811 14.8375 10.4008 12.9703 9.15286C9.30103 6.69895 9.38484 6.75017 8.99836 6.89452ZM12.5 10.2564C13.9202 11.2017 15.0842 11.9886 15.0842 12.0026C15.0842 12.0212 10.3767 15.1736 9.77598 15.5554L9.64094 15.6439V12.0026V8.36128L9.77598 8.44975C9.85048 8.49631 11.0751 9.30652 12.5 10.2564Z" fill="#1D1D39"/>
</svg>
