<svg width="16" height="16" viewBox="0 0 16 16" fill="none" xmlns="http://www.w3.org/2000/svg">
<g clip-path="url(#clip0_1450_4026)">
<path d="M7.77778 16C12.0733 16 15.5556 12.4183 15.5556 8C15.5556 3.58172 12.0733 0 7.77778 0C3.48223 0 0 3.58172 0 8C0 12.4183 3.48223 16 7.77778 16Z" fill="url(#paint0_linear_1450_4026)"/>
<path d="M5.45117 11.1111V4.64644H8.00166C8.49202 4.64644 8.9097 4.74008 9.25482 4.92737C9.59997 5.11257 9.86299 5.37035 10.044 5.70075C10.227 6.02902 10.3186 6.40782 10.3186 6.83711C10.3186 7.26639 10.226 7.64519 10.0408 7.97346C9.85562 8.30177 9.58731 8.55746 9.23588 8.74053C8.88655 8.92359 8.46357 9.01515 7.96695 9.01515H6.34131V7.91982H7.74602C8.00904 7.91982 8.22579 7.87457 8.39624 7.78408C8.56882 7.69151 8.69717 7.56417 8.78135 7.40213C8.86762 7.23799 8.91077 7.04964 8.91077 6.83711C8.91077 6.62248 8.86762 6.43519 8.78135 6.27524C8.69717 6.11319 8.56882 5.98799 8.39624 5.89959C8.22371 5.80911 8.00482 5.7639 7.73971 5.7639H6.81797V11.1111H5.45117Z" fill="white"/>
</g>
<defs>
<linearGradient id="paint0_linear_1450_4026" x1="0" y1="0" x2="15.9936" y2="15.5494" gradientUnits="userSpaceOnUse">
<stop stop-color="#F8A4D8"/>
<stop offset="1" stop-color="#6C63FF"/>
</linearGradient>
<clipPath id="clip0_1450_4026">
<rect width="15.5556" height="16" fill="white"/>
</clipPath>
</defs>
</svg>
