<svg width="16" height="16" viewBox="0 0 16 16" fill="none" xmlns="http://www.w3.org/2000/svg">
<path d="M15.5556 8C15.5556 12.4183 12.0733 16 7.77778 16C3.48223 16 0 12.4183 0 8C0 3.58172 3.48223 0 7.77778 0C12.0733 0 15.5556 3.58172 15.5556 8Z" fill="url(#paint0_linear_917_3708)"/>
<path d="M7.29798 11.1111H5.00631V4.64646H7.31692C7.96717 4.64646 8.52694 4.77588 8.99621 5.03472C9.46549 5.29146 9.82639 5.66077 10.0789 6.14268C10.3335 6.62458 10.4609 7.20118 10.4609 7.87247C10.4609 8.54588 10.3335 9.12458 10.0789 9.60859C9.82639 10.0926 9.46338 10.464 8.9899 10.7229C8.51852 10.9817 7.95455 11.1111 7.29798 11.1111ZM6.37311 9.94003H7.24116C7.6452 9.94003 7.98506 9.86848 8.26073 9.72538C8.53851 9.58018 8.74684 9.35606 8.88573 9.05303C9.02673 8.7479 9.09722 8.35438 9.09722 7.87247C9.09722 7.39478 9.02673 7.00442 8.88573 6.70139C8.74684 6.39836 8.53956 6.17529 8.26389 6.0322C7.98822 5.8891 7.64836 5.81755 7.24432 5.81755H6.37311V9.94003Z" fill="white"/>
<defs>
<linearGradient id="paint0_linear_917_3708" x1="0" y1="0" x2="15.9937" y2="15.5494" gradientUnits="userSpaceOnUse">
<stop stop-color="#F8A4D8"/>
<stop offset="1" stop-color="#6C63FF"/>
</linearGradient>
</defs>
</svg>
